<?xml version="1.0" standalone="no"?>
<!DOCTYPE svg PUBLIC "-//W3C//DTD SVG 1.1//EN" "http://www.w3.org/Graphics/SVG/1.1/DTD/svg11.dtd" >
<svg xmlns="http://www.w3.org/2000/svg" xmlns:xlink="http://www.w3.org/1999/xlink" version="1.1">
<metadata>
Created by FontForge 20161116 at Tue May 17 13:54:34 2016
 By Jimmy Wärting
Copyright \(c\) 2016 by Fontfabric LLC. All rights reserved.
</metadata>
<defs>
<font id="Phenomena-ExtraLight" horiz-adv-x="0" >
  <font-face 
    font-family="Phenomena ExtraLight"
    font-weight="250"
    font-stretch="normal"
    units-per-em="1000"
    panose-1="0 0 3 0 0 0 0 0 0 0"
    ascent="800"
    descent="-200"
    x-height="500"
    cap-height="700"
    bbox="-333.194 -217 821 911"
    underline-thickness="50"
    underline-position="-100"
    stemh="30"
    stemv="31"
    unicode-range="U+0020-25CA"
  />
<missing-glyph horiz-adv-x="500" 
d="M410 800v-1000h-317v1000h317zM333 733h-165v-33h65v-37h-66v-33h166v33h-66v37h66v33zM267 604h-100v-104h166v34h-66v70zM233 570v-36h-33v36h33zM333 473h-166v-33h66v-37h-66v-33h100v70h66v33zM333 413h-33v-66h-133v-34h166v100zM333 291h-100v-56h34v23h33v-47
h-100v80h-33v-113h166v113zM333 118h-166v-113h166v113zM300 85v-47h-100v47h100zM333 -18h-166v-33h70l-70 -47v-33h166v33h-102l70 47h32v33z" />
    <glyph glyph-name=".notdef" horiz-adv-x="500" 
d="M410 800v-1000h-317v1000h317zM333 733h-165v-33h65v-37h-66v-33h166v33h-66v37h66v33zM267 604h-100v-104h166v34h-66v70zM233 570v-36h-33v36h33zM333 473h-166v-33h66v-37h-66v-33h100v70h66v33zM333 413h-33v-66h-133v-34h166v100zM333 291h-100v-56h34v23h33v-47
h-100v80h-33v-113h166v113zM333 118h-166v-113h166v113zM300 85v-47h-100v47h100zM333 -18h-166v-33h70l-70 -47v-33h166v33h-102l70 47h32v33z" />
    <glyph glyph-name="A" unicode="A" horiz-adv-x="453" 
d="M76 0c-4 0 -7 3 -7 7v524c0 106 63 177 157 177s158 -71 158 -177v-524c1 -4 -2 -7 -5 -7h-19c-4 0 -7 3 -8 7v263h-251v-263c0 -4 -3 -7 -6 -7h-19zM101 300h251v231c0 90 -47 147 -126 147c-76 0 -125 -57 -125 -147v-231z" />
    <glyph glyph-name="Aacute" unicode="&#xc1;" horiz-adv-x="453" 
d="M203 769c-5 0 -7 4 -4 8l71 90c2 3 6 4 8 4h23c6 0 8 -3 4 -8l-80 -90c-1 -3 -5 -4 -7 -4h-15zM76 0c-4 0 -7 3 -7 7v524c0 106 63 177 157 177s158 -71 158 -177v-524c1 -4 -2 -7 -5 -7h-19c-4 0 -7 3 -8 7v263h-251v-263c0 -4 -3 -7 -6 -7h-19zM101 300h251v231
c0 90 -47 147 -126 147c-76 0 -125 -57 -125 -147v-231z" />
    <glyph glyph-name="Abreve" unicode="&#x102;" horiz-adv-x="453" 
d="M226 769c-60 0 -101 38 -104 95c0 4 3 6 7 6h16c4 0 6 -2 7 -6c2 -43 29 -68 74 -68s72 25 75 68c0 4 3 6 7 6h16c4 0 6 -2 6 -6c-3 -57 -43 -95 -104 -95zM76 0c-4 0 -7 3 -7 7v524c0 106 63 177 157 177s158 -71 158 -177v-524c1 -4 -2 -7 -5 -7h-19c-4 0 -7 3 -8 7
v263h-251v-263c0 -4 -3 -7 -6 -7h-19zM101 300h251v231c0 90 -47 147 -126 147c-76 0 -125 -57 -125 -147v-231z" />
    <glyph glyph-name="Acircumflex" unicode="&#xc2;" horiz-adv-x="453" 
d="M322 777c2 -4 1 -8 -4 -8h-15c-3 0 -6 1 -8 4l-69 79l-69 -79c-2 -3 -5 -4 -8 -4h-15c-5 0 -6 4 -3 8l73 90c2 3 5 4 8 4h28c3 0 6 -1 8 -4zM76 0c-4 0 -7 3 -7 7v524c0 106 63 177 157 177s158 -71 158 -177v-524c1 -4 -2 -7 -5 -7h-19c-4 0 -7 3 -8 7v263h-251v-263
c0 -4 -3 -7 -6 -7h-19zM101 300h251v231c0 90 -47 147 -126 147c-76 0 -125 -57 -125 -147v-231z" />
    <glyph glyph-name="Adieresis" unicode="&#xc4;" horiz-adv-x="453" 
d="M178 797c-16 0 -27 11 -27 26c0 16 11 27 27 27c15 0 26 -11 26 -27c0 -15 -11 -26 -26 -26zM275 797c-16 0 -27 11 -27 26c0 16 11 27 27 27c15 0 26 -11 26 -27c0 -15 -11 -26 -26 -26zM76 0c-4 0 -7 3 -7 7v524c0 106 63 177 157 177s158 -71 158 -177v-524
c1 -4 -2 -7 -5 -7h-19c-4 0 -7 3 -8 7v263h-251v-263c0 -4 -3 -7 -6 -7h-19zM101 300h251v231c0 90 -47 147 -126 147c-76 0 -125 -57 -125 -147v-231z" />
    <glyph glyph-name="Agrave" unicode="&#xc0;" horiz-adv-x="453" 
d="M250 769h-15c-2 0 -6 1 -7 4l-80 90c-4 5 -2 8 4 8h23c2 0 6 -1 8 -4l71 -90c3 -4 1 -8 -4 -8zM76 0c-4 0 -7 3 -7 7v524c0 106 63 177 157 177s158 -71 158 -177v-524c1 -4 -2 -7 -5 -7h-19c-4 0 -7 3 -8 7v263h-251v-263c0 -4 -3 -7 -6 -7h-19zM101 300h251v231
c0 90 -47 147 -126 147c-76 0 -125 -57 -125 -147v-231z" />
    <glyph glyph-name="Amacron" unicode="&#x100;" horiz-adv-x="453" 
d="M149 820c0 4 3 6 7 6h141c4 0 6 -2 6 -6v-16c0 -3 -2 -6 -6 -6h-141c-4 0 -7 3 -7 6v16zM76 0c-4 0 -7 3 -7 7v524c0 106 63 177 157 177s158 -71 158 -177v-524c1 -4 -2 -7 -5 -7h-19c-4 0 -7 3 -8 7v263h-251v-263c0 -4 -3 -7 -6 -7h-19zM101 300h251v231
c0 90 -47 147 -126 147c-76 0 -125 -57 -125 -147v-231z" />
    <glyph glyph-name="Aogonek" unicode="&#x104;" horiz-adv-x="460" 
d="M361 -195c-53 0 -80 33 -80 72c0 40 29 83 69 123v270h-249v-263c0 -4 -3 -7 -6 -7h-19c-4 0 -7 3 -7 7v524c0 106 63 177 157 177s156 -71 156 -177v-526c0 -3 -1 -6 -4 -9c-40 -37 -67 -78 -67 -112c0 -32 23 -50 58 -50c5 0 11 1 15 1s7 -2 7 -5v-17c0 -3 -2 -5 -6 -6
c-7 -1 -17 -2 -24 -2zM101 300h249v231c0 90 -47 147 -124 147c-76 0 -125 -57 -125 -147v-231z" />
    <glyph glyph-name="Aring" unicode="&#xc5;" horiz-adv-x="453" 
d="M161 822c0 37 26 61 65 61c38 0 64 -24 64 -61c0 -38 -26 -64 -64 -64c-39 0 -65 26 -65 64zM186 821c0 -25 15 -40 40 -40c24 0 39 15 39 40c0 24 -15 39 -39 39c-25 0 -40 -15 -40 -39zM76 0c-4 0 -7 3 -7 7v524c0 106 63 177 157 177s158 -71 158 -177v-524
c1 -4 -2 -7 -5 -7h-19c-4 0 -7 3 -8 7v263h-251v-263c0 -4 -3 -7 -6 -7h-19zM101 300h251v231c0 90 -47 147 -126 147c-76 0 -125 -57 -125 -147v-231z" />
    <glyph glyph-name="Atilde" unicode="&#xc3;" horiz-adv-x="453" 
d="M184 819c-17 0 -29 -14 -30 -39c0 -4 -3 -6 -7 -6h-15c-4 0 -7 2 -7 6c3 40 27 67 58 67c42 0 54 -47 84 -47c17 0 29 14 30 39c0 4 3 7 7 7h16c3 0 6 -3 6 -7c-3 -41 -27 -66 -58 -66c-40 0 -53 46 -84 46zM76 0c-4 0 -7 3 -7 7v524c0 106 63 177 157 177
s158 -71 158 -177v-524c1 -4 -2 -7 -5 -7h-19c-4 0 -7 3 -8 7v263h-251v-263c0 -4 -3 -7 -6 -7h-19zM101 300h251v231c0 90 -47 147 -126 147c-76 0 -125 -57 -125 -147v-231z" />
    <glyph glyph-name="AE" unicode="&#xc6;" horiz-adv-x="617" 
d="M76 0c-4 0 -7 3 -7 7v525c0 106 54 176 147 176c63 0 110 -40 132 -98c23 54 73 92 141 92h75c4 0 7 -3 7 -7v-17c0 -4 -3 -6 -7 -6h-75c-79 0 -125 -54 -125 -135v-180h177c4 0 7 -2 7 -6v-17c0 -4 -3 -7 -7 -7h-177v-162c0 -81 46 -135 125 -135h78c4 0 7 -3 7 -7v-17
c0 -4 -3 -7 -7 -7h-78c-97 0 -157 70 -157 166v162h-231v-320c0 -4 -3 -7 -6 -7h-19zM101 357h231v178c0 86 -45 143 -116 143c-75 0 -115 -57 -115 -146v-175z" />
    <glyph glyph-name="B" unicode="B" horiz-adv-x="430" 
d="M285 361c61 -19 99 -73 99 -145v-59c0 -95 -63 -159 -156 -159h-143c-10 0 -16 6 -16 16v532c0 97 59 162 148 162s149 -65 149 -162v-43c0 -70 -32 -122 -81 -142zM101 546v-172h122c68 0 111 51 111 129v43c0 80 -46 132 -117 132c-70 0 -116 -52 -116 -132zM352 157
v59c0 77 -49 128 -124 128h-127v-316h127c75 0 124 51 124 129z" />
    <glyph glyph-name="C" unicode="C" horiz-adv-x="417" 
d="M218 -8c-93 0 -160 71 -160 167v382c0 95 67 167 160 167c90 0 153 -72 156 -168c0 -3 -3 -6 -7 -6h-19c-4 0 -6 2 -6 6c-3 81 -50 138 -124 138c-75 0 -128 -57 -128 -137v-382c0 -80 53 -137 128 -137c78 0 127 57 129 139c0 4 2 7 6 7h19c4 0 7 -3 7 -7
c-3 -98 -68 -169 -161 -169z" />
    <glyph glyph-name="Cacute" unicode="&#x106;" horiz-adv-x="417" 
d="M189 769c-5 0 -7 4 -4 8l71 90c2 3 6 4 8 4h23c6 0 8 -3 4 -8l-80 -90c-1 -3 -5 -4 -7 -4h-15zM218 -8c-93 0 -160 71 -160 167v382c0 95 67 167 160 167c90 0 153 -72 156 -168c0 -3 -3 -6 -7 -6h-19c-4 0 -6 2 -6 6c-3 81 -50 138 -124 138c-75 0 -128 -57 -128 -137
v-382c0 -80 53 -137 128 -137c78 0 127 57 129 139c0 4 2 7 6 7h19c4 0 7 -3 7 -7c-3 -98 -68 -169 -161 -169z" />
    <glyph glyph-name="Ccaron" unicode="&#x10c;" horiz-adv-x="417" 
d="M307 863l-74 -90c-2 -3 -5 -4 -8 -4h-28c-3 0 -6 1 -8 4l-73 90c-3 4 -2 8 3 8h15c3 0 6 -1 8 -4l69 -79l69 79c2 3 5 4 8 4h15c5 0 6 -4 4 -8zM218 -8c-93 0 -160 71 -160 167v382c0 95 67 167 160 167c90 0 153 -72 156 -168c0 -3 -3 -6 -7 -6h-19c-4 0 -6 2 -6 6
c-3 81 -50 138 -124 138c-75 0 -128 -57 -128 -137v-382c0 -80 53 -137 128 -137c78 0 127 57 129 139c0 4 2 7 6 7h19c4 0 7 -3 7 -7c-3 -98 -68 -169 -161 -169z" />
    <glyph glyph-name="Ccedilla" unicode="&#xc7;" horiz-adv-x="417" 
d="M379 161c-3 -95 -64 -165 -153 -169l-9 -48c5 1 13 2 20 2c42 -1 71 -29 71 -69c0 -45 -34 -72 -82 -72c-47 0 -79 26 -83 67c0 4 3 7 7 7h14c3 0 6 -2 6 -6c3 -26 25 -42 56 -42s54 17 54 46c0 27 -20 46 -46 46c-12 0 -26 -3 -38 -7c-2 -1 -4 0 -6 2l-1 1
c-2 2 -3 3 -2 6l13 68c-84 9 -142 76 -142 166v382c0 95 67 167 160 167c90 0 153 -72 156 -168c0 -3 -3 -6 -7 -6h-19c-4 0 -6 2 -6 6c-3 81 -50 138 -124 138c-75 0 -128 -57 -128 -137v-382c0 -80 53 -137 128 -137c78 0 127 57 129 139c0 4 2 7 6 7h19c4 0 7 -3 7 -7z
" />
    <glyph glyph-name="Cdotaccent" unicode="&#x10a;" horiz-adv-x="417" 
d="M212 781c-16 0 -27 11 -27 27s11 27 27 27s27 -11 27 -27c0 -15 -11 -27 -27 -27zM218 -8c-93 0 -160 71 -160 167v382c0 95 67 167 160 167c90 0 153 -72 156 -168c0 -3 -3 -6 -7 -6h-19c-4 0 -6 2 -6 6c-3 81 -50 138 -124 138c-75 0 -128 -57 -128 -137v-382
c0 -80 53 -137 128 -137c78 0 127 57 129 139c0 4 2 7 6 7h19c4 0 7 -3 7 -7c-3 -98 -68 -169 -161 -169z" />
    <glyph glyph-name="D" unicode="D" horiz-adv-x="444" 
d="M94 -2c-9 0 -16 6 -16 16v672c0 10 7 16 16 16h133c95 0 159 -68 159 -158v-378c0 -93 -65 -168 -159 -168h-133zM110 28h117c76 0 127 61 127 138v378c0 74 -51 128 -127 128h-117v-644z" />
    <glyph glyph-name="Eth" unicode="&#xd0;" horiz-adv-x="489" 
d="M271 702c95 0 159 -68 159 -158v-378c0 -93 -65 -168 -159 -168h-133c-9 0 -16 6 -16 16v327h-62c-4 0 -7 3 -7 7v16c0 4 3 7 7 7h62v315c0 10 7 16 16 16h133zM398 166v378c0 74 -51 128 -127 128h-117v-301h89c4 0 6 -3 6 -7v-16c0 -4 -2 -7 -6 -7h-89v-313h117
c76 0 127 61 127 138z" />
    <glyph glyph-name="Dcaron" unicode="&#x10e;" horiz-adv-x="444" 
d="M311 863l-74 -90c-2 -3 -5 -4 -8 -4h-28c-3 0 -6 1 -8 4l-73 90c-3 4 -2 8 3 8h15c3 0 6 -1 8 -4l69 -79l69 79c2 3 5 4 8 4h15c5 0 6 -4 4 -8zM94 -2c-9 0 -16 6 -16 16v672c0 10 7 16 16 16h133c95 0 159 -68 159 -158v-378c0 -93 -65 -168 -159 -168h-133zM110 28h117
c76 0 127 61 127 138v378c0 74 -51 128 -127 128h-117v-644z" />
    <glyph glyph-name="Dcroat" unicode="&#x110;" horiz-adv-x="489" 
d="M271 702c95 0 159 -68 159 -158v-378c0 -93 -65 -168 -159 -168h-133c-9 0 -16 6 -16 16v327h-62c-4 0 -7 3 -7 7v16c0 4 3 7 7 7h62v315c0 10 7 16 16 16h133zM398 166v378c0 74 -51 128 -127 128h-117v-301h89c4 0 6 -3 6 -7v-16c0 -4 -2 -7 -6 -7h-89v-313h117
c76 0 127 61 127 138z" />
    <glyph glyph-name="E" unicode="E" horiz-adv-x="359" 
d="M215 -2c-96 0 -157 72 -157 167v370c0 96 61 167 157 167h95c4 0 6 -3 6 -6v-18c0 -3 -2 -6 -6 -6h-95c-77 0 -125 -57 -125 -137v-164h199c3 0 6 -2 6 -6v-17c0 -4 -3 -7 -6 -7h-199v-176c0 -80 48 -137 125 -137h95c4 0 6 -2 6 -6v-17c0 -4 -2 -7 -6 -7h-95z" />
    <glyph glyph-name="Eacute" unicode="&#xc9;" horiz-adv-x="360" 
d="M184 769c-5 0 -7 4 -4 8l71 90c2 3 6 4 8 4h23c6 0 8 -3 4 -8l-80 -90c-1 -3 -5 -4 -7 -4h-15zM215 -2c-96 0 -157 72 -157 167v370c0 96 61 167 157 167h95c4 0 6 -3 6 -6v-18c0 -3 -2 -6 -6 -6h-95c-77 0 -125 -57 -125 -137v-164h199c3 0 6 -2 6 -6v-17
c0 -4 -3 -7 -6 -7h-199v-176c0 -80 48 -137 125 -137h95c4 0 6 -2 6 -6v-17c0 -4 -2 -7 -6 -7h-95z" />
    <glyph glyph-name="Ecaron" unicode="&#x11a;" horiz-adv-x="359" 
d="M304 863l-74 -90c-2 -3 -5 -4 -8 -4h-28c-3 0 -6 1 -8 4l-73 90c-3 4 -2 8 3 8h15c3 0 6 -1 8 -4l69 -79l69 79c2 3 5 4 8 4h15c5 0 6 -4 4 -8zM215 -2c-96 0 -157 72 -157 167v370c0 96 61 167 157 167h95c4 0 6 -3 6 -6v-18c0 -3 -2 -6 -6 -6h-95
c-77 0 -125 -57 -125 -137v-164h199c3 0 6 -2 6 -6v-17c0 -4 -3 -7 -6 -7h-199v-176c0 -80 48 -137 125 -137h95c4 0 6 -2 6 -6v-17c0 -4 -2 -7 -6 -7h-95z" />
    <glyph glyph-name="Ecircumflex" unicode="&#xca;" horiz-adv-x="359" 
d="M305 777c2 -4 1 -8 -4 -8h-15c-3 0 -6 1 -8 4l-69 79l-69 -79c-2 -3 -5 -4 -8 -4h-15c-5 0 -6 4 -3 8l73 90c2 3 5 4 8 4h28c3 0 6 -1 8 -4zM215 -2c-96 0 -157 72 -157 167v370c0 96 61 167 157 167h95c4 0 6 -3 6 -6v-18c0 -3 -2 -6 -6 -6h-95
c-77 0 -125 -57 -125 -137v-164h199c3 0 6 -2 6 -6v-17c0 -4 -3 -7 -6 -7h-199v-176c0 -80 48 -137 125 -137h95c4 0 6 -2 6 -6v-17c0 -4 -2 -7 -6 -7h-95z" />
    <glyph glyph-name="Edieresis" unicode="&#xcb;" horiz-adv-x="359" 
d="M161 797c-16 0 -27 11 -27 26c0 16 11 27 27 27c15 0 26 -11 26 -27c0 -15 -11 -26 -26 -26zM258 797c-16 0 -27 11 -27 26c0 16 11 27 27 27c15 0 26 -11 26 -27c0 -15 -11 -26 -26 -26zM215 -2c-96 0 -157 72 -157 167v370c0 96 61 167 157 167h95c4 0 6 -3 6 -6v-18
c0 -3 -2 -6 -6 -6h-95c-77 0 -125 -57 -125 -137v-164h199c3 0 6 -2 6 -6v-17c0 -4 -3 -7 -6 -7h-199v-176c0 -80 48 -137 125 -137h95c4 0 6 -2 6 -6v-17c0 -4 -2 -7 -6 -7h-95z" />
    <glyph glyph-name="Edotaccent" unicode="&#x116;" horiz-adv-x="359" 
d="M209 781c-16 0 -27 11 -27 27s11 27 27 27s27 -11 27 -27c0 -15 -11 -27 -27 -27zM215 -2c-96 0 -157 72 -157 167v370c0 96 61 167 157 167h95c4 0 6 -3 6 -6v-18c0 -3 -2 -6 -6 -6h-95c-77 0 -125 -57 -125 -137v-164h199c3 0 6 -2 6 -6v-17c0 -4 -3 -7 -6 -7h-199
v-176c0 -80 48 -137 125 -137h95c4 0 6 -2 6 -6v-17c0 -4 -2 -7 -6 -7h-95z" />
    <glyph glyph-name="Egrave" unicode="&#xc8;" horiz-adv-x="360" 
d="M235 769h-15c-2 0 -6 1 -7 4l-80 90c-4 5 -2 8 4 8h23c2 0 6 -1 8 -4l71 -90c3 -4 1 -8 -4 -8zM215 -2c-96 0 -157 72 -157 167v370c0 96 61 167 157 167h95c4 0 6 -3 6 -6v-18c0 -3 -2 -6 -6 -6h-95c-77 0 -125 -57 -125 -137v-164h199c3 0 6 -2 6 -6v-17
c0 -4 -3 -7 -6 -7h-199v-176c0 -80 48 -137 125 -137h95c4 0 6 -2 6 -6v-17c0 -4 -2 -7 -6 -7h-95z" />
    <glyph glyph-name="Emacron" unicode="&#x112;" horiz-adv-x="359" 
d="M132 820c0 4 3 6 7 6h141c4 0 6 -2 6 -6v-16c0 -3 -2 -6 -6 -6h-141c-4 0 -7 3 -7 6v16zM215 -2c-96 0 -157 72 -157 167v370c0 96 61 167 157 167h95c4 0 6 -3 6 -6v-18c0 -3 -2 -6 -6 -6h-95c-77 0 -125 -57 -125 -137v-164h199c3 0 6 -2 6 -6v-17c0 -4 -3 -7 -6 -7
h-199v-176c0 -80 48 -137 125 -137h95c4 0 6 -2 6 -6v-17c0 -4 -2 -7 -6 -7h-95z" />
    <glyph glyph-name="Eogonek" unicode="&#x118;" horiz-adv-x="358" 
d="M215 672c-77 0 -125 -57 -125 -137v-164h199c3 0 6 -2 6 -6v-17c0 -4 -3 -7 -6 -7h-199v-176c0 -80 48 -137 125 -137h95c4 0 6 -2 6 -6v-17c0 -4 -2 -7 -6 -7h-21c-45 -39 -68 -81 -68 -114c0 -32 23 -50 58 -50c5 0 10 1 16 1c3 1 6 -2 6 -5v-17c0 -3 -2 -5 -5 -6
c-8 -1 -18 -2 -25 -2c-53 0 -80 33 -80 72s28 82 67 121h-43c-96 0 -157 72 -157 167v370c0 96 61 167 157 167h95c4 0 6 -3 6 -6v-18c0 -3 -2 -6 -6 -6h-95z" />
    <glyph glyph-name="F" unicode="F" horiz-adv-x="346" 
d="M76 0c-4 0 -7 3 -7 7v533c0 89 61 160 160 160h80c3 0 6 -3 6 -6v-18c0 -3 -3 -6 -6 -6h-80c-80 0 -128 -57 -128 -130v-177h188c3 0 6 -2 6 -6v-17c0 -4 -3 -7 -6 -7h-188v-326c0 -4 -3 -7 -6 -7h-19z" />
    <glyph glyph-name="G" unicode="G" horiz-adv-x="434" 
d="M222 -8c-92 0 -164 72 -164 170v362c0 113 70 184 162 184c90 0 157 -70 159 -163c0 -4 -2 -7 -6 -7h-19c-4 0 -6 3 -6 7c-3 78 -57 133 -128 133c-73 0 -130 -57 -130 -154v-362c0 -83 58 -140 132 -140s132 57 132 137v174h-121c-4 0 -7 3 -7 7v17c0 4 3 6 7 6h137
c9 0 15 -6 15 -16v-188c0 -95 -72 -167 -163 -167z" />
    <glyph glyph-name="Gbreve" unicode="&#x11e;" horiz-adv-x="434" 
d="M209 769c-60 0 -101 38 -104 95c0 4 3 6 7 6h16c4 0 6 -2 7 -6c2 -43 29 -68 74 -68s72 25 75 68c0 4 3 6 7 6h16c4 0 6 -2 6 -6c-3 -57 -43 -95 -104 -95zM222 -8c-92 0 -164 72 -164 170v362c0 113 70 184 162 184c90 0 157 -70 159 -163c0 -4 -2 -7 -6 -7h-19
c-4 0 -6 3 -6 7c-3 78 -57 133 -128 133c-73 0 -130 -57 -130 -154v-362c0 -83 58 -140 132 -140s132 57 132 137v174h-121c-4 0 -7 3 -7 7v17c0 4 3 6 7 6h137c9 0 15 -6 15 -16v-188c0 -95 -72 -167 -163 -167z" />
    <glyph glyph-name="Gcommaaccent" unicode="&#x122;" horiz-adv-x="434" 
d="M222 -8c-92 0 -164 72 -164 170v362c0 113 70 184 162 184c90 0 157 -70 159 -163c0 -4 -2 -7 -6 -7h-19c-4 0 -6 3 -6 7c-3 78 -57 133 -128 133c-73 0 -130 -57 -130 -154v-362c0 -83 58 -140 132 -140s132 57 132 137v174h-121c-4 0 -7 3 -7 7v17c0 4 3 6 7 6h137
c9 0 15 -6 15 -16v-188c0 -95 -72 -167 -163 -167zM198 -71c0 5 3 7 7 7h26c5 0 7 -2 6 -7l-23 -140c0 -4 -4 -6 -8 -6h-10c-4 0 -6 2 -6 6z" />
    <glyph glyph-name="Gdotaccent" unicode="&#x120;" horiz-adv-x="434" 
d="M209 781c-16 0 -27 11 -27 27s11 27 27 27s27 -11 27 -27c0 -15 -11 -27 -27 -27zM222 -8c-92 0 -164 72 -164 170v362c0 113 70 184 162 184c90 0 157 -70 159 -163c0 -4 -2 -7 -6 -7h-19c-4 0 -6 3 -6 7c-3 78 -57 133 -128 133c-73 0 -130 -57 -130 -154v-362
c0 -83 58 -140 132 -140s132 57 132 137v174h-121c-4 0 -7 3 -7 7v17c0 4 3 6 7 6h137c9 0 15 -6 15 -16v-188c0 -95 -72 -167 -163 -167z" />
    <glyph glyph-name="H" unicode="H" horiz-adv-x="459" 
d="M348 694c0 3 3 6 7 6h19c4 0 6 -3 6 -6v-687c0 -4 -2 -7 -6 -7h-19c-4 0 -7 3 -7 7v334h-238v-334c0 -4 -2 -7 -6 -7h-19c-4 0 -7 3 -7 7v687c0 3 3 6 7 6h19c4 0 6 -3 6 -6v-323h238v323z" />
    <glyph glyph-name="Hbar" unicode="&#x126;" horiz-adv-x="523" 
d="M463 557c4 0 6 -3 6 -6v-14c0 -4 -2 -7 -6 -7h-51v-523c0 -4 -3 -7 -7 -7h-19c-3 0 -6 3 -6 7v334h-237v-334c0 -4 -3 -7 -7 -7h-19c-4 0 -6 3 -6 7v523h-51c-4 0 -7 3 -7 7v14c0 3 3 6 7 6h51v137c0 3 2 6 6 6h19c4 0 7 -3 7 -6v-137h237v137c0 3 3 6 6 6h19
c4 0 7 -3 7 -6v-137h51zM380 371v159h-237v-159h237z" />
    <glyph glyph-name="I" unicode="I" horiz-adv-x="189" 
d="M78 694c0 3 3 6 7 6h19c4 0 6 -3 6 -6v-687c0 -4 -2 -7 -6 -7h-19c-4 0 -7 3 -7 7v687z" />
    <glyph glyph-name="Iacute" unicode="&#xcd;" horiz-adv-x="196" 
d="M75 769c-5 0 -7 4 -4 8l71 90c2 3 6 4 8 4h23c6 0 8 -3 4 -8l-80 -90c-1 -3 -5 -4 -7 -4h-15zM82 694c0 3 3 6 7 6h19c4 0 6 -3 6 -6v-687c0 -4 -2 -7 -6 -7h-19c-4 0 -7 3 -7 7v687z" />
    <glyph glyph-name="Icircumflex" unicode="&#xce;" horiz-adv-x="207" 
d="M199 777c2 -4 1 -8 -4 -8h-15c-3 0 -6 1 -8 4l-69 79l-69 -79c-2 -3 -5 -4 -8 -4h-15c-5 0 -6 4 -3 8l73 90c2 3 5 4 8 4h28c3 0 6 -1 8 -4zM87 694c0 3 3 6 7 6h19c4 0 6 -3 6 -6v-687c0 -4 -2 -7 -6 -7h-19c-4 0 -7 3 -7 7v687z" />
    <glyph glyph-name="Idieresis" unicode="&#xcf;" horiz-adv-x="189" 
d="M46 797c-16 0 -27 11 -27 26c0 16 11 27 27 27c15 0 26 -11 26 -27c0 -15 -11 -26 -26 -26zM143 797c-16 0 -27 11 -27 26c0 16 11 27 27 27c15 0 26 -11 26 -27c0 -15 -11 -26 -26 -26zM78 694c0 3 3 6 7 6h19c4 0 6 -3 6 -6v-687c0 -4 -2 -7 -6 -7h-19c-4 0 -7 3 -7 7
v687z" />
    <glyph glyph-name="Idotaccent" unicode="&#x130;" horiz-adv-x="189" 
d="M94 781c-16 0 -27 11 -27 27s11 27 27 27s27 -11 27 -27c0 -15 -11 -27 -27 -27zM78 694c0 3 3 6 7 6h19c4 0 6 -3 6 -6v-687c0 -4 -2 -7 -6 -7h-19c-4 0 -7 3 -7 7v687z" />
    <glyph glyph-name="Igrave" unicode="&#xcc;" horiz-adv-x="189" 
d="M126 769h-15c-2 0 -6 1 -7 4l-80 90c-4 5 -2 8 4 8h23c2 0 6 -1 8 -4l71 -90c3 -4 1 -8 -4 -8zM78 694c0 3 3 6 7 6h19c4 0 6 -3 6 -6v-687c0 -4 -2 -7 -6 -7h-19c-4 0 -7 3 -7 7v687z" />
    <glyph glyph-name="Imacron" unicode="&#x12a;" horiz-adv-x="189" 
d="M17 820c0 4 3 6 7 6h141c4 0 6 -2 6 -6v-16c0 -3 -2 -6 -6 -6h-141c-4 0 -7 3 -7 6v16zM78 694c0 3 3 6 7 6h19c4 0 6 -3 6 -6v-687c0 -4 -2 -7 -6 -7h-19c-4 0 -7 3 -7 7v687z" />
    <glyph glyph-name="Iogonek" unicode="&#x12e;" horiz-adv-x="182" 
d="M128 -165c4 1 7 -2 7 -5v-17c0 -3 -2 -5 -6 -6c-8 -1 -17 -2 -24 -2c-56 0 -84 34 -84 73c0 40 25 84 58 122c-2 0 -4 3 -4 6v688c0 3 3 6 6 6h19c4 0 7 -3 7 -6v-688c0 -3 -2 -6 -5 -6c-33 -40 -52 -81 -52 -115c0 -33 25 -51 63 -51c5 0 10 1 15 1z" />
    <glyph glyph-name="J" unicode="J" horiz-adv-x="407" 
d="M183 -8c-95 0 -155 71 -157 169c0 4 2 7 6 7h19c4 0 7 -3 7 -7c2 -82 48 -139 125 -139c84 0 123 57 123 155v517c0 3 2 6 6 6h19c4 0 7 -3 7 -6v-517c0 -113 -50 -185 -155 -185z" />
    <glyph glyph-name="K" unicode="K" horiz-adv-x="453" 
d="M85 0c-4 0 -7 3 -7 7v687c0 3 3 6 7 6h19c4 0 6 -3 6 -6v-320h118l135 321c1 3 4 5 7 5h20c4 0 6 -3 5 -7l-136 -323c74 -14 126 -82 126 -165v-198c0 -4 -2 -7 -6 -7h-19c-4 0 -7 3 -7 7v198c0 78 -55 139 -125 139h-118v-337c0 -4 -2 -7 -6 -7h-19z" />
    <glyph glyph-name="Kcommaaccent" unicode="&#x136;" horiz-adv-x="453" 
d="M85 0c-4 0 -7 3 -7 7v687c0 3 3 6 7 6h19c4 0 6 -3 6 -6v-320h118l135 321c1 3 4 5 7 5h20c4 0 6 -3 5 -7l-136 -323c74 -14 126 -82 126 -165v-198c0 -4 -2 -7 -6 -7h-19c-4 0 -7 3 -7 7v198c0 78 -55 139 -125 139h-118v-337c0 -4 -2 -7 -6 -7h-19zM223 -71
c0 5 3 7 7 7h26c5 0 7 -2 6 -7l-23 -140c0 -4 -4 -6 -8 -6h-10c-4 0 -6 2 -6 6z" />
    <glyph glyph-name="L" unicode="L" horiz-adv-x="337" 
d="M225 30h80c4 0 7 -3 7 -7v-17c0 -4 -3 -7 -7 -7h-80c-91 0 -156 75 -156 167v528c0 3 3 6 7 6h19c3 0 6 -3 6 -6v-528c0 -75 51 -136 124 -136z" />
    <glyph glyph-name="Lacute" unicode="&#x139;" horiz-adv-x="337" 
d="M64 769c-5 0 -7 4 -4 8l71 90c2 3 6 4 8 4h23c6 0 8 -3 4 -8l-80 -90c-1 -3 -5 -4 -7 -4h-15zM225 30h80c4 0 7 -3 7 -7v-17c0 -4 -3 -7 -7 -7h-80c-91 0 -156 75 -156 167v528c0 3 3 6 7 6h19c3 0 6 -3 6 -6v-528c0 -75 51 -136 124 -136z" />
    <glyph glyph-name="Lcaron" unicode="&#x13d;" horiz-adv-x="330" 
d="M205 567c-4 0 -6 2 -6 6l9 121c0 5 3 7 6 7h26c4 0 6 -2 6 -7l-22 -121c0 -4 -4 -6 -7 -6h-12zM223 0c-91 0 -156 74 -156 167v527c0 3 2 6 6 6h19c4 0 7 -3 7 -6v-527c0 -76 50 -137 124 -137h80c4 0 6 -2 6 -6v-17c0 -4 -2 -7 -6 -7h-80z" />
    <glyph glyph-name="Lcommaaccent" unicode="&#x13b;" horiz-adv-x="337" 
d="M225 30h80c4 0 7 -3 7 -7v-17c0 -4 -3 -7 -7 -7h-80c-91 0 -156 75 -156 167v528c0 3 3 6 7 6h19c3 0 6 -3 6 -6v-528c0 -75 51 -136 124 -136zM159 -71c0 5 3 7 7 7h26c5 0 7 -2 6 -7l-23 -140c0 -4 -4 -6 -8 -6h-10c-4 0 -6 2 -6 6z" />
    <glyph glyph-name="Lslash" unicode="&#x141;" horiz-adv-x="400" 
d="M377 30c4 0 7 -3 7 -7v-17c0 -4 -3 -7 -7 -7h-80c-91 0 -156 75 -156 167v174l-89 -34c-4 -2 -8 1 -8 5v19c0 3 2 6 5 7l92 35v322c0 3 3 6 7 6h19c3 0 6 -3 6 -6v-309l128 49c4 1 8 -1 8 -5v-19c0 -3 -2 -7 -5 -8l-131 -50v-186c0 -75 51 -136 124 -136h80z" />
    <glyph glyph-name="M" unicode="M" horiz-adv-x="684" 
d="M470 708c90 0 145 -71 145 -170v-531c0 -4 -3 -7 -6 -7h-19c-4 0 -7 3 -7 7v531c0 83 -41 140 -113 140c-66 0 -112 -59 -112 -140v-531c0 -4 -3 -7 -6 -7h-19c-4 0 -7 3 -7 7v531c0 81 -46 140 -112 140c-72 0 -113 -57 -113 -140v-531c0 -4 -3 -7 -6 -7h-19
c-4 0 -7 3 -7 7v531c0 99 54 170 145 170c62 0 106 -41 128 -96c23 55 66 96 128 96z" />
    <glyph glyph-name="N" unicode="N" horiz-adv-x="453" 
d="M76 0c-4 0 -7 3 -7 7v524c0 106 63 177 157 177s158 -71 158 -177v-524c0 -4 -3 -7 -7 -7h-19c-4 0 -6 3 -6 7v524c0 91 -50 147 -126 147c-75 0 -125 -56 -125 -147v-524c0 -4 -3 -7 -6 -7h-19z" />
    <glyph glyph-name="Nacute" unicode="&#x143;" horiz-adv-x="453" 
d="M204 769c-5 0 -7 4 -4 8l71 90c2 3 6 4 8 4h23c6 0 8 -3 4 -8l-80 -90c-1 -3 -5 -4 -7 -4h-15zM76 0c-4 0 -7 3 -7 7v524c0 106 63 177 157 177s158 -71 158 -177v-524c0 -4 -3 -7 -7 -7h-19c-4 0 -6 3 -6 7v524c0 91 -50 147 -126 147c-75 0 -125 -56 -125 -147v-524
c0 -4 -3 -7 -6 -7h-19z" />
    <glyph glyph-name="Ncaron" unicode="&#x147;" horiz-adv-x="453" 
d="M322 863l-74 -90c-2 -3 -5 -4 -8 -4h-28c-3 0 -6 1 -8 4l-73 90c-3 4 -2 8 3 8h15c3 0 6 -1 8 -4l69 -79l69 79c2 3 5 4 8 4h15c5 0 6 -4 4 -8zM76 0c-4 0 -7 3 -7 7v524c0 106 63 177 157 177s158 -71 158 -177v-524c0 -4 -3 -7 -7 -7h-19c-4 0 -6 3 -6 7v524
c0 91 -50 147 -126 147c-75 0 -125 -56 -125 -147v-524c0 -4 -3 -7 -6 -7h-19z" />
    <glyph glyph-name="Ncommaaccent" unicode="&#x145;" horiz-adv-x="453" 
d="M76 0c-4 0 -7 3 -7 7v524c0 106 63 177 157 177s158 -71 158 -177v-524c0 -4 -3 -7 -7 -7h-19c-4 0 -6 3 -6 7v524c0 91 -50 147 -126 147c-75 0 -125 -56 -125 -147v-524c0 -4 -3 -7 -6 -7h-19zM216 -71c0 5 3 7 7 7h26c5 0 7 -2 6 -7l-23 -140c0 -4 -4 -6 -8 -6h-10
c-4 0 -6 2 -6 6z" />
    <glyph glyph-name="Eng" unicode="&#x14a;" horiz-adv-x="453" 
d="M237 -204c-4 0 -6 3 -6 7v17c0 4 2 7 6 7c80 2 115 55 115 133v571c0 91 -50 147 -126 147c-75 0 -125 -56 -125 -147v-524c0 -4 -3 -7 -6 -7h-19c-4 0 -7 3 -7 7v524c0 106 63 177 157 177s158 -71 158 -177v-571c0 -95 -48 -161 -147 -164z" />
    <glyph glyph-name="Ntilde" unicode="&#xd1;" horiz-adv-x="453" 
d="M185 819c-17 0 -29 -14 -30 -39c0 -4 -3 -6 -7 -6h-15c-4 0 -7 2 -7 6c3 40 27 67 58 67c42 0 54 -47 84 -47c17 0 29 14 30 39c0 4 3 7 7 7h16c3 0 6 -3 6 -7c-3 -41 -27 -66 -58 -66c-40 0 -53 46 -84 46zM76 0c-4 0 -7 3 -7 7v524c0 106 63 177 157 177
s158 -71 158 -177v-524c0 -4 -3 -7 -7 -7h-19c-4 0 -6 3 -6 7v524c0 91 -50 147 -126 147c-75 0 -125 -56 -125 -147v-524c0 -4 -3 -7 -6 -7h-19z" />
    <glyph glyph-name="O" unicode="O" horiz-adv-x="444" 
d="M222 -8c-99 0 -164 71 -164 185v346c0 115 65 185 164 185c98 0 163 -70 163 -182v-352c0 -111 -65 -182 -163 -182zM222 23c80 0 132 57 132 151v352c0 95 -52 152 -132 152s-132 -57 -132 -155v-346c0 -97 52 -154 132 -154z" />
    <glyph glyph-name="Oacute" unicode="&#xd3;" horiz-adv-x="444" 
d="M199 769c-5 0 -7 4 -4 8l71 90c2 3 6 4 8 4h23c6 0 8 -3 4 -8l-80 -90c-1 -3 -5 -4 -7 -4h-15zM222 -8c-99 0 -164 71 -164 185v346c0 115 65 185 164 185c98 0 163 -70 163 -182v-352c0 -111 -65 -182 -163 -182zM222 23c80 0 132 57 132 151v352c0 95 -52 152 -132 152
s-132 -57 -132 -155v-346c0 -97 52 -154 132 -154z" />
    <glyph glyph-name="Ocircumflex" unicode="&#xd4;" horiz-adv-x="444" 
d="M318 777c2 -4 1 -8 -4 -8h-15c-3 0 -6 1 -8 4l-69 79l-69 -79c-2 -3 -5 -4 -8 -4h-15c-5 0 -6 4 -3 8l73 90c2 3 5 4 8 4h28c3 0 6 -1 8 -4zM222 -8c-99 0 -164 71 -164 185v346c0 115 65 185 164 185c98 0 163 -70 163 -182v-352c0 -111 -65 -182 -163 -182zM222 23
c80 0 132 57 132 151v352c0 95 -52 152 -132 152s-132 -57 -132 -155v-346c0 -97 52 -154 132 -154z" />
    <glyph glyph-name="Odieresis" unicode="&#xd6;" horiz-adv-x="444" 
d="M174 797c-16 0 -27 11 -27 26c0 16 11 27 27 27c15 0 26 -11 26 -27c0 -15 -11 -26 -26 -26zM271 797c-16 0 -27 11 -27 26c0 16 11 27 27 27c15 0 26 -11 26 -27c0 -15 -11 -26 -26 -26zM222 -8c-99 0 -164 71 -164 185v346c0 115 65 185 164 185c98 0 163 -70 163 -182
v-352c0 -111 -65 -182 -163 -182zM222 23c80 0 132 57 132 151v352c0 95 -52 152 -132 152s-132 -57 -132 -155v-346c0 -97 52 -154 132 -154z" />
    <glyph glyph-name="Ograve" unicode="&#xd2;" horiz-adv-x="444" 
d="M254 769h-15c-2 0 -6 1 -7 4l-80 90c-4 5 -2 8 4 8h23c2 0 6 -1 8 -4l71 -90c3 -4 1 -8 -4 -8zM222 -8c-99 0 -164 71 -164 185v346c0 115 65 185 164 185c98 0 163 -70 163 -182v-352c0 -111 -65 -182 -163 -182zM222 23c80 0 132 57 132 151v352c0 95 -52 152 -132 152
s-132 -57 -132 -155v-346c0 -97 52 -154 132 -154z" />
    <glyph glyph-name="Ohungarumlaut" unicode="&#x150;" horiz-adv-x="444" 
d="M128 769c-5 0 -7 4 -4 8l71 90c2 3 6 4 9 4h22c6 0 8 -3 4 -8l-80 -90c-1 -3 -4 -4 -7 -4h-15zM228 769c-5 0 -7 4 -4 8l71 90c2 3 6 4 9 4h22c6 0 8 -3 4 -8l-80 -90c-1 -3 -4 -4 -7 -4h-15zM222 -8c-99 0 -164 71 -164 185v346c0 115 65 185 164 185
c98 0 163 -70 163 -182v-352c0 -111 -65 -182 -163 -182zM222 23c80 0 132 57 132 151v352c0 95 -52 152 -132 152s-132 -57 -132 -155v-346c0 -97 52 -154 132 -154z" />
    <glyph glyph-name="Omacron" unicode="&#x14c;" horiz-adv-x="444" 
d="M145 820c0 4 3 6 7 6h141c4 0 6 -2 6 -6v-16c0 -3 -2 -6 -6 -6h-141c-4 0 -7 3 -7 6v16zM222 -8c-99 0 -164 71 -164 185v346c0 115 65 185 164 185c98 0 163 -70 163 -182v-352c0 -111 -65 -182 -163 -182zM222 23c80 0 132 57 132 151v352c0 95 -52 152 -132 152
s-132 -57 -132 -155v-346c0 -97 52 -154 132 -154z" />
    <glyph glyph-name="Oslash" unicode="&#xd8;" horiz-adv-x="444" 
d="M88 -45c-4 0 -6 3 -5 7l22 78c-30 32 -47 78 -47 137v346c0 115 65 185 164 185c25 0 48 -5 69 -13l13 45c1 3 2 5 6 5h17c4 0 7 -3 6 -7l-17 -58c44 -30 70 -83 70 -154v-352c0 -111 -65 -182 -164 -182c-36 0 -68 10 -93 28l-17 -60c-1 -3 -3 -5 -7 -5h-17zM116 79
l166 586c-17 8 -37 13 -60 13c-80 0 -132 -57 -132 -155v-346c0 -40 9 -73 26 -98zM222 23c80 0 132 57 132 151v352c0 54 -17 95 -48 118l-167 -592c21 -20 49 -29 83 -29z" />
    <glyph glyph-name="Otilde" unicode="&#xd5;" horiz-adv-x="444" 
d="M180 819c-17 0 -29 -14 -30 -39c0 -4 -3 -6 -7 -6h-15c-4 0 -7 2 -7 6c3 40 27 67 58 67c42 0 54 -47 84 -47c17 0 29 14 30 39c0 4 3 7 7 7h16c3 0 6 -3 6 -7c-3 -41 -27 -66 -58 -66c-40 0 -53 46 -84 46zM222 -8c-99 0 -164 71 -164 185v346c0 115 65 185 164 185
c98 0 163 -70 163 -182v-352c0 -111 -65 -182 -163 -182zM222 23c80 0 132 57 132 151v352c0 95 -52 152 -132 152s-132 -57 -132 -155v-346c0 -97 52 -154 132 -154z" />
    <glyph glyph-name="OE" unicode="&#x152;" horiz-adv-x="614" 
d="M207 -7c-88 0 -149 68 -149 167v380c0 99 61 167 149 167c66 0 115 -38 135 -99c23 56 72 93 139 93h83c4 0 7 -3 7 -7v-16c0 -4 -3 -7 -7 -7h-83c-76 0 -124 -58 -124 -139v-161h182c4 0 7 -2 7 -6v-17c0 -4 -3 -7 -7 -7h-182v-173c0 -81 48 -139 124 -139h83
c4 0 7 -2 7 -6v-17c0 -4 -3 -7 -7 -7h-83c-67 0 -116 37 -139 93c-20 -61 -69 -99 -135 -99zM207 23c71 0 118 57 118 140v374c0 83 -47 140 -118 140c-70 0 -117 -55 -117 -137v-380c0 -82 47 -137 117 -137z" />
    <glyph glyph-name="P" unicode="P" horiz-adv-x="413" 
d="M76 0c-4 0 -7 3 -7 7v531c0 98 57 170 150 170c94 0 153 -72 153 -170v-100c0 -95 -66 -164 -151 -164h-120v-267c0 -4 -3 -7 -6 -7h-19zM101 304h120c67 0 119 55 119 134v100c0 83 -45 140 -121 140c-73 0 -118 -57 -118 -140v-234z" />
    <glyph glyph-name="Thorn" unicode="&#xde;" horiz-adv-x="418" 
d="M85 0c-4 0 -7 3 -7 7v688c0 4 3 6 7 6h19c4 0 6 -2 6 -6v-138h118c82 0 149 -70 149 -162v-89c0 -92 -67 -162 -149 -162h-118v-137c0 -4 -2 -7 -6 -7h-19zM110 174h118c64 0 117 55 117 131v92c0 76 -53 130 -117 130h-118v-353z" />
    <glyph glyph-name="Q" unicode="Q" horiz-adv-x="447" 
d="M387 3c3 -3 2 -7 0 -10l-11 -11c-3 -3 -8 -3 -10 0l-43 43c-26 -21 -61 -33 -101 -33c-99 0 -164 71 -164 182v352c0 112 65 182 164 182s164 -70 164 -182v-352c0 -53 -15 -97 -41 -128zM222 23c31 0 58 9 79 25l-60 60c-4 4 -3 8 0 10l11 11c3 4 7 3 10 0l60 -61
c21 26 32 62 32 106v352c0 95 -52 152 -132 152s-132 -57 -132 -152v-352c0 -94 52 -151 132 -151z" />
    <glyph glyph-name="R" unicode="R" horiz-adv-x="435" 
d="M76 0c-4 0 -7 3 -7 7v531c0 98 64 170 156 170c90 0 155 -72 155 -170v-71c0 -90 -57 -155 -124 -165l135 -294c2 -4 -1 -8 -5 -8h-21c-3 0 -6 2 -7 5l-133 293h-124v-291c0 -4 -3 -7 -6 -7h-19zM101 328h123c74 0 124 57 124 139v71c0 83 -50 140 -123 140
s-124 -57 -124 -140v-210z" />
    <glyph glyph-name="Racute" unicode="&#x154;" horiz-adv-x="435" 
d="M195 769c-5 0 -7 4 -4 8l71 90c2 3 6 4 8 4h23c6 0 8 -3 4 -8l-80 -90c-1 -3 -5 -4 -7 -4h-15zM76 0c-4 0 -7 3 -7 7v531c0 98 64 170 156 170c90 0 155 -72 155 -170v-71c0 -90 -57 -155 -124 -165l135 -294c2 -4 -1 -8 -5 -8h-21c-3 0 -6 2 -7 5l-133 293h-124v-291
c0 -4 -3 -7 -6 -7h-19zM101 328h123c74 0 124 57 124 139v71c0 83 -50 140 -123 140s-124 -57 -124 -140v-210z" />
    <glyph glyph-name="Rcaron" unicode="&#x158;" horiz-adv-x="435" 
d="M313 863l-74 -90c-2 -3 -5 -4 -8 -4h-28c-3 0 -6 1 -8 4l-73 90c-3 4 -2 8 3 8h15c3 0 6 -1 8 -4l69 -79l69 79c2 3 5 4 8 4h15c5 0 6 -4 4 -8zM76 0c-4 0 -7 3 -7 7v531c0 98 64 170 156 170c90 0 155 -72 155 -170v-71c0 -90 -57 -155 -124 -165l135 -294
c2 -4 -1 -8 -5 -8h-21c-3 0 -6 2 -7 5l-133 293h-124v-291c0 -4 -3 -7 -6 -7h-19zM101 328h123c74 0 124 57 124 139v71c0 83 -50 140 -123 140s-124 -57 -124 -140v-210z" />
    <glyph glyph-name="Rcommaaccent" unicode="&#x156;" horiz-adv-x="435" 
d="M76 0c-4 0 -7 3 -7 7v531c0 98 64 170 156 170c90 0 155 -72 155 -170v-71c0 -90 -57 -155 -124 -165l135 -294c2 -4 -1 -8 -5 -8h-21c-3 0 -6 2 -7 5l-133 293h-124v-291c0 -4 -3 -7 -6 -7h-19zM101 328h123c74 0 124 57 124 139v71c0 83 -50 140 -123 140
s-124 -57 -124 -140v-210zM207 -71c0 5 3 7 7 7h26c5 0 7 -2 6 -7l-23 -140c0 -4 -4 -6 -8 -6h-10c-4 0 -6 2 -6 6z" />
    <glyph glyph-name="S" unicode="S" horiz-adv-x="408" 
d="M205 -8c-96 0 -159 71 -160 169c0 4 3 7 7 7h19c4 0 6 -3 6 -7c2 -83 49 -139 128 -139c80 0 126 53 126 128c0 187 -281 208 -281 402c0 94 64 156 154 156c86 0 151 -66 153 -168c0 -3 -3 -6 -7 -6h-19c-4 0 -6 3 -6 6c-3 89 -51 138 -121 138
c-72 0 -122 -47 -122 -126c0 -173 281 -197 281 -402c0 -90 -62 -158 -158 -158z" />
    <glyph glyph-name="Sacute" unicode="&#x15a;" horiz-adv-x="408" 
d="M189 769c-5 0 -7 4 -4 8l71 90c2 3 6 4 8 4h23c6 0 8 -3 4 -8l-80 -90c-1 -3 -5 -4 -7 -4h-15zM205 -8c-96 0 -159 71 -160 169c0 4 3 7 7 7h19c4 0 6 -3 6 -7c2 -83 49 -139 128 -139c80 0 126 53 126 128c0 187 -281 208 -281 402c0 94 64 156 154 156
c86 0 151 -66 153 -168c0 -3 -3 -6 -7 -6h-19c-4 0 -6 3 -6 6c-3 89 -51 138 -121 138c-72 0 -122 -47 -122 -126c0 -173 281 -197 281 -402c0 -90 -62 -158 -158 -158z" />
    <glyph glyph-name="Scaron" unicode="&#x160;" horiz-adv-x="408" 
d="M307 863l-74 -90c-2 -3 -5 -4 -8 -4h-28c-3 0 -6 1 -8 4l-73 90c-3 4 -2 8 3 8h15c3 0 6 -1 8 -4l69 -79l69 79c2 3 5 4 8 4h15c5 0 6 -4 4 -8zM205 -8c-96 0 -159 71 -160 169c0 4 3 7 7 7h19c4 0 6 -3 6 -7c2 -83 49 -139 128 -139c80 0 126 53 126 128
c0 187 -281 208 -281 402c0 94 64 156 154 156c86 0 151 -66 153 -168c0 -3 -3 -6 -7 -6h-19c-4 0 -6 3 -6 6c-3 89 -51 138 -121 138c-72 0 -122 -47 -122 -126c0 -173 281 -197 281 -402c0 -90 -62 -158 -158 -158z" />
    <glyph glyph-name="Scedilla" unicode="&#x15e;" horiz-adv-x="408" 
d="M363 150c0 -84 -54 -148 -138 -157l-9 -49c5 1 13 2 20 2c42 -1 71 -29 71 -69c0 -45 -34 -72 -82 -72c-47 0 -79 26 -83 67c0 4 3 7 7 7h14c3 0 6 -2 6 -6c3 -26 25 -42 56 -42s54 17 54 46c0 27 -20 46 -46 46c-12 0 -26 -3 -38 -7c-2 -1 -4 0 -6 2l-1 1
c-2 2 -3 3 -2 6l13 67c-93 3 -153 73 -154 169c0 4 3 7 7 7h19c4 0 6 -3 6 -7c2 -83 49 -139 128 -139c80 0 126 53 126 128c0 187 -281 208 -281 402c0 94 64 156 154 156c86 0 151 -66 153 -168c0 -3 -3 -6 -7 -6h-19c-4 0 -6 3 -6 6c-3 89 -51 138 -121 138
c-72 0 -122 -47 -122 -126c0 -173 281 -197 281 -402z" />
    <glyph glyph-name="Scommaaccent" unicode="&#x218;" horiz-adv-x="408" 
d="M205 -8c-96 0 -159 71 -160 169c0 4 3 7 7 7h19c4 0 6 -3 6 -7c2 -83 49 -139 128 -139c80 0 126 53 126 128c0 187 -281 208 -281 402c0 94 64 156 154 156c86 0 151 -66 153 -168c0 -3 -3 -6 -7 -6h-19c-4 0 -6 3 -6 6c-3 89 -51 138 -121 138
c-72 0 -122 -47 -122 -126c0 -173 281 -197 281 -402c0 -90 -62 -158 -158 -158zM206 -71c0 5 3 7 7 7h26c5 0 7 -2 6 -7l-23 -140c0 -4 -4 -6 -8 -6h-10c-4 0 -6 2 -6 6z" />
    <glyph glyph-name="T" unicode="T" horiz-adv-x="357" 
d="M325 700c4 0 7 -3 7 -6v-18c0 -3 -3 -6 -7 -6h-130v-663c0 -4 -3 -7 -7 -7h-19c-4 0 -6 3 -6 7v663h-131c-4 0 -6 3 -6 6v18c0 3 2 6 6 6h293z" />
    <glyph glyph-name="Tbar" unicode="&#x166;" horiz-adv-x="357" 
d="M325 700c4 0 7 -3 7 -6v-17c0 -4 -3 -7 -7 -7h-130v-274h80c4 0 7 -3 7 -7v-15c0 -4 -3 -6 -7 -6h-80v-361c0 -4 -3 -7 -7 -7h-19c-4 0 -6 3 -6 7v361h-81c-4 0 -6 2 -6 6v15c0 4 2 7 6 7h81v274h-131c-4 0 -6 3 -6 7v17c0 3 2 6 6 6h293z" />
    <glyph glyph-name="Tcaron" unicode="&#x164;" horiz-adv-x="357" 
d="M274 863l-74 -90c-2 -3 -5 -4 -8 -4h-28c-3 0 -6 1 -8 4l-73 90c-3 4 -2 8 3 8h15c3 0 6 -1 8 -4l69 -79l69 79c2 3 5 4 8 4h15c5 0 6 -4 4 -8zM325 700c4 0 7 -3 7 -6v-18c0 -3 -3 -6 -7 -6h-130v-663c0 -4 -3 -7 -7 -7h-19c-4 0 -6 3 -6 7v663h-131c-4 0 -6 3 -6 6v18
c0 3 2 6 6 6h293z" />
    <glyph glyph-name="uni0162" unicode="&#x162;" horiz-adv-x="357" 
d="M325 700c4 0 7 -3 7 -6v-18c0 -3 -3 -6 -7 -6h-130v-663c0 -4 -3 -7 -7 -7h-19c-4 0 -6 3 -6 7v663h-131c-4 0 -6 3 -6 6v18c0 3 2 6 6 6h293zM168 -71c0 5 3 7 7 7h26c5 0 7 -2 6 -7l-23 -140c0 -4 -4 -6 -8 -6h-10c-4 0 -6 2 -6 6z" />
    <glyph glyph-name="uni021A" unicode="&#x21a;" horiz-adv-x="357" 
d="M325 700c4 0 7 -3 7 -6v-18c0 -3 -3 -6 -7 -6h-130v-663c0 -4 -3 -7 -7 -7h-19c-4 0 -6 3 -6 7v663h-131c-4 0 -6 3 -6 6v18c0 3 2 6 6 6h293zM169 -71c0 5 3 7 7 7h26c5 0 7 -2 6 -7l-23 -140c0 -4 -4 -6 -8 -6h-10c-4 0 -6 2 -6 6z" />
    <glyph glyph-name="U" unicode="U" horiz-adv-x="453" 
d="M76 700h19c3 0 6 -3 6 -7v-524c0 -91 50 -147 125 -147c76 0 126 56 126 147v524c0 4 2 7 6 7h19c4 0 7 -3 7 -7v-524c0 -106 -64 -177 -158 -177s-157 71 -157 177v524c0 4 3 7 7 7z" />
    <glyph glyph-name="Uacute" unicode="&#xda;" horiz-adv-x="453" 
d="M201 769c-5 0 -7 4 -4 8l71 90c2 3 6 4 8 4h23c6 0 8 -3 4 -8l-80 -90c-1 -3 -5 -4 -7 -4h-15zM76 700h19c3 0 6 -3 6 -7v-524c0 -91 50 -147 125 -147c76 0 126 56 126 147v524c0 4 2 7 6 7h19c4 0 7 -3 7 -7v-524c0 -106 -64 -177 -158 -177s-157 71 -157 177v524
c0 4 3 7 7 7z" />
    <glyph glyph-name="Ucircumflex" unicode="&#xdb;" horiz-adv-x="453" 
d="M320 777c2 -4 1 -8 -4 -8h-15c-3 0 -6 1 -8 4l-69 79l-69 -79c-2 -3 -5 -4 -8 -4h-15c-5 0 -6 4 -3 8l73 90c2 3 5 4 8 4h28c3 0 6 -1 8 -4zM76 700h19c3 0 6 -3 6 -7v-524c0 -91 50 -147 125 -147c76 0 126 56 126 147v524c0 4 2 7 6 7h19c4 0 7 -3 7 -7v-524
c0 -106 -64 -177 -158 -177s-157 71 -157 177v524c0 4 3 7 7 7z" />
    <glyph glyph-name="Udieresis" unicode="&#xdc;" horiz-adv-x="453" 
d="M176 797c-16 0 -27 11 -27 26c0 16 11 27 27 27c15 0 26 -11 26 -27c0 -15 -11 -26 -26 -26zM273 797c-16 0 -27 11 -27 26c0 16 11 27 27 27c15 0 26 -11 26 -27c0 -15 -11 -26 -26 -26zM76 700h19c3 0 6 -3 6 -7v-524c0 -91 50 -147 125 -147c76 0 126 56 126 147v524
c0 4 2 7 6 7h19c4 0 7 -3 7 -7v-524c0 -106 -64 -177 -158 -177s-157 71 -157 177v524c0 4 3 7 7 7z" />
    <glyph glyph-name="Ugrave" unicode="&#xd9;" horiz-adv-x="453" 
d="M256 769h-15c-2 0 -6 1 -7 4l-80 90c-4 5 -2 8 4 8h23c2 0 6 -1 8 -4l71 -90c3 -4 1 -8 -4 -8zM76 700h19c3 0 6 -3 6 -7v-524c0 -91 50 -147 125 -147c76 0 126 56 126 147v524c0 4 2 7 6 7h19c4 0 7 -3 7 -7v-524c0 -106 -64 -177 -158 -177s-157 71 -157 177v524
c0 4 3 7 7 7z" />
    <glyph glyph-name="Uhungarumlaut" unicode="&#x170;" horiz-adv-x="453" 
d="M130 769c-5 0 -7 4 -4 8l71 90c2 3 6 4 9 4h22c6 0 8 -3 4 -8l-80 -90c-1 -3 -4 -4 -7 -4h-15zM230 769c-5 0 -7 4 -4 8l71 90c2 3 6 4 9 4h22c6 0 8 -3 4 -8l-80 -90c-1 -3 -4 -4 -7 -4h-15zM76 700h19c3 0 6 -3 6 -7v-524c0 -91 50 -147 125 -147c76 0 126 56 126 147
v524c0 4 2 7 6 7h19c4 0 7 -3 7 -7v-524c0 -106 -64 -177 -158 -177s-157 71 -157 177v524c0 4 3 7 7 7z" />
    <glyph glyph-name="Umacron" unicode="&#x16a;" horiz-adv-x="453" 
d="M147 820c0 4 3 6 7 6h141c4 0 6 -2 6 -6v-16c0 -3 -2 -6 -6 -6h-141c-4 0 -7 3 -7 6v16zM76 700h19c3 0 6 -3 6 -7v-524c0 -91 50 -147 125 -147c76 0 126 56 126 147v524c0 4 2 7 6 7h19c4 0 7 -3 7 -7v-524c0 -106 -64 -177 -158 -177s-157 71 -157 177v524
c0 4 3 7 7 7z" />
    <glyph glyph-name="Uogonek" unicode="&#x172;" horiz-adv-x="445" 
d="M344 694c0 3 3 6 7 6h19c4 0 6 -3 6 -6v-535c0 -62 -29 -106 -69 -142c-54 -49 -80 -98 -80 -136c0 -34 29 -50 73 -46c4 1 7 -2 7 -5v-17c0 -4 -3 -6 -6 -7c-63 -9 -106 23 -106 70c0 38 27 81 64 120c-12 -2 -24 -4 -36 -4c-90 0 -154 71 -154 167v535c0 3 3 6 7 6h19
c3 0 6 -3 6 -6v-535c0 -80 50 -137 122 -137s121 57 121 137v535z" />
    <glyph glyph-name="Uring" unicode="&#x16e;" horiz-adv-x="453" 
d="M159 822c0 37 26 61 65 61c38 0 64 -24 64 -61c0 -38 -26 -64 -64 -64c-39 0 -65 26 -65 64zM184 821c0 -25 15 -40 40 -40c24 0 39 15 39 40c0 24 -15 39 -39 39c-25 0 -40 -15 -40 -39zM76 700h19c3 0 6 -3 6 -7v-524c0 -91 50 -147 125 -147c76 0 126 56 126 147v524
c0 4 2 7 6 7h19c4 0 7 -3 7 -7v-524c0 -106 -64 -177 -158 -177s-157 71 -157 177v524c0 4 3 7 7 7z" />
    <glyph glyph-name="V" unicode="V" horiz-adv-x="395" 
d="M364 700c4 0 7 -3 6 -7l-146 -681c-1 -9 -7 -14 -17 -14h-19c-10 0 -16 5 -18 14l-145 681c-1 4 2 7 6 7h19c4 0 6 -2 7 -5l141 -663l140 663c1 3 4 5 8 5h18z" />
    <glyph glyph-name="W" unicode="W" horiz-adv-x="684" 
d="M609 700c3 0 6 -3 6 -6v-532c0 -98 -55 -170 -145 -170c-63 0 -105 41 -128 96c-22 -55 -67 -96 -128 -96c-90 0 -145 72 -145 170v532c0 3 3 6 7 6h19c3 0 6 -3 6 -6v-532c0 -83 41 -140 113 -140c66 0 112 59 112 140v532c0 3 3 6 7 6h19c3 0 6 -3 6 -6v-532
c0 -81 47 -140 112 -140c73 0 113 57 113 140v532c0 3 3 6 7 6h19z" />
    <glyph glyph-name="Wacute" unicode="&#x1e82;" horiz-adv-x="684" 
d="M319 769c-5 0 -7 4 -4 8l71 90c2 3 6 4 8 4h23c6 0 8 -3 4 -8l-80 -90c-1 -3 -5 -4 -7 -4h-15zM609 700c3 0 6 -3 6 -6v-532c0 -98 -55 -170 -145 -170c-63 0 -105 41 -128 96c-22 -55 -67 -96 -128 -96c-90 0 -145 72 -145 170v532c0 3 3 6 7 6h19c3 0 6 -3 6 -6v-532
c0 -83 41 -140 113 -140c66 0 112 59 112 140v532c0 3 3 6 7 6h19c3 0 6 -3 6 -6v-532c0 -81 47 -140 112 -140c73 0 113 57 113 140v532c0 3 3 6 7 6h19z" />
    <glyph glyph-name="Wcircumflex" unicode="&#x174;" horiz-adv-x="684" 
d="M250 769c-5 0 -6 4 -3 8l73 90c2 3 5 4 8 4h28c3 0 6 -1 8 -4l74 -90c2 -4 1 -8 -4 -8h-15c-3 0 -6 1 -8 4l-69 79l-69 -79c-2 -3 -5 -4 -8 -4h-15zM609 700c3 0 6 -3 6 -6v-532c0 -98 -55 -170 -145 -170c-63 0 -105 41 -128 96c-22 -55 -67 -96 -128 -96
c-90 0 -145 72 -145 170v532c0 3 3 6 7 6h19c3 0 6 -3 6 -6v-532c0 -83 41 -140 113 -140c66 0 112 59 112 140v532c0 3 3 6 7 6h19c3 0 6 -3 6 -6v-532c0 -81 47 -140 112 -140c73 0 113 57 113 140v532c0 3 3 6 7 6h19z" />
    <glyph glyph-name="Wdieresis" unicode="&#x1e84;" horiz-adv-x="684" 
d="M294 797c-16 0 -27 11 -27 26c0 16 11 27 27 27c15 0 26 -11 26 -27c0 -15 -11 -26 -26 -26zM391 797c-16 0 -27 11 -27 26c0 16 11 27 27 27c15 0 26 -11 26 -27c0 -15 -11 -26 -26 -26zM609 700c3 0 6 -3 6 -6v-532c0 -98 -55 -170 -145 -170c-63 0 -105 41 -128 96
c-22 -55 -67 -96 -128 -96c-90 0 -145 72 -145 170v532c0 3 3 6 7 6h19c3 0 6 -3 6 -6v-532c0 -83 41 -140 113 -140c66 0 112 59 112 140v532c0 3 3 6 7 6h19c3 0 6 -3 6 -6v-532c0 -81 47 -140 112 -140c73 0 113 57 113 140v532c0 3 3 6 7 6h19z" />
    <glyph glyph-name="Wgrave" unicode="&#x1e80;" horiz-adv-x="684" 
d="M352 773l-80 90c-4 5 -2 8 4 8h23c2 0 6 -1 8 -4l71 -90c3 -4 1 -8 -4 -8h-15c-2 0 -6 1 -7 4zM609 700c3 0 6 -3 6 -6v-532c0 -98 -55 -170 -145 -170c-63 0 -105 41 -128 96c-22 -55 -67 -96 -128 -96c-90 0 -145 72 -145 170v532c0 3 3 6 7 6h19c3 0 6 -3 6 -6v-532
c0 -83 41 -140 113 -140c66 0 112 59 112 140v532c0 3 3 6 7 6h19c3 0 6 -3 6 -6v-532c0 -81 47 -140 112 -140c73 0 113 57 113 140v532c0 3 3 6 7 6h19z" />
    <glyph glyph-name="X" unicode="X" horiz-adv-x="424" 
d="M366 501c0 -66 -38 -121 -95 -145c57 -25 95 -80 95 -152v-197c0 -4 -3 -7 -7 -7h-19c-3 0 -6 3 -6 7v197c0 79 -53 136 -122 136c-68 0 -122 -57 -122 -136v-197c0 -4 -2 -7 -6 -7h-19c-4 0 -7 3 -7 7v197c0 72 37 127 94 152c-57 24 -94 79 -94 145v193c0 3 3 6 7 6h19
c4 0 6 -3 6 -6v-193c0 -74 54 -131 122 -131c69 0 122 57 122 131v193c0 3 3 6 6 6h19c4 0 7 -3 7 -6v-193z" />
    <glyph glyph-name="Y" unicode="Y" horiz-adv-x="414" 
d="M197 0c-3 0 -6 3 -6 7v222c-79 8 -138 76 -138 166v299c0 3 3 6 7 6h19c4 0 6 -3 6 -6v-299c0 -80 54 -137 122 -137c69 0 122 57 122 137v299c0 3 3 6 6 6h19c4 0 7 -3 7 -6v-299c0 -90 -60 -158 -138 -166v-222c0 -4 -3 -7 -7 -7h-19z" />
    <glyph glyph-name="Yacute" unicode="&#xdd;" horiz-adv-x="414" 
d="M184 769c-5 0 -7 4 -4 8l71 90c2 3 6 4 8 4h23c6 0 8 -3 4 -8l-80 -90c-1 -3 -5 -4 -7 -4h-15zM197 0c-3 0 -6 3 -6 7v222c-79 8 -138 76 -138 166v299c0 3 3 6 7 6h19c4 0 6 -3 6 -6v-299c0 -80 54 -137 122 -137c69 0 122 57 122 137v299c0 3 3 6 6 6h19c4 0 7 -3 7 -6
v-299c0 -90 -60 -158 -138 -166v-222c0 -4 -3 -7 -7 -7h-19z" />
    <glyph glyph-name="Ycircumflex" unicode="&#x176;" horiz-adv-x="414" 
d="M303 777c2 -4 1 -8 -4 -8h-15c-3 0 -6 1 -8 4l-69 79l-69 -79c-2 -3 -5 -4 -8 -4h-15c-5 0 -6 4 -3 8l73 90c2 3 5 4 8 4h28c3 0 6 -1 8 -4zM197 0c-3 0 -6 3 -6 7v222c-79 8 -138 76 -138 166v299c0 3 3 6 7 6h19c4 0 6 -3 6 -6v-299c0 -80 54 -137 122 -137
c69 0 122 57 122 137v299c0 3 3 6 6 6h19c4 0 7 -3 7 -6v-299c0 -90 -60 -158 -138 -166v-222c0 -4 -3 -7 -7 -7h-19z" />
    <glyph glyph-name="Ydieresis" unicode="&#x178;" horiz-adv-x="414" 
d="M159 797c-16 0 -27 11 -27 26c0 16 11 27 27 27c15 0 26 -11 26 -27c0 -15 -11 -26 -26 -26zM256 797c-16 0 -27 11 -27 26c0 16 11 27 27 27c15 0 26 -11 26 -27c0 -15 -11 -26 -26 -26zM197 0c-3 0 -6 3 -6 7v222c-79 8 -138 76 -138 166v299c0 3 3 6 7 6h19
c4 0 6 -3 6 -6v-299c0 -80 54 -137 122 -137c69 0 122 57 122 137v299c0 3 3 6 6 6h19c4 0 7 -3 7 -6v-299c0 -90 -60 -158 -138 -166v-222c0 -4 -3 -7 -7 -7h-19z" />
    <glyph glyph-name="Ygrave" unicode="&#x1ef2;" horiz-adv-x="414" 
d="M239 769h-15c-2 0 -6 1 -7 4l-80 90c-4 5 -2 8 4 8h23c2 0 6 -1 8 -4l71 -90c3 -4 1 -8 -4 -8zM197 0c-3 0 -6 3 -6 7v222c-79 8 -138 76 -138 166v299c0 3 3 6 7 6h19c4 0 6 -3 6 -6v-299c0 -80 54 -137 122 -137c69 0 122 57 122 137v299c0 3 3 6 6 6h19c4 0 7 -3 7 -6
v-299c0 -90 -60 -158 -138 -166v-222c0 -4 -3 -7 -7 -7h-19z" />
    <glyph glyph-name="Z" unicode="Z" horiz-adv-x="407" 
d="M77 30h278c3 0 6 -2 6 -6v-17c0 -4 -3 -7 -6 -7h-291c-11 0 -18 7 -18 17v9c0 7 0 13 4 21l280 623h-263c-4 0 -7 3 -7 6v18c0 3 3 6 7 6h277c10 0 17 -6 17 -17v-8c1 -8 0 -14 -4 -22z" />
    <glyph glyph-name="Zacute" unicode="&#x179;" horiz-adv-x="407" 
d="M185 769c-5 0 -7 4 -4 8l71 90c2 3 6 4 8 4h23c6 0 8 -3 4 -8l-80 -90c-1 -3 -5 -4 -7 -4h-15zM77 30h278c3 0 6 -2 6 -6v-17c0 -4 -3 -7 -6 -7h-291c-11 0 -18 7 -18 17v9c0 7 0 13 4 21l280 623h-263c-4 0 -7 3 -7 6v18c0 3 3 6 7 6h277c10 0 17 -6 17 -17v-8
c1 -8 0 -14 -4 -22z" />
    <glyph glyph-name="Zcaron" unicode="&#x17d;" horiz-adv-x="407" 
d="M303 863l-74 -90c-2 -3 -5 -4 -8 -4h-28c-3 0 -6 1 -8 4l-73 90c-3 4 -2 8 3 8h15c3 0 6 -1 8 -4l69 -79l69 79c2 3 5 4 8 4h15c5 0 6 -4 4 -8zM77 30h278c3 0 6 -2 6 -6v-17c0 -4 -3 -7 -6 -7h-291c-11 0 -18 7 -18 17v9c0 7 0 13 4 21l280 623h-263c-4 0 -7 3 -7 6v18
c0 3 3 6 7 6h277c10 0 17 -6 17 -17v-8c1 -8 0 -14 -4 -22z" />
    <glyph glyph-name="Zdotaccent" unicode="&#x17b;" horiz-adv-x="407" 
d="M208 779c-16 0 -27 11 -27 27s11 27 27 27s27 -11 27 -27c0 -15 -11 -27 -27 -27zM77 30h278c3 0 6 -2 6 -6v-17c0 -4 -3 -7 -6 -7h-291c-11 0 -18 7 -18 17v9c0 7 0 13 4 21l280 623h-263c-4 0 -7 3 -7 6v18c0 3 3 6 7 6h277c10 0 17 -6 17 -17v-8c1 -8 0 -14 -4 -22z
" />
    <glyph glyph-name="uni0162.ss01" horiz-adv-x="357" 
d="M325 700c4 0 7 -3 7 -6v-18c0 -3 -3 -6 -7 -6h-130v-663c0 -4 -3 -7 -4 -7l-9 -56c5 1 13 2 20 2c42 -1 71 -29 71 -69c0 -45 -34 -72 -82 -72c-47 0 -79 26 -83 67c0 4 3 7 7 7h14c3 0 6 -2 6 -6c3 -26 25 -42 56 -42s54 17 54 46c0 27 -20 46 -46 46
c-12 0 -26 -3 -38 -7c-2 -1 -4 0 -6 2l-1 1c-2 2 -3 3 -2 6l14 75c-1 0 -3 3 -3 7v663h-131c-4 0 -6 3 -6 6v18c0 3 2 6 6 6h293z" />
    <glyph glyph-name="a" unicode="a" horiz-adv-x="391" 
d="M198 -8c-95 0 -151 59 -151 155c0 85 56 142 156 142h104v67c0 76 -42 123 -109 123c-68 0 -108 -44 -112 -104c-1 -4 -3 -7 -7 -7h-17c-4 0 -7 3 -7 7c4 77 56 133 143 133c86 0 139 -59 139 -152v-209c0 -93 -52 -155 -139 -155zM198 22c69 0 109 49 109 125v113h-104
c-82 0 -125 -45 -125 -113c0 -78 43 -125 120 -125z" />
    <glyph glyph-name="aacute" unicode="&#xe1;" horiz-adv-x="391" 
d="M258 668c5 0 7 -4 4 -8l-68 -97c-2 -3 -6 -4 -9 -4h-14c-6 0 -7 3 -5 8l62 97c2 2 5 4 8 4h22zM198 -8c-95 0 -151 59 -151 155c0 85 56 142 156 142h104v67c0 76 -42 123 -109 123c-68 0 -108 -44 -112 -104c-1 -4 -3 -7 -7 -7h-17c-4 0 -7 3 -7 7c4 77 56 133 143 133
c86 0 139 -59 139 -152v-209c0 -93 -52 -155 -139 -155zM198 22c69 0 109 49 109 125v113h-104c-82 0 -125 -45 -125 -113c0 -78 43 -125 120 -125z" />
    <glyph glyph-name="abreve" unicode="&#x103;" horiz-adv-x="391" 
d="M196 563c-60 0 -101 39 -104 98c0 4 3 7 7 7h16c4 0 6 -3 7 -7c2 -45 29 -71 74 -71s72 26 75 71c0 4 3 7 7 7h16c4 0 6 -3 6 -7c-3 -59 -43 -98 -104 -98zM198 -8c-95 0 -151 59 -151 155c0 85 56 142 156 142h104v67c0 76 -42 123 -109 123c-68 0 -108 -44 -112 -104
c-1 -4 -3 -7 -7 -7h-17c-4 0 -7 3 -7 7c4 77 56 133 143 133c86 0 139 -59 139 -152v-209c0 -93 -52 -155 -139 -155zM198 22c69 0 109 49 109 125v113h-104c-82 0 -125 -45 -125 -113c0 -78 43 -125 120 -125z" />
    <glyph glyph-name="acircumflex" unicode="&#xe2;" horiz-adv-x="391" 
d="M107 559c-5 0 -6 4 -3 8l72 97c2 3 5 4 8 4h25c3 0 6 -1 8 -4l72 -97c3 -4 1 -8 -4 -8h-15c-3 0 -6 1 -8 4l-66 82l-65 -82c-2 -3 -5 -4 -8 -4h-16zM198 -8c-95 0 -151 59 -151 155c0 85 56 142 156 142h104v67c0 76 -42 123 -109 123c-68 0 -108 -44 -112 -104
c-1 -4 -3 -7 -7 -7h-17c-4 0 -7 3 -7 7c4 77 56 133 143 133c86 0 139 -59 139 -152v-209c0 -93 -52 -155 -139 -155zM198 22c69 0 109 49 109 125v113h-104c-82 0 -125 -45 -125 -113c0 -78 43 -125 120 -125z" />
    <glyph glyph-name="adieresis" unicode="&#xe4;" horiz-adv-x="391" 
d="M148 580c-16 0 -27 11 -27 26c0 16 11 27 27 27c15 0 26 -11 26 -27c0 -15 -11 -26 -26 -26zM245 580c-16 0 -27 11 -27 26c0 16 11 27 27 27c15 0 26 -11 26 -27c0 -15 -11 -26 -26 -26zM198 -8c-95 0 -151 59 -151 155c0 85 56 142 156 142h104v67
c0 76 -42 123 -109 123c-68 0 -108 -44 -112 -104c-1 -4 -3 -7 -7 -7h-17c-4 0 -7 3 -7 7c4 77 56 133 143 133c86 0 139 -59 139 -152v-209c0 -93 -52 -155 -139 -155zM198 22c69 0 109 49 109 125v113h-104c-82 0 -125 -45 -125 -113c0 -78 43 -125 120 -125z" />
    <glyph glyph-name="agrave" unicode="&#xe0;" horiz-adv-x="391" 
d="M126 668h22c3 0 6 -2 8 -4l62 -97c2 -5 1 -8 -5 -8h-14c-3 0 -7 1 -9 4l-68 97c-3 4 -1 8 4 8zM198 -8c-95 0 -151 59 -151 155c0 85 56 142 156 142h104v67c0 76 -42 123 -109 123c-68 0 -108 -44 -112 -104c-1 -4 -3 -7 -7 -7h-17c-4 0 -7 3 -7 7c4 77 56 133 143 133
c86 0 139 -59 139 -152v-209c0 -93 -52 -155 -139 -155zM198 22c69 0 109 49 109 125v113h-104c-82 0 -125 -45 -125 -113c0 -78 43 -125 120 -125z" />
    <glyph glyph-name="amacron" unicode="&#x101;" horiz-adv-x="391" 
d="M119 619c0 4 3 6 7 6h141c4 0 6 -2 6 -6v-16c0 -3 -2 -6 -6 -6h-141c-4 0 -7 3 -7 6v16zM198 -8c-95 0 -151 59 -151 155c0 85 56 142 156 142h104v67c0 76 -42 123 -109 123c-68 0 -108 -44 -112 -104c-1 -4 -3 -7 -7 -7h-17c-4 0 -7 3 -7 7c4 77 56 133 143 133
c86 0 139 -59 139 -152v-209c0 -93 -52 -155 -139 -155zM198 22c69 0 109 49 109 125v113h-104c-82 0 -125 -45 -125 -113c0 -78 43 -125 120 -125z" />
    <glyph glyph-name="aogonek" unicode="&#x105;" horiz-adv-x="389" 
d="M283 -194c-63 -9 -106 23 -106 70c0 39 27 80 62 118c-14 -2 -27 -2 -41 -2c-88 0 -151 66 -151 150s60 147 159 147h99v67c0 69 -42 123 -110 123c-65 0 -107 -50 -110 -104c0 -4 -3 -7 -7 -7h-17c-4 0 -7 3 -7 7c4 70 58 133 141 133c86 0 140 -67 140 -152v-251
c0 -42 -17 -67 -49 -93c-34 -27 -78 -95 -78 -131c0 -34 29 -50 74 -46c4 1 7 -2 7 -5v-17c0 -4 -2 -6 -6 -7zM198 21c75 0 107 33 107 84v155h-99c-84 0 -128 -50 -128 -118s48 -121 120 -121z" />
    <glyph glyph-name="aring" unicode="&#xe5;" horiz-adv-x="391" 
d="M131 615c0 37 26 61 65 61c38 0 64 -24 64 -61c0 -38 -26 -64 -64 -64c-39 0 -65 26 -65 64zM156 614c0 -25 15 -40 40 -40c24 0 39 15 39 40c0 24 -15 39 -39 39c-25 0 -40 -15 -40 -39zM198 -8c-95 0 -151 59 -151 155c0 85 56 142 156 142h104v67
c0 76 -42 123 -109 123c-68 0 -108 -44 -112 -104c-1 -4 -3 -7 -7 -7h-17c-4 0 -7 3 -7 7c4 77 56 133 143 133c86 0 139 -59 139 -152v-209c0 -93 -52 -155 -139 -155zM198 22c69 0 109 49 109 125v113h-104c-82 0 -125 -45 -125 -113c0 -78 43 -125 120 -125z" />
    <glyph glyph-name="atilde" unicode="&#xe3;" horiz-adv-x="391" 
d="M153 626c-17 0 -29 -14 -30 -39c0 -4 -3 -6 -7 -6h-15c-4 0 -7 2 -7 6c3 40 27 67 58 67c42 0 54 -47 84 -47c17 0 29 14 30 39c0 4 3 7 7 7h16c3 0 6 -3 6 -7c-3 -41 -27 -66 -58 -66c-40 0 -53 46 -84 46zM198 -8c-95 0 -151 59 -151 155c0 85 56 142 156 142h104v67
c0 76 -42 123 -109 123c-68 0 -108 -44 -112 -104c-1 -4 -3 -7 -7 -7h-17c-4 0 -7 3 -7 7c4 77 56 133 143 133c86 0 139 -59 139 -152v-209c0 -93 -52 -155 -139 -155zM198 22c69 0 109 49 109 125v113h-104c-82 0 -125 -45 -125 -113c0 -78 43 -125 120 -125z" />
    <glyph glyph-name="ae" unicode="&#xe6;" horiz-adv-x="632" 
d="M193 -8c-91 0 -146 58 -146 145c0 83 57 135 152 135h102v84c0 76 -43 123 -109 123c-63 0 -104 -39 -108 -104c0 -4 -2 -7 -6 -7h-18c-4 0 -6 3 -6 7c4 81 57 133 138 133c61 0 104 -32 124 -85c22 51 66 85 127 85c85 0 142 -62 142 -141c0 -71 -54 -124 -159 -124h-95
v-99c0 -70 37 -123 110 -123s109 50 111 119c0 3 3 6 6 6h18c4 0 6 -3 6 -6c-2 -84 -50 -148 -141 -148c-65 0 -105 35 -125 84c-20 -51 -62 -84 -123 -84zM331 272h95c90 0 129 40 129 95c0 63 -44 112 -112 112c-69 0 -112 -52 -112 -123v-84zM193 21c69 0 108 50 108 127
v95h-102c-78 0 -121 -39 -121 -106c0 -70 42 -116 115 -116z" />
    <glyph glyph-name="b" unicode="b" horiz-adv-x="407" 
d="M207 508c83 0 146 -67 146 -152v-212c0 -85 -63 -152 -146 -152s-145 67 -145 152v550c0 3 3 6 7 6h17c4 0 6 -3 6 -6v-258c23 44 67 72 115 72zM322 144v212c0 69 -49 123 -115 123c-65 0 -115 -54 -115 -123v-212c0 -69 50 -123 115 -123c66 0 115 54 115 123z" />
    <glyph glyph-name="c" unicode="c" horiz-adv-x="388" 
d="M200 -8c-88 0 -146 63 -146 154v204c0 93 57 158 143 158c82 0 139 -54 142 -133c0 -4 -2 -7 -6 -7h-17c-4 0 -7 3 -7 7c-3 62 -47 104 -112 104c-68 0 -112 -52 -112 -129v-204c0 -74 45 -125 115 -125c66 0 110 48 114 118c0 4 2 6 6 6h18c4 0 6 -2 6 -6
c-3 -87 -61 -147 -144 -147z" />
    <glyph glyph-name="cacute" unicode="&#x107;" horiz-adv-x="388" 
d="M259 668c5 0 7 -4 4 -8l-68 -97c-2 -3 -6 -4 -9 -4h-14c-6 0 -7 3 -5 8l62 97c2 2 5 4 8 4h22zM200 -8c-88 0 -146 63 -146 154v204c0 93 57 158 143 158c82 0 139 -54 142 -133c0 -4 -2 -7 -6 -7h-17c-4 0 -7 3 -7 7c-3 62 -47 104 -112 104c-68 0 -112 -52 -112 -129
v-204c0 -74 45 -125 115 -125c66 0 110 48 114 118c0 4 2 6 6 6h18c4 0 6 -2 6 -6c-3 -87 -61 -147 -144 -147z" />
    <glyph glyph-name="ccaron" unicode="&#x10d;" horiz-adv-x="388" 
d="M108 668h16c3 0 6 -1 8 -4l65 -82l66 82c2 3 5 4 8 4h15c5 0 7 -4 4 -8l-72 -97c-2 -3 -5 -4 -8 -4h-25c-3 0 -6 1 -8 4l-72 97c-3 4 -2 8 3 8zM200 -8c-88 0 -146 63 -146 154v204c0 93 57 158 143 158c82 0 139 -54 142 -133c0 -4 -2 -7 -6 -7h-17c-4 0 -7 3 -7 7
c-3 62 -47 104 -112 104c-68 0 -112 -52 -112 -129v-204c0 -74 45 -125 115 -125c66 0 110 48 114 118c0 4 2 6 6 6h18c4 0 6 -2 6 -6c-3 -87 -61 -147 -144 -147z" />
    <glyph glyph-name="ccedilla" unicode="&#xe7;" horiz-adv-x="388" 
d="M344 139c-3 -83 -55 -141 -131 -147l-9 -48c5 1 13 2 20 2c42 -1 71 -29 71 -69c0 -45 -34 -72 -82 -72c-47 0 -79 26 -83 67c0 4 3 7 7 7h14c3 0 6 -2 6 -6c3 -26 25 -42 56 -42s54 17 54 46c0 27 -20 46 -46 46c-12 0 -26 -3 -38 -7c-2 -1 -4 0 -6 2l-1 1
c-2 2 -3 3 -2 6l13 68c-81 6 -133 67 -133 153v204c0 93 57 158 143 158c82 0 139 -54 142 -133c0 -4 -2 -7 -6 -7h-17c-4 0 -7 3 -7 7c-3 62 -47 104 -112 104c-68 0 -112 -52 -112 -129v-204c0 -74 45 -125 115 -125c66 0 110 48 114 118c0 4 2 6 6 6h18c4 0 6 -2 6 -6z
" />
    <glyph glyph-name="cdotaccent" unicode="&#x10b;" horiz-adv-x="388" 
d="M197 579c-16 0 -27 11 -27 27s11 27 27 27s27 -11 27 -27c0 -15 -11 -27 -27 -27zM200 -8c-88 0 -146 63 -146 154v204c0 93 57 158 143 158c82 0 139 -54 142 -133c0 -4 -2 -7 -6 -7h-17c-4 0 -7 3 -7 7c-3 62 -47 104 -112 104c-68 0 -112 -52 -112 -129v-204
c0 -74 45 -125 115 -125c66 0 110 48 114 118c0 4 2 6 6 6h18c4 0 6 -2 6 -6c-3 -87 -61 -147 -144 -147z" />
    <glyph glyph-name="d" unicode="d" horiz-adv-x="407" 
d="M338 700c4 0 7 -3 7 -6v-550c0 -85 -62 -152 -145 -152s-146 67 -146 152v212c0 85 63 152 146 152c48 0 92 -28 115 -72v258c0 3 2 6 6 6h17zM315 144v212c0 69 -50 123 -115 123c-66 0 -115 -54 -115 -123v-212c0 -69 49 -123 115 -123c65 0 115 54 115 123z" />
    <glyph glyph-name="eth" unicode="&#xf0;" horiz-adv-x="422" 
d="M304 647c31 -38 46 -94 46 -168v-334c0 -86 -63 -153 -148 -153c-84 0 -148 67 -148 153v211c0 85 64 152 148 152c49 0 92 -32 118 -71v42c0 69 -13 119 -42 152l-110 -68c-4 -3 -8 -1 -8 4v15c0 2 1 5 5 7l95 59c-28 21 -67 31 -117 31h-24c-4 0 -6 2 -6 6v16
c0 4 2 7 6 7h24c63 0 110 -14 144 -44l55 34c4 3 7 1 7 -4v-15c0 -2 -1 -5 -4 -7zM320 145v211c0 69 -51 123 -118 123s-117 -54 -117 -123v-211c0 -70 50 -124 117 -124c68 0 118 54 118 124z" />
    <glyph glyph-name="dcaron" unicode="&#x10f;" horiz-adv-x="457" 
d="M338 700c4 0 7 -3 7 -6v-550c0 -85 -62 -152 -145 -152s-146 67 -146 152v212c0 85 63 152 146 152c48 0 92 -28 115 -72v258c0 3 2 6 6 6h17zM437 700c5 0 7 -2 6 -7l-23 -140c0 -4 -4 -6 -8 -6h-10c-4 0 -6 2 -6 6l8 140c0 5 3 7 7 7h26zM315 144v212
c0 69 -50 123 -115 123c-66 0 -115 -54 -115 -123v-212c0 -69 49 -123 115 -123c65 0 115 54 115 123z" />
    <glyph glyph-name="dcroat" unicode="&#x111;" horiz-adv-x="414" 
d="M394 629c4 0 7 -2 7 -6v-14c0 -4 -3 -7 -7 -7h-49v-458c0 -85 -62 -152 -145 -152s-146 67 -146 152v212c0 85 63 152 146 152c48 0 92 -28 115 -72v166h-108c-4 0 -7 3 -7 7v14c0 4 3 6 7 6h108v65c0 3 2 6 6 6h17c4 0 7 -3 7 -6v-65h49zM315 144v212
c0 69 -50 123 -115 123c-66 0 -115 -54 -115 -123v-212c0 -69 49 -123 115 -123c65 0 115 54 115 123z" />
    <glyph glyph-name="e" unicode="e" horiz-adv-x="389" 
d="M195 -8c-92 0 -141 66 -141 153v210c0 88 56 153 144 153c85 0 144 -66 144 -149c0 -82 -55 -143 -159 -143h-98v-71c0 -70 36 -123 110 -123s111 50 113 117c0 4 3 6 7 6h17c4 0 7 -2 7 -5c-2 -84 -53 -148 -144 -148zM85 245h98c88 0 129 48 129 114
c0 67 -46 119 -114 119c-71 0 -113 -51 -113 -123v-110z" />
    <glyph glyph-name="eacute" unicode="&#xe9;" horiz-adv-x="389" 
d="M258 668c5 0 7 -4 4 -8l-68 -97c-2 -3 -6 -4 -9 -4h-14c-6 0 -7 3 -5 8l62 97c2 2 5 4 8 4h22zM195 -8c-92 0 -141 66 -141 153v210c0 88 56 153 144 153c85 0 144 -66 144 -149c0 -82 -55 -143 -159 -143h-98v-71c0 -70 36 -123 110 -123s111 50 113 117c0 4 3 6 7 6h17
c4 0 7 -2 7 -5c-2 -84 -53 -148 -144 -148zM85 245h98c88 0 129 48 129 114c0 67 -46 119 -114 119c-71 0 -113 -51 -113 -123v-110z" />
    <glyph glyph-name="ecaron" unicode="&#x11b;" horiz-adv-x="389" 
d="M107 668h16c3 0 6 -1 8 -4l65 -82l66 82c2 3 5 4 8 4h15c5 0 7 -4 4 -8l-72 -97c-2 -3 -5 -4 -8 -4h-25c-3 0 -6 1 -8 4l-72 97c-3 4 -2 8 3 8zM195 -8c-92 0 -141 66 -141 153v210c0 88 56 153 144 153c85 0 144 -66 144 -149c0 -82 -55 -143 -159 -143h-98v-71
c0 -70 36 -123 110 -123s111 50 113 117c0 4 3 6 7 6h17c4 0 7 -2 7 -5c-2 -84 -53 -148 -144 -148zM85 245h98c88 0 129 48 129 114c0 67 -46 119 -114 119c-71 0 -113 -51 -113 -123v-110z" />
    <glyph glyph-name="ecircumflex" unicode="&#xea;" horiz-adv-x="389" 
d="M107 559c-5 0 -6 4 -3 8l72 97c2 3 5 4 8 4h25c3 0 6 -1 8 -4l72 -97c3 -4 1 -8 -4 -8h-15c-3 0 -6 1 -8 4l-66 82l-65 -82c-2 -3 -5 -4 -8 -4h-16zM195 -8c-92 0 -141 66 -141 153v210c0 88 56 153 144 153c85 0 144 -66 144 -149c0 -82 -55 -143 -159 -143h-98v-71
c0 -70 36 -123 110 -123s111 50 113 117c0 4 3 6 7 6h17c4 0 7 -2 7 -5c-2 -84 -53 -148 -144 -148zM85 245h98c88 0 129 48 129 114c0 67 -46 119 -114 119c-71 0 -113 -51 -113 -123v-110z" />
    <glyph glyph-name="edieresis" unicode="&#xeb;" horiz-adv-x="389" 
d="M148 580c-16 0 -27 11 -27 26c0 16 11 27 27 27c15 0 26 -11 26 -27c0 -15 -11 -26 -26 -26zM245 580c-16 0 -27 11 -27 26c0 16 11 27 27 27c15 0 26 -11 26 -27c0 -15 -11 -26 -26 -26zM195 -8c-92 0 -141 66 -141 153v210c0 88 56 153 144 153c85 0 144 -66 144 -149
c0 -82 -55 -143 -159 -143h-98v-71c0 -70 36 -123 110 -123s111 50 113 117c0 4 3 6 7 6h17c4 0 7 -2 7 -5c-2 -84 -53 -148 -144 -148zM85 245h98c88 0 129 48 129 114c0 67 -46 119 -114 119c-71 0 -113 -51 -113 -123v-110z" />
    <glyph glyph-name="edotaccent" unicode="&#x117;" horiz-adv-x="389" 
d="M196 579c-16 0 -27 11 -27 27s11 27 27 27s27 -11 27 -27c0 -15 -11 -27 -27 -27zM195 -8c-92 0 -141 66 -141 153v210c0 88 56 153 144 153c85 0 144 -66 144 -149c0 -82 -55 -143 -159 -143h-98v-71c0 -70 36 -123 110 -123s111 50 113 117c0 4 3 6 7 6h17
c4 0 7 -2 7 -5c-2 -84 -53 -148 -144 -148zM85 245h98c88 0 129 48 129 114c0 67 -46 119 -114 119c-71 0 -113 -51 -113 -123v-110z" />
    <glyph glyph-name="egrave" unicode="&#xe8;" horiz-adv-x="389" 
d="M126 668h22c3 0 6 -2 8 -4l62 -97c2 -5 1 -8 -5 -8h-14c-3 0 -7 1 -9 4l-68 97c-3 4 -1 8 4 8zM195 -8c-92 0 -141 66 -141 153v210c0 88 56 153 144 153c85 0 144 -66 144 -149c0 -82 -55 -143 -159 -143h-98v-71c0 -70 36 -123 110 -123s111 50 113 117c0 4 3 6 7 6h17
c4 0 7 -2 7 -5c-2 -84 -53 -148 -144 -148zM85 245h98c88 0 129 48 129 114c0 67 -46 119 -114 119c-71 0 -113 -51 -113 -123v-110z" />
    <glyph glyph-name="emacron" unicode="&#x113;" horiz-adv-x="389" 
d="M119 619c0 4 3 6 7 6h141c4 0 6 -2 6 -6v-16c0 -3 -2 -6 -6 -6h-141c-4 0 -7 3 -7 6v16zM195 -8c-92 0 -141 66 -141 153v210c0 88 56 153 144 153c85 0 144 -66 144 -149c0 -82 -55 -143 -159 -143h-98v-71c0 -70 36 -123 110 -123s111 50 113 117c0 4 3 6 7 6h17
c4 0 7 -2 7 -5c-2 -84 -53 -148 -144 -148zM85 245h98c88 0 129 48 129 114c0 67 -46 119 -114 119c-71 0 -113 -51 -113 -123v-110z" />
    <glyph glyph-name="eogonek" unicode="&#x119;" horiz-adv-x="389" 
d="M273 -194c-41 -7 -105 14 -105 71c0 43 24 83 57 118c-10 -2 -20 -3 -30 -3c-92 0 -141 66 -141 152v211c0 88 57 153 142 153c87 0 144 -65 144 -149c0 -82 -56 -143 -159 -143h-96v-72c0 -70 35 -123 113 -123c81 0 111 79 111 119c0 4 2 6 6 6h18c4 0 6 -3 6 -6
c0 -62 -36 -101 -63 -126c-55 -49 -78 -91 -78 -129s30 -51 74 -50c5 0 8 -2 8 -5v-18c0 -3 -3 -5 -7 -6zM85 245h96c87 0 129 48 129 114c0 69 -45 120 -114 120c-68 0 -111 -52 -111 -124v-110z" />
    <glyph glyph-name="f" unicode="f" horiz-adv-x="274" 
d="M242 500c3 0 6 -3 6 -6v-17c0 -4 -3 -6 -6 -6h-119v-464c0 -4 -3 -7 -6 -7h-18c-4 0 -6 3 -6 7v464h-69c-4 0 -6 2 -6 6v17c0 3 2 6 6 6h69v50c0 97 54 152 139 152c4 0 7 -2 7 -6v-16c0 -4 -3 -6 -7 -6c-68 0 -109 -42 -109 -124v-50h119z" />
    <glyph glyph-name="g" unicode="g" horiz-adv-x="407" 
d="M199 508c87 0 146 -67 146 -155v-411c0 -86 -56 -152 -146 -152c-87 0 -143 63 -145 147c0 3 3 6 7 6h17c4 0 7 -2 7 -6c2 -68 43 -118 114 -118c72 0 115 53 115 123v131c-23 -43 -65 -70 -115 -70c-86 0 -145 67 -145 158v192c0 88 59 155 145 155zM199 32
c70 0 115 54 115 129v192c0 72 -45 126 -115 126c-69 0 -114 -54 -114 -126v-192c0 -75 45 -129 114 -129z" />
    <glyph glyph-name="gbreve" unicode="&#x11f;" horiz-adv-x="407" 
d="M202 563c-60 0 -101 39 -104 98c0 4 3 7 7 7h16c4 0 6 -3 7 -7c2 -45 29 -71 74 -71s72 26 75 71c0 4 3 7 7 7h16c4 0 6 -3 6 -7c-3 -59 -43 -98 -104 -98zM199 508c87 0 146 -67 146 -155v-411c0 -86 -56 -152 -146 -152c-87 0 -143 63 -145 147c0 3 3 6 7 6h17
c4 0 7 -2 7 -6c2 -68 43 -118 114 -118c72 0 115 53 115 123v131c-23 -43 -65 -70 -115 -70c-86 0 -145 67 -145 158v192c0 88 59 155 145 155zM199 32c70 0 115 54 115 129v192c0 72 -45 126 -115 126c-69 0 -114 -54 -114 -126v-192c0 -75 45 -129 114 -129z" />
    <glyph glyph-name="gcommaaccent" unicode="&#x123;" horiz-adv-x="408" 
d="M187 560c-4 0 -7 2 -7 7l-9 120c0 4 3 6 7 6h10c4 0 7 -2 8 -6l20 -120c1 -5 -1 -7 -5 -7h-24zM199 508c87 0 146 -67 146 -155v-411c0 -86 -56 -152 -146 -152c-87 0 -143 63 -145 147c0 3 3 6 7 6h17c4 0 7 -2 7 -6c2 -68 43 -118 114 -118c72 0 115 53 115 123v131
c-23 -43 -65 -70 -115 -70c-86 0 -145 67 -145 158v192c0 88 59 155 145 155zM199 32c70 0 115 54 115 129v192c0 72 -45 126 -115 126c-69 0 -114 -54 -114 -126v-192c0 -75 45 -129 114 -129z" />
    <glyph glyph-name="gdotaccent" unicode="&#x121;" horiz-adv-x="407" 
d="M202 579c-16 0 -27 11 -27 27s11 27 27 27s27 -11 27 -27c0 -15 -11 -27 -27 -27zM199 508c87 0 146 -67 146 -155v-411c0 -86 -56 -152 -146 -152c-87 0 -143 63 -145 147c0 3 3 6 7 6h17c4 0 7 -2 7 -6c2 -68 43 -118 114 -118c72 0 115 53 115 123v131
c-23 -43 -65 -70 -115 -70c-86 0 -145 67 -145 158v192c0 88 59 155 145 155zM199 32c70 0 115 54 115 129v192c0 72 -45 126 -115 126c-69 0 -114 -54 -114 -126v-192c0 -75 45 -129 114 -129z" />
    <glyph glyph-name="h" unicode="h" horiz-adv-x="425" 
d="M78 0c-4 0 -7 3 -7 7v687c0 3 3 6 7 6h17c4 0 7 -3 7 -6v-252c23 40 64 66 116 66c86 0 145 -66 145 -153v-348c0 -4 -3 -7 -7 -7h-17c-4 0 -7 3 -7 7v348c0 71 -45 124 -115 124c-69 0 -115 -53 -115 -124v-348c0 -4 -3 -7 -7 -7h-17z" />
    <glyph glyph-name="hbar" unicode="&#x127;" horiz-adv-x="441" 
d="M94 0c-4 0 -6 3 -6 7v595h-64c-4 0 -6 3 -6 7v13c0 4 2 6 6 6h64v66c0 3 2 6 6 6h17c4 0 7 -3 7 -6v-66h153c4 0 6 -2 6 -6v-13c0 -4 -2 -7 -6 -7h-153v-159c23 39 64 65 116 65c87 0 145 -66 145 -153v-348c0 -4 -3 -7 -7 -7h-17c-4 0 -6 3 -6 7v348
c0 71 -46 124 -116 124c-69 0 -115 -53 -115 -124v-348c0 -4 -3 -7 -7 -7h-17z" />
    <glyph glyph-name="i" unicode="i" horiz-adv-x="173" 
d="M87 579c-16 0 -27 11 -27 27s11 27 27 27s27 -11 27 -27c0 -15 -11 -27 -27 -27zM78 0c-4 0 -7 3 -7 7v487c0 3 3 6 7 6h17c4 0 7 -3 7 -6v-487c0 -4 -3 -7 -7 -7h-17z" />
    <glyph glyph-name="dotlessi" unicode="&#x131;" horiz-adv-x="173" 
d="M78 0c-4 0 -7 3 -7 7v487c0 3 3 6 7 6h17c4 0 7 -3 7 -6v-487c0 -4 -3 -7 -7 -7h-17z" />
    <glyph glyph-name="iacute" unicode="&#xed;" horiz-adv-x="173" 
d="M149 668c5 0 7 -4 4 -8l-68 -97c-2 -3 -6 -4 -9 -4h-14c-6 0 -7 3 -5 8l62 97c2 2 5 4 8 4h22zM78 0c-4 0 -7 3 -7 7v487c0 3 3 6 7 6h17c4 0 7 -3 7 -6v-487c0 -4 -3 -7 -7 -7h-17z" />
    <glyph glyph-name="icircumflex" unicode="&#xee;" horiz-adv-x="187" 
d="M12 559c-5 0 -6 4 -3 8l72 97c2 3 5 4 8 4h25c3 0 6 -1 8 -4l72 -97c3 -4 1 -8 -4 -8h-15c-3 0 -6 1 -8 4l-66 82l-65 -82c-2 -3 -5 -4 -8 -4h-16zM92 0c-4 0 -7 3 -7 7v487c0 3 3 6 7 6h17c4 0 7 -3 7 -6v-487c0 -4 -3 -7 -7 -7h-17z" />
    <glyph glyph-name="idieresis" unicode="&#xef;" horiz-adv-x="162" 
d="M43 581c-15 0 -26 10 -26 25s11 25 26 25s26 -10 26 -25s-11 -25 -26 -25zM120 581c-15 0 -26 10 -26 25s11 25 26 25s25 -10 25 -25s-10 -25 -25 -25zM75 0c-4 0 -7 3 -7 7v487c0 3 3 6 7 6h17c4 0 7 -3 7 -6v-487c0 -4 -3 -7 -7 -7h-17z" />
    <glyph glyph-name="i.loclTRK" horiz-adv-x="173" 
d="M87 579c-16 0 -27 11 -27 27s11 27 27 27s27 -11 27 -27c0 -15 -11 -27 -27 -27zM78 0c-4 0 -7 3 -7 7v487c0 3 3 6 7 6h17c4 0 7 -3 7 -6v-487c0 -4 -3 -7 -7 -7h-17z" />
    <glyph glyph-name="igrave" unicode="&#xec;" horiz-adv-x="173" 
d="M17 668h22c3 0 6 -2 8 -4l62 -97c2 -5 1 -8 -5 -8h-14c-3 0 -7 1 -9 4l-68 97c-3 4 -1 8 4 8zM78 0c-4 0 -7 3 -7 7v487c0 3 3 6 7 6h17c4 0 7 -3 7 -6v-487c0 -4 -3 -7 -7 -7h-17z" />
    <glyph glyph-name="imacron" unicode="&#x12b;" horiz-adv-x="151" 
d="M9 619c0 4 2 6 6 6h121c4 0 7 -2 7 -6v-16c0 -3 -3 -6 -7 -6h-121c-4 0 -6 3 -6 6v16zM69 0c-4 0 -7 3 -7 7v487c0 3 3 6 7 6h17c4 0 7 -3 7 -6v-487c0 -4 -3 -7 -7 -7h-17z" />
    <glyph glyph-name="iogonek" unicode="&#x12f;" horiz-adv-x="205" 
d="M107 579c-16 0 -27 11 -27 27s11 27 27 27s28 -11 28 -27c0 -15 -12 -27 -28 -27zM121 -195c-51 0 -84 30 -84 73c0 38 23 83 54 122v494c0 3 2 6 6 6h18c3 0 6 -3 6 -6v-489c0 -3 -1 -7 -5 -11c-34 -42 -50 -81 -50 -113c0 -31 23 -48 61 -48c4 0 9 1 13 1s6 -2 6 -6
v-15c0 -6 -8 -8 -25 -8z" />
    <glyph glyph-name="j" unicode="j" horiz-adv-x="238" 
d="M139 579c-16 0 -27 11 -27 27s11 27 27 27s28 -11 28 -27c0 -15 -12 -27 -28 -27zM7 -205c-4 0 -7 3 -7 6v17c0 4 2 6 7 6h1c79 3 116 55 116 131v539c0 3 3 6 7 6h17c4 0 6 -3 6 -6v-539c0 -92 -50 -158 -146 -160h-1z" />
    <glyph glyph-name="k" unicode="k" horiz-adv-x="394" 
d="M209 278c84 -5 135 -58 135 -140v-131c0 -4 -2 -7 -6 -7h-17c-4 0 -7 3 -7 7v131c0 71 -43 114 -113 114h-99v-245c0 -4 -3 -7 -7 -7h-17c-4 0 -7 3 -7 7v687c0 3 3 6 7 6h17c4 0 7 -3 7 -6v-413h75l139 215c2 3 5 4 8 4h21c5 0 7 -4 4 -8z" />
    <glyph glyph-name="kcommaaccent" unicode="&#x137;" horiz-adv-x="394" 
d="M209 278c84 -5 135 -58 135 -140v-131c0 -4 -2 -7 -6 -7h-17c-4 0 -7 3 -7 7v131c0 71 -43 114 -113 114h-99v-245c0 -4 -3 -7 -7 -7h-17c-4 0 -7 3 -7 7v687c0 3 3 6 7 6h17c4 0 7 -3 7 -6v-413h75l139 215c2 3 5 4 8 4h21c5 0 7 -4 4 -8zM204 -71c0 5 3 7 7 7h26
c5 0 7 -2 6 -7l-23 -140c0 -4 -4 -6 -8 -6h-10c-4 0 -6 2 -6 6z" />
    <glyph glyph-name="l" unicode="l" horiz-adv-x="173" 
d="M78 0c-4 0 -7 3 -7 7v687c0 3 3 6 7 6h17c4 0 7 -3 7 -6v-687c0 -4 -3 -7 -7 -7h-17z" />
    <glyph glyph-name="lacute" unicode="&#x13a;" horiz-adv-x="180" 
d="M69 769c-5 0 -7 4 -4 8l71 90c2 3 6 4 8 4h23c6 0 8 -3 4 -8l-80 -90c-1 -3 -5 -4 -7 -4h-15zM78 0c-4 0 -7 3 -7 7v687c0 3 3 6 7 6h17c4 0 7 -3 7 -6v-687c0 -4 -3 -7 -7 -7h-17z" />
    <glyph glyph-name="lcaron" unicode="&#x13e;" horiz-adv-x="219" 
d="M167 567c-4 0 -6 2 -6 6l8 121c0 5 3 7 7 7h23c4 0 6 -2 5 -7l-18 -121c-1 -4 -4 -6 -8 -6h-11zM78 0c-4 0 -7 3 -7 7v687c0 3 3 6 7 6h18c4 0 6 -3 6 -6v-687c0 -4 -2 -7 -6 -7h-18z" />
    <glyph glyph-name="lcommaaccent" unicode="&#x13c;" horiz-adv-x="190" 
d="M80 0c-4 0 -7 3 -7 7v687c0 3 3 6 7 6h17c4 0 7 -3 7 -6v-687c0 -4 -3 -7 -7 -7h-17zM79 -71c0 5 3 7 7 7h26c5 0 7 -2 6 -7l-23 -140c0 -4 -4 -6 -8 -6h-10c-4 0 -6 2 -6 6z" />
    <glyph glyph-name="lslash" unicode="&#x142;" horiz-adv-x="196" 
d="M174 448c5 2 8 -1 8 -5v-18c0 -3 -3 -6 -6 -8l-59 -24v-386c0 -4 -3 -7 -7 -7h-17c-4 0 -7 3 -7 7v374l-63 -25c-5 -2 -8 1 -8 5v18c0 3 2 6 5 7l66 27v281c0 3 3 6 7 6h17c4 0 7 -3 7 -6v-269z" />
    <glyph glyph-name="m" unicode="m" horiz-adv-x="631" 
d="M434 508c85 0 135 -66 135 -151v-350c0 -4 -3 -7 -7 -7h-17c-4 0 -7 3 -7 7v350c0 69 -36 122 -104 122c-63 0 -103 -53 -103 -121v-351c0 -4 -3 -7 -7 -7h-17c-4 0 -7 3 -7 7v351c0 68 -41 121 -103 121c-69 0 -105 -53 -105 -122v-350c0 -4 -2 -7 -6 -7h-17
c-4 0 -7 3 -7 7v350c0 85 50 151 135 151c57 0 99 -35 119 -86c19 51 62 86 118 86z" />
    <glyph glyph-name="n" unicode="n" horiz-adv-x="404" 
d="M69 0c-4 0 -7 3 -7 7v342c0 93 50 159 140 159s140 -66 140 -159v-342c0 -4 -3 -7 -7 -7h-17c-4 0 -7 3 -7 7v342c0 77 -36 130 -109 130s-110 -53 -110 -130v-342c0 -4 -2 -7 -6 -7h-17z" />
    <glyph glyph-name="nacute" unicode="&#x144;" horiz-adv-x="404" 
d="M264 668c5 0 7 -4 4 -8l-68 -97c-2 -3 -6 -4 -9 -4h-14c-6 0 -7 3 -5 8l62 97c2 2 5 4 8 4h22zM69 0c-4 0 -7 3 -7 7v342c0 93 50 159 140 159s140 -66 140 -159v-342c0 -4 -3 -7 -7 -7h-17c-4 0 -7 3 -7 7v342c0 77 -36 130 -109 130s-110 -53 -110 -130v-342
c0 -4 -2 -7 -6 -7h-17z" />
    <glyph glyph-name="ncaron" unicode="&#x148;" horiz-adv-x="404" 
d="M113 668h16c3 0 6 -1 8 -4l65 -82l66 82c2 3 5 4 8 4h15c5 0 7 -4 4 -8l-72 -97c-2 -3 -5 -4 -8 -4h-25c-3 0 -6 1 -8 4l-72 97c-3 4 -2 8 3 8zM69 0c-4 0 -7 3 -7 7v342c0 93 50 159 140 159s140 -66 140 -159v-342c0 -4 -3 -7 -7 -7h-17c-4 0 -7 3 -7 7v342
c0 77 -36 130 -109 130s-110 -53 -110 -130v-342c0 -4 -2 -7 -6 -7h-17z" />
    <glyph glyph-name="ncommaaccent" unicode="&#x146;" horiz-adv-x="404" 
d="M69 0c-4 0 -7 3 -7 7v342c0 93 50 159 140 159s140 -66 140 -159v-342c0 -4 -3 -7 -7 -7h-17c-4 0 -7 3 -7 7v342c0 77 -36 130 -109 130s-110 -53 -110 -130v-342c0 -4 -2 -7 -6 -7h-17zM193 -71c0 5 3 7 7 7h26c5 0 7 -2 6 -7l-23 -140c0 -4 -4 -6 -8 -6h-10
c-4 0 -6 2 -6 6z" />
    <glyph glyph-name="eng" unicode="&#x14b;" horiz-adv-x="404" 
d="M197 -210c-4 0 -7 3 -7 7v16c0 4 3 6 7 6c70 2 114 57 114 124v409c0 74 -40 127 -110 127c-69 0 -109 -53 -109 -127v-345c0 -4 -2 -7 -6 -7h-17c-4 0 -7 3 -7 7v345c0 90 54 156 139 156c86 0 141 -66 141 -156v-409c0 -83 -58 -150 -145 -153z" />
    <glyph glyph-name="ntilde" unicode="&#xf1;" horiz-adv-x="404" 
d="M159 626c-17 0 -29 -14 -30 -39c0 -4 -3 -6 -7 -6h-15c-4 0 -7 2 -7 6c3 40 27 67 58 67c42 0 54 -47 84 -47c17 0 29 14 30 39c0 4 3 7 7 7h16c3 0 6 -3 6 -7c-3 -41 -27 -66 -58 -66c-40 0 -53 46 -84 46zM69 0c-4 0 -7 3 -7 7v342c0 93 50 159 140 159
s140 -66 140 -159v-342c0 -4 -3 -7 -7 -7h-17c-4 0 -7 3 -7 7v342c0 77 -36 130 -109 130s-110 -53 -110 -130v-342c0 -4 -2 -7 -6 -7h-17z" />
    <glyph glyph-name="o" unicode="o" horiz-adv-x="399" 
d="M200 -8c-91 0 -146 66 -146 154v208c0 88 55 154 146 154c90 0 145 -66 145 -154v-208c0 -88 -55 -154 -145 -154zM200 21c72 0 115 54 115 125v208c0 71 -43 125 -115 125s-115 -54 -115 -125v-208c0 -71 43 -125 115 -125z" />
    <glyph glyph-name="oacute" unicode="&#xf3;" horiz-adv-x="399" 
d="M262 668c5 0 7 -4 4 -8l-68 -97c-2 -3 -6 -4 -9 -4h-14c-6 0 -7 3 -5 8l62 97c2 2 5 4 8 4h22zM200 -8c-91 0 -146 66 -146 154v208c0 88 55 154 146 154c90 0 145 -66 145 -154v-208c0 -88 -55 -154 -145 -154zM200 21c72 0 115 54 115 125v208c0 71 -43 125 -115 125
s-115 -54 -115 -125v-208c0 -71 43 -125 115 -125z" />
    <glyph glyph-name="ocircumflex" unicode="&#xf4;" horiz-adv-x="399" 
d="M111 559c-5 0 -6 4 -3 8l72 97c2 3 5 4 8 4h25c3 0 6 -1 8 -4l72 -97c3 -4 1 -8 -4 -8h-15c-3 0 -6 1 -8 4l-66 82l-65 -82c-2 -3 -5 -4 -8 -4h-16zM200 -8c-91 0 -146 66 -146 154v208c0 88 55 154 146 154c90 0 145 -66 145 -154v-208c0 -88 -55 -154 -145 -154z
M200 21c72 0 115 54 115 125v208c0 71 -43 125 -115 125s-115 -54 -115 -125v-208c0 -71 43 -125 115 -125z" />
    <glyph glyph-name="odieresis" unicode="&#xf6;" horiz-adv-x="399" 
d="M152 580c-16 0 -27 11 -27 26c0 16 11 27 27 27c15 0 26 -11 26 -27c0 -15 -11 -26 -26 -26zM249 580c-16 0 -27 11 -27 26c0 16 11 27 27 27c15 0 26 -11 26 -27c0 -15 -11 -26 -26 -26zM200 -8c-91 0 -146 66 -146 154v208c0 88 55 154 146 154c90 0 145 -66 145 -154
v-208c0 -88 -55 -154 -145 -154zM200 21c72 0 115 54 115 125v208c0 71 -43 125 -115 125s-115 -54 -115 -125v-208c0 -71 43 -125 115 -125z" />
    <glyph glyph-name="ograve" unicode="&#xf2;" horiz-adv-x="399" 
d="M130 668h22c3 0 6 -2 8 -4l62 -97c2 -5 1 -8 -5 -8h-14c-3 0 -7 1 -9 4l-68 97c-3 4 -1 8 4 8zM200 -8c-91 0 -146 66 -146 154v208c0 88 55 154 146 154c90 0 145 -66 145 -154v-208c0 -88 -55 -154 -145 -154zM200 21c72 0 115 54 115 125v208c0 71 -43 125 -115 125
s-115 -54 -115 -125v-208c0 -71 43 -125 115 -125z" />
    <glyph glyph-name="ohungarumlaut" unicode="&#x151;" horiz-adv-x="399" 
d="M217 668c5 0 6 -4 4 -8l-69 -97c-2 -3 -6 -4 -9 -4h-13c-5 0 -7 3 -4 8l62 97c2 2 5 4 8 4h21zM314 668c5 0 7 -4 4 -8l-69 -97c-2 -3 -6 -4 -8 -4h-14c-5 0 -7 3 -4 8l63 97c1 2 4 4 7 4h21zM200 -8c-91 0 -146 66 -146 154v208c0 88 55 154 146 154
c90 0 145 -66 145 -154v-208c0 -88 -55 -154 -145 -154zM200 21c72 0 115 54 115 125v208c0 71 -43 125 -115 125s-115 -54 -115 -125v-208c0 -71 43 -125 115 -125z" />
    <glyph glyph-name="omacron" unicode="&#x14d;" horiz-adv-x="399" 
d="M123 619c0 4 3 6 7 6h141c4 0 6 -2 6 -6v-16c0 -3 -2 -6 -6 -6h-141c-4 0 -7 3 -7 6v16zM200 -8c-91 0 -146 66 -146 154v208c0 88 55 154 146 154c90 0 145 -66 145 -154v-208c0 -88 -55 -154 -145 -154zM200 21c72 0 115 54 115 125v208c0 71 -43 125 -115 125
s-115 -54 -115 -125v-208c0 -71 43 -125 115 -125z" />
    <glyph glyph-name="oslash" unicode="&#xf8;" horiz-adv-x="399" 
d="M266 494c50 -24 79 -76 79 -140v-208c0 -88 -55 -154 -145 -154c-26 0 -50 6 -70 16l-13 -48c-1 -3 -3 -5 -6 -5h-17c-4 0 -6 3 -5 7l17 61c-33 28 -52 72 -52 123v208c0 88 55 154 146 154c14 0 27 -2 39 -5l10 37c1 3 3 5 7 5h16c4 0 7 -3 6 -7zM85 146
c0 -35 11 -67 30 -89l116 418c-10 3 -20 4 -31 4c-72 0 -115 -54 -115 -125v-208zM315 146v208c0 49 -21 90 -57 111l-119 -428c17 -10 37 -16 61 -16c72 0 115 54 115 125z" />
    <glyph glyph-name="otilde" unicode="&#xf5;" horiz-adv-x="399" 
d="M157 626c-17 0 -29 -14 -30 -39c0 -4 -3 -6 -7 -6h-15c-4 0 -7 2 -7 6c3 40 27 67 58 67c42 0 54 -47 84 -47c17 0 29 14 30 39c0 4 3 7 7 7h16c3 0 6 -3 6 -7c-3 -41 -27 -66 -58 -66c-40 0 -53 46 -84 46zM200 -8c-91 0 -146 66 -146 154v208c0 88 55 154 146 154
c90 0 145 -66 145 -154v-208c0 -88 -55 -154 -145 -154zM200 21c72 0 115 54 115 125v208c0 71 -43 125 -115 125s-115 -54 -115 -125v-208c0 -71 43 -125 115 -125z" />
    <glyph glyph-name="oe" unicode="&#x153;" horiz-adv-x="622" 
d="M193 -8c-85 0 -139 65 -139 152v212c0 87 54 152 139 152c61 0 103 -33 123 -87c20 52 63 87 123 87c79 0 134 -65 134 -149c0 -87 -57 -148 -150 -148h-91v-67c0 -70 35 -123 105 -123c67 0 102 50 104 115c0 4 3 6 7 6h17c4 0 7 -2 7 -6c-3 -81 -50 -144 -135 -144
c-64 0 -103 37 -121 88c-21 -53 -63 -88 -123 -88zM193 21c66 0 109 53 109 130v198c0 77 -43 130 -109 130c-68 0 -108 -53 -108 -123v-212c0 -70 40 -123 108 -123zM332 241h91c78 0 119 47 119 118c0 68 -41 120 -103 120c-64 0 -107 -52 -107 -121v-117z" />
    <glyph glyph-name="p" unicode="p" horiz-adv-x="407" 
d="M207 508c85 0 146 -67 146 -152v-212c0 -85 -61 -152 -143 -152c-52 0 -95 28 -118 72v-258c0 -3 -2 -6 -6 -6h-17c-4 0 -7 3 -7 6v550c0 85 61 152 145 152zM322 144v212c0 69 -48 123 -115 123s-115 -54 -115 -123v-212c0 -69 48 -123 115 -123s115 54 115 123z" />
    <glyph glyph-name="thorn" unicode="&#xfe;" horiz-adv-x="420" 
d="M78 -200c-4 0 -7 3 -7 6v888c0 3 3 6 7 6h17c4 0 7 -3 7 -6v-254c24 41 67 68 117 68c83 0 147 -67 147 -152v-212c0 -85 -64 -152 -147 -152c-50 0 -93 27 -117 68v-254c0 -3 -3 -6 -7 -6h-17zM219 21c66 0 116 54 116 123v212c0 69 -50 123 -116 123
c-67 0 -117 -54 -117 -123v-212c0 -69 50 -123 117 -123z" />
    <glyph glyph-name="q" unicode="q" horiz-adv-x="407" 
d="M200 508c84 0 145 -67 145 -152v-550c0 -3 -3 -6 -7 -6h-17c-4 0 -6 3 -6 6v258c-23 -44 -66 -72 -118 -72c-82 0 -143 67 -143 152v212c0 85 61 152 146 152zM200 21c67 0 115 54 115 123v212c0 69 -48 123 -115 123s-115 -54 -115 -123v-212c0 -69 48 -123 115 -123z
" />
    <glyph glyph-name="r" unicode="r" horiz-adv-x="273" 
d="M69 0c-4 0 -7 3 -7 7v339c0 93 65 156 152 156h34c4 0 7 -2 7 -6v-16c0 -4 -3 -7 -7 -7h-34c-71 0 -122 -50 -122 -127v-339c0 -4 -2 -7 -6 -7h-17z" />
    <glyph glyph-name="racute" unicode="&#x155;" horiz-adv-x="273" 
d="M230 668c5 0 7 -4 4 -8l-68 -97c-2 -3 -6 -4 -9 -4h-14c-6 0 -7 3 -5 8l62 97c2 2 5 4 8 4h22zM69 0c-4 0 -7 3 -7 7v339c0 93 65 156 152 156h34c4 0 7 -2 7 -6v-16c0 -4 -3 -7 -7 -7h-34c-71 0 -122 -50 -122 -127v-339c0 -4 -2 -7 -6 -7h-17z" />
    <glyph glyph-name="rcaron" unicode="&#x159;" horiz-adv-x="273" 
d="M79 668h16c3 0 6 -1 8 -4l65 -82l66 82c2 3 5 4 8 4h15c5 0 7 -4 4 -8l-72 -97c-2 -3 -5 -4 -8 -4h-25c-3 0 -6 1 -8 4l-72 97c-3 4 -2 8 3 8zM69 0c-4 0 -7 3 -7 7v339c0 93 65 156 152 156h34c4 0 7 -2 7 -6v-16c0 -4 -3 -7 -7 -7h-34c-71 0 -122 -50 -122 -127v-339
c0 -4 -2 -7 -6 -7h-17z" />
    <glyph glyph-name="rcommaaccent" unicode="&#x157;" horiz-adv-x="273" 
d="M69 0c-4 0 -7 3 -7 7v339c0 93 65 156 152 156h34c4 0 7 -2 7 -6v-16c0 -4 -3 -7 -7 -7h-34c-71 0 -122 -50 -122 -127v-339c0 -4 -2 -7 -6 -7h-17zM64 -71c0 5 3 7 7 7h26c5 0 7 -2 6 -7l-23 -140c0 -4 -4 -6 -8 -6h-10c-4 0 -6 2 -6 6z" />
    <glyph glyph-name="s" unicode="s" horiz-adv-x="381" 
d="M196 -8c-89 0 -146 53 -149 147c0 4 3 6 7 6h17c4 0 7 -2 7 -6c2 -80 45 -118 118 -118c61 0 107 39 107 99c0 143 -254 91 -254 261c0 73 58 127 137 127c85 0 137 -52 139 -133c0 -4 -2 -7 -6 -7h-17c-4 0 -7 3 -7 7c-2 65 -42 104 -108 104c-61 0 -107 -39 -107 -98
c0 -143 254 -91 254 -261c0 -74 -61 -128 -138 -128z" />
    <glyph glyph-name="sacute" unicode="&#x15b;" horiz-adv-x="381" 
d="M253 668c5 0 7 -4 4 -8l-68 -97c-2 -3 -6 -4 -9 -4h-14c-6 0 -7 3 -5 8l62 97c2 2 5 4 8 4h22zM196 -8c-89 0 -146 53 -149 147c0 4 3 6 7 6h17c4 0 7 -2 7 -6c2 -80 45 -118 118 -118c61 0 107 39 107 99c0 143 -254 91 -254 261c0 73 58 127 137 127
c85 0 137 -52 139 -133c0 -4 -2 -7 -6 -7h-17c-4 0 -7 3 -7 7c-2 65 -42 104 -108 104c-61 0 -107 -39 -107 -98c0 -143 254 -91 254 -261c0 -74 -61 -128 -138 -128z" />
    <glyph glyph-name="scaron" unicode="&#x161;" horiz-adv-x="381" 
d="M102 668h16c3 0 6 -1 8 -4l65 -82l66 82c2 3 5 4 8 4h15c5 0 7 -4 4 -8l-72 -97c-2 -3 -5 -4 -8 -4h-25c-3 0 -6 1 -8 4l-72 97c-3 4 -2 8 3 8zM196 -8c-89 0 -146 53 -149 147c0 4 3 6 7 6h17c4 0 7 -2 7 -6c2 -80 45 -118 118 -118c61 0 107 39 107 99
c0 143 -254 91 -254 261c0 73 58 127 137 127c85 0 137 -52 139 -133c0 -4 -2 -7 -6 -7h-17c-4 0 -7 3 -7 7c-2 65 -42 104 -108 104c-61 0 -107 -39 -107 -98c0 -143 254 -91 254 -261c0 -74 -61 -128 -138 -128z" />
    <glyph glyph-name="scedilla" unicode="&#x15f;" horiz-adv-x="381" 
d="M196 -8h-2l-9 -48c5 1 13 2 20 2c42 -1 71 -29 71 -69c0 -45 -34 -72 -82 -72c-47 0 -79 26 -83 67c0 4 3 7 7 7h14c3 0 6 -2 6 -6c3 -26 25 -42 56 -42s54 17 54 46c0 27 -20 46 -46 46c-12 0 -26 -3 -38 -7c-2 -1 -4 0 -6 2l-1 1c-2 2 -3 3 -2 6l13 69
c-73 10 -118 61 -121 145c0 4 3 6 7 6h17c4 0 7 -2 7 -6c2 -80 45 -118 118 -118c61 0 107 39 107 99c0 143 -254 91 -254 261c0 73 58 127 137 127c85 0 137 -52 139 -133c0 -4 -2 -7 -6 -7h-17c-4 0 -7 3 -7 7c-2 65 -42 104 -108 104c-61 0 -107 -39 -107 -98
c0 -143 254 -91 254 -261c0 -74 -61 -128 -138 -128z" />
    <glyph glyph-name="scommaaccent" unicode="&#x219;" horiz-adv-x="381" 
d="M196 -8c-89 0 -146 53 -149 147c0 4 3 6 7 6h17c4 0 7 -2 7 -6c2 -80 45 -118 118 -118c61 0 107 39 107 99c0 143 -254 91 -254 261c0 73 58 127 137 127c85 0 137 -52 139 -133c0 -4 -2 -7 -6 -7h-17c-4 0 -7 3 -7 7c-2 65 -42 104 -108 104c-61 0 -107 -39 -107 -98
c0 -143 254 -91 254 -261c0 -74 -61 -128 -138 -128zM185 -71c0 5 3 7 7 7h26c5 0 7 -2 6 -7l-23 -140c0 -4 -4 -6 -8 -6h-10c-4 0 -6 2 -6 6z" />
    <glyph glyph-name="germandbls" unicode="&#xdf;" horiz-adv-x="391" 
d="M76 0c-4 0 -7 3 -7 7v555c0 90 50 146 126 146c78 0 130 -56 130 -146v-74c0 -59 -33 -101 -85 -115c63 -21 105 -71 105 -145v-87c0 -83 -52 -141 -130 -141h-79c-3 0 -6 3 -6 7v16c0 4 3 7 6 7h79c59 0 98 45 98 111v87c0 80 -49 128 -126 128h-51c-3 0 -6 2 -6 6v16
c0 4 3 7 6 7h46c68 0 112 40 112 103l1 74c0 73 -39 116 -100 116c-58 0 -95 -43 -95 -116l-1 -555c0 -5 -2 -7 -6 -7h-17z" />
    <glyph glyph-name="t" unicode="t" horiz-adv-x="268" 
d="M236 27c4 0 7 -2 7 -6v-16c0 -4 -3 -7 -7 -7h-14c-84 0 -130 54 -130 154v319h-68c-4 0 -6 3 -6 7v16c0 3 2 6 6 6h68v134c0 3 2 6 6 6h18c4 0 6 -3 6 -6v-134h104c4 0 7 -3 7 -6v-16c0 -4 -3 -7 -7 -7h-104v-319c0 -82 35 -125 100 -125h14z" />
    <glyph glyph-name="tbar" unicode="&#x167;" horiz-adv-x="268" 
d="M236 25c4 0 7 -3 7 -7v-16c0 -4 -3 -6 -7 -6h-4c-88 0 -140 65 -140 162v131h-54c-4 0 -7 3 -7 7v13c0 4 3 6 7 6h54v156h-68c-4 0 -6 3 -6 7v16c0 3 2 6 6 6h68v134c0 3 2 6 6 6h18c4 0 6 -3 6 -6v-134h104c4 0 7 -3 7 -6v-16c0 -4 -3 -7 -7 -7h-104v-156h90
c4 0 7 -2 7 -6v-13c0 -4 -3 -7 -7 -7h-90v-131c0 -80 39 -133 110 -133h4z" />
    <glyph glyph-name="tcaron" unicode="&#x165;" horiz-adv-x="268" 
d="M177 542c-3 0 -6 2 -6 7l9 121c0 5 3 7 7 7h22c4 0 6 -3 5 -7l-19 -121c0 -4 -4 -7 -7 -7h-11zM236 27c4 0 7 -2 7 -6v-16c0 -4 -3 -7 -7 -7h-14c-84 0 -130 54 -130 154v319h-68c-4 0 -6 3 -6 7v16c0 3 2 6 6 6h68v134c0 3 2 6 6 6h18c4 0 6 -3 6 -6v-134h104
c4 0 7 -3 7 -6v-16c0 -4 -3 -7 -7 -7h-104v-319c0 -82 35 -125 100 -125h14z" />
    <glyph glyph-name="uni0163" unicode="&#x163;" horiz-adv-x="268" 
d="M236 27c4 0 7 -2 7 -6v-16c0 -4 -3 -7 -7 -7h-14c-84 0 -130 54 -130 154v319h-68c-4 0 -6 3 -6 7v16c0 3 2 6 6 6h68v134c0 3 2 6 6 6h18c4 0 6 -3 6 -6v-134h104c4 0 7 -3 7 -6v-16c0 -4 -3 -7 -7 -7h-104v-319c0 -82 35 -125 100 -125h14zM160 -64c5 0 7 -2 6 -7
l-23 -140c0 -4 -4 -6 -8 -6h-10c-4 0 -6 2 -6 6l8 140c0 5 3 7 7 7h26z" />
    <glyph glyph-name="uni021B" unicode="&#x21b;" horiz-adv-x="268" 
d="M236 27c4 0 7 -2 7 -6v-16c0 -4 -3 -7 -7 -7h-14c-84 0 -130 54 -130 154v319h-68c-4 0 -6 3 -6 7v16c0 3 2 6 6 6h68v134c0 3 2 6 6 6h18c4 0 6 -3 6 -6v-134h104c4 0 7 -3 7 -6v-16c0 -4 -3 -7 -7 -7h-104v-319c0 -82 35 -125 100 -125h14zM153 -64c5 0 7 -2 6 -7
l-23 -140c0 -4 -4 -6 -8 -6h-10c-4 0 -6 2 -6 6l8 140c0 5 3 7 7 7h26z" />
    <glyph glyph-name="u" unicode="u" horiz-adv-x="404" 
d="M69 500h17c4 0 6 -3 6 -7v-342c0 -77 37 -130 110 -130s109 53 109 130v342c0 4 3 7 7 7h17c4 0 7 -3 7 -7v-342c0 -93 -50 -159 -140 -159s-140 66 -140 159v342c0 4 3 7 7 7z" />
    <glyph glyph-name="uacute" unicode="&#xfa;" horiz-adv-x="404" 
d="M263 668c5 0 7 -4 4 -8l-68 -97c-2 -3 -6 -4 -9 -4h-14c-6 0 -7 3 -5 8l62 97c2 2 5 4 8 4h22zM69 500h17c4 0 6 -3 6 -7v-342c0 -77 37 -130 110 -130s109 53 109 130v342c0 4 3 7 7 7h17c4 0 7 -3 7 -7v-342c0 -93 -50 -159 -140 -159s-140 66 -140 159v342
c0 4 3 7 7 7z" />
    <glyph glyph-name="ucircumflex" unicode="&#xfb;" horiz-adv-x="404" 
d="M112 559c-5 0 -6 4 -3 8l72 97c2 3 5 4 8 4h25c3 0 6 -1 8 -4l72 -97c3 -4 1 -8 -4 -8h-15c-3 0 -6 1 -8 4l-66 82l-65 -82c-2 -3 -5 -4 -8 -4h-16zM69 500h17c4 0 6 -3 6 -7v-342c0 -77 37 -130 110 -130s109 53 109 130v342c0 4 3 7 7 7h17c4 0 7 -3 7 -7v-342
c0 -93 -50 -159 -140 -159s-140 66 -140 159v342c0 4 3 7 7 7z" />
    <glyph glyph-name="udieresis" unicode="&#xfc;" horiz-adv-x="404" 
d="M153 580c-16 0 -27 11 -27 26c0 16 11 27 27 27c15 0 26 -11 26 -27c0 -15 -11 -26 -26 -26zM250 580c-16 0 -27 11 -27 26c0 16 11 27 27 27c15 0 26 -11 26 -27c0 -15 -11 -26 -26 -26zM69 500h17c4 0 6 -3 6 -7v-342c0 -77 37 -130 110 -130s109 53 109 130v342
c0 4 3 7 7 7h17c4 0 7 -3 7 -7v-342c0 -93 -50 -159 -140 -159s-140 66 -140 159v342c0 4 3 7 7 7z" />
    <glyph glyph-name="ugrave" unicode="&#xf9;" horiz-adv-x="404" 
d="M131 668h22c3 0 6 -2 8 -4l62 -97c2 -5 1 -8 -5 -8h-14c-3 0 -7 1 -9 4l-68 97c-3 4 -1 8 4 8zM69 500h17c4 0 6 -3 6 -7v-342c0 -77 37 -130 110 -130s109 53 109 130v342c0 4 3 7 7 7h17c4 0 7 -3 7 -7v-342c0 -93 -50 -159 -140 -159s-140 66 -140 159v342
c0 4 3 7 7 7z" />
    <glyph glyph-name="uhungarumlaut" unicode="&#x171;" horiz-adv-x="404" 
d="M218 668c5 0 6 -4 4 -8l-69 -97c-2 -3 -6 -4 -9 -4h-13c-5 0 -7 3 -4 8l62 97c2 2 5 4 8 4h21zM315 668c5 0 7 -4 4 -8l-69 -97c-2 -3 -6 -4 -8 -4h-14c-5 0 -7 3 -4 8l63 97c1 2 4 4 7 4h21zM69 500h17c4 0 6 -3 6 -7v-342c0 -77 37 -130 110 -130s109 53 109 130v342
c0 4 3 7 7 7h17c4 0 7 -3 7 -7v-342c0 -93 -50 -159 -140 -159s-140 66 -140 159v342c0 4 3 7 7 7z" />
    <glyph glyph-name="umacron" unicode="&#x16b;" horiz-adv-x="404" 
d="M124 619c0 4 3 6 7 6h141c4 0 6 -2 6 -6v-16c0 -3 -2 -6 -6 -6h-141c-4 0 -7 3 -7 6v16zM69 500h17c4 0 6 -3 6 -7v-342c0 -77 37 -130 110 -130s109 53 109 130v342c0 4 3 7 7 7h17c4 0 7 -3 7 -7v-342c0 -93 -50 -159 -140 -159s-140 66 -140 159v342c0 4 3 7 7 7z" />
    <glyph glyph-name="uogonek" unicode="&#x173;" horiz-adv-x="404" 
d="M288 -194c-55 -4 -106 18 -106 70c0 37 24 83 58 121c-8 -3 -24 -5 -38 -5c-88 0 -140 66 -140 157v345c0 3 3 6 7 6h17c4 0 6 -3 6 -6v-345c0 -75 39 -128 110 -128c72 0 110 53 110 128v345c0 3 3 6 7 6h17c4 0 6 -3 6 -6v-345c0 -54 -21 -96 -52 -126
c-52 -51 -77 -99 -77 -138c0 -43 40 -51 74 -50c4 0 7 -2 7 -5v-18c0 -3 -3 -6 -6 -6z" />
    <glyph glyph-name="uring" unicode="&#x16f;" horiz-adv-x="404" 
d="M136 615c0 37 26 61 65 61c38 0 64 -24 64 -61c0 -38 -26 -64 -64 -64c-39 0 -65 26 -65 64zM161 614c0 -25 15 -40 40 -40c24 0 39 15 39 40c0 24 -15 39 -39 39c-25 0 -40 -15 -40 -39zM69 500h17c4 0 6 -3 6 -7v-342c0 -77 37 -130 110 -130s109 53 109 130v342
c0 4 3 7 7 7h17c4 0 7 -3 7 -7v-342c0 -93 -50 -159 -140 -159s-140 66 -140 159v342c0 4 3 7 7 7z" />
    <glyph glyph-name="v" unicode="v" horiz-adv-x="345" 
d="M297 495c1 3 3 5 7 5h18c4 0 6 -3 5 -8l-129 -480c-2 -9 -9 -14 -18 -14h-15c-10 0 -15 5 -18 14l-129 480c-1 5 1 8 5 8h18c4 0 7 -2 7 -5l124 -469z" />
    <glyph glyph-name="w" unicode="w" horiz-adv-x="631" 
d="M434 -8c-56 0 -99 35 -118 86c-20 -51 -62 -86 -119 -86c-85 0 -135 66 -135 151v350c0 4 3 7 7 7h17c4 0 6 -3 6 -7v-350c0 -69 36 -122 105 -122c62 0 103 53 103 121v351c0 4 3 7 7 7h17c4 0 7 -3 7 -7v-351c0 -68 40 -121 103 -121c68 0 104 53 104 122v350
c0 4 3 7 7 7h17c4 0 7 -3 7 -7v-350c0 -85 -50 -151 -135 -151z" />
    <glyph glyph-name="wacute" unicode="&#x1e83;" horiz-adv-x="631" 
d="M370 668c5 0 7 -4 4 -8l-68 -97c-2 -3 -6 -4 -9 -4h-14c-6 0 -7 3 -5 8l62 97c2 2 5 4 8 4h22zM434 -8c-56 0 -99 35 -118 86c-20 -51 -62 -86 -119 -86c-85 0 -135 66 -135 151v350c0 4 3 7 7 7h17c4 0 6 -3 6 -7v-350c0 -69 36 -122 105 -122c62 0 103 53 103 121v351
c0 4 3 7 7 7h17c4 0 7 -3 7 -7v-351c0 -68 40 -121 103 -121c68 0 104 53 104 122v350c0 4 3 7 7 7h17c4 0 7 -3 7 -7v-350c0 -85 -50 -151 -135 -151z" />
    <glyph glyph-name="wcircumflex" unicode="&#x175;" horiz-adv-x="631" 
d="M219 559c-5 0 -6 4 -3 8l72 97c2 3 5 4 8 4h25c3 0 6 -1 8 -4l72 -97c3 -4 1 -8 -4 -8h-15c-3 0 -6 1 -8 4l-66 82l-65 -82c-2 -3 -5 -4 -8 -4h-16zM434 -8c-56 0 -99 35 -118 86c-20 -51 -62 -86 -119 -86c-85 0 -135 66 -135 151v350c0 4 3 7 7 7h17c4 0 6 -3 6 -7
v-350c0 -69 36 -122 105 -122c62 0 103 53 103 121v351c0 4 3 7 7 7h17c4 0 7 -3 7 -7v-351c0 -68 40 -121 103 -121c68 0 104 53 104 122v350c0 4 3 7 7 7h17c4 0 7 -3 7 -7v-350c0 -85 -50 -151 -135 -151z" />
    <glyph glyph-name="wdieresis" unicode="&#x1e85;" horiz-adv-x="631" 
d="M260 580c-16 0 -27 11 -27 26c0 16 11 27 27 27c15 0 26 -11 26 -27c0 -15 -11 -26 -26 -26zM357 580c-16 0 -27 11 -27 26c0 16 11 27 27 27c15 0 26 -11 26 -27c0 -15 -11 -26 -26 -26zM434 -8c-56 0 -99 35 -118 86c-20 -51 -62 -86 -119 -86c-85 0 -135 66 -135 151
v350c0 4 3 7 7 7h17c4 0 6 -3 6 -7v-350c0 -69 36 -122 105 -122c62 0 103 53 103 121v351c0 4 3 7 7 7h17c4 0 7 -3 7 -7v-351c0 -68 40 -121 103 -121c68 0 104 53 104 122v350c0 4 3 7 7 7h17c4 0 7 -3 7 -7v-350c0 -85 -50 -151 -135 -151z" />
    <glyph glyph-name="wgrave" unicode="&#x1e81;" horiz-adv-x="631" 
d="M238 668h22c3 0 6 -2 8 -4l62 -97c2 -5 1 -8 -5 -8h-14c-3 0 -7 1 -9 4l-68 97c-3 4 -1 8 4 8zM434 -8c-56 0 -99 35 -118 86c-20 -51 -62 -86 -119 -86c-85 0 -135 66 -135 151v350c0 4 3 7 7 7h17c4 0 6 -3 6 -7v-350c0 -69 36 -122 105 -122c62 0 103 53 103 121v351
c0 4 3 7 7 7h17c4 0 7 -3 7 -7v-351c0 -68 40 -121 103 -121c68 0 104 53 104 122v350c0 4 3 7 7 7h17c4 0 7 -3 7 -7v-350c0 -85 -50 -151 -135 -151z" />
    <glyph glyph-name="x" unicode="x" horiz-adv-x="389" 
d="M61 0c-4 0 -7 3 -7 7v106c0 66 34 116 87 137c-53 21 -87 72 -87 138v106c0 3 3 6 7 6h18c4 0 6 -3 6 -6v-106c0 -74 50 -123 110 -123c64 0 109 49 109 123v106c0 3 3 6 7 6h18c4 0 6 -3 6 -6v-106c0 -66 -33 -117 -87 -138c54 -21 87 -71 87 -137v-106
c0 -4 -2 -7 -6 -7h-18c-4 0 -7 3 -7 7v106c0 73 -50 123 -109 123c-64 0 -110 -50 -110 -123v-106c0 -4 -2 -7 -6 -7h-18z" />
    <glyph glyph-name="y" unicode="y" horiz-adv-x="415" 
d="M337 500c4 0 7 -3 7 -6v-552c0 -86 -55 -152 -141 -152c-84 0 -138 63 -141 147c0 3 3 6 7 6h17c4 0 6 -2 6 -6c2 -68 43 -118 111 -118c70 0 110 53 110 123v128c-22 -41 -61 -67 -110 -67c-86 0 -141 66 -141 156v335c0 3 3 6 7 6h17c4 0 6 -3 6 -6v-335
c0 -74 42 -127 111 -127s110 53 110 127v335c0 3 3 6 7 6h17z" />
    <glyph glyph-name="yacute" unicode="&#xfd;" horiz-adv-x="415" 
d="M181 559c-6 0 -7 3 -5 8l62 97c2 2 5 4 8 4h22c5 0 7 -4 4 -8l-68 -97c-2 -3 -6 -4 -9 -4h-14zM337 500c4 0 7 -3 7 -6v-552c0 -86 -55 -152 -141 -152c-84 0 -138 63 -141 147c0 3 3 6 7 6h17c4 0 6 -2 6 -6c2 -68 43 -118 111 -118c70 0 110 53 110 123v128
c-22 -41 -61 -67 -110 -67c-86 0 -141 66 -141 156v335c0 3 3 6 7 6h17c4 0 6 -3 6 -6v-335c0 -74 42 -127 111 -127s110 53 110 127v335c0 3 3 6 7 6h17z" />
    <glyph glyph-name="ycircumflex" unicode="&#x177;" horiz-adv-x="415" 
d="M117 559c-5 0 -6 4 -3 8l72 97c2 3 5 4 8 4h25c3 0 6 -1 8 -4l72 -97c3 -4 1 -8 -4 -8h-15c-3 0 -6 1 -8 4l-66 82l-65 -82c-2 -3 -5 -4 -8 -4h-16zM337 500c4 0 7 -3 7 -6v-552c0 -86 -55 -152 -141 -152c-84 0 -138 63 -141 147c0 3 3 6 7 6h17c4 0 6 -2 6 -6
c2 -68 43 -118 111 -118c70 0 110 53 110 123v128c-22 -41 -61 -67 -110 -67c-86 0 -141 66 -141 156v335c0 3 3 6 7 6h17c4 0 6 -3 6 -6v-335c0 -74 42 -127 111 -127s110 53 110 127v335c0 3 3 6 7 6h17z" />
    <glyph glyph-name="ydieresis" unicode="&#xff;" horiz-adv-x="415" 
d="M158 580c-16 0 -27 11 -27 26c0 16 11 27 27 27c15 0 26 -11 26 -27c0 -15 -11 -26 -26 -26zM255 580c-16 0 -27 11 -27 26c0 16 11 27 27 27c15 0 26 -11 26 -27c0 -15 -11 -26 -26 -26zM337 500c4 0 7 -3 7 -6v-552c0 -86 -55 -152 -141 -152c-84 0 -138 63 -141 147
c0 3 3 6 7 6h17c4 0 6 -2 6 -6c2 -68 43 -118 111 -118c70 0 110 53 110 123v128c-22 -41 -61 -67 -110 -67c-86 0 -141 66 -141 156v335c0 3 3 6 7 6h17c4 0 6 -3 6 -6v-335c0 -74 42 -127 111 -127s110 53 110 127v335c0 3 3 6 7 6h17z" />
    <glyph glyph-name="ygrave" unicode="&#x1ef3;" horiz-adv-x="415" 
d="M200 563l-68 97c-3 4 -1 8 4 8h22c3 0 6 -2 8 -4l62 -97c2 -5 1 -8 -5 -8h-14c-3 0 -7 1 -9 4zM337 500c4 0 7 -3 7 -6v-552c0 -86 -55 -152 -141 -152c-84 0 -138 63 -141 147c0 3 3 6 7 6h17c4 0 6 -2 6 -6c2 -68 43 -118 111 -118c70 0 110 53 110 123v128
c-22 -41 -61 -67 -110 -67c-86 0 -141 66 -141 156v335c0 3 3 6 7 6h17c4 0 6 -3 6 -6v-335c0 -74 42 -127 111 -127s110 53 110 127v335c0 3 3 6 7 6h17z" />
    <glyph glyph-name="z" unicode="z" horiz-adv-x="357" 
d="M76 29h230c4 0 6 -2 6 -6v-16c0 -4 -2 -7 -6 -7h-247c-8 0 -14 6 -14 14v11c0 6 0 11 4 18l234 428h-223c-4 0 -7 2 -7 6v17c0 3 3 6 7 6h238c9 0 14 -5 14 -14v-12c0 -6 0 -11 -4 -18z" />
    <glyph glyph-name="zacute" unicode="&#x17a;" horiz-adv-x="357" 
d="M244 668c5 0 7 -4 4 -8l-68 -97c-2 -3 -6 -4 -9 -4h-14c-6 0 -7 3 -5 8l62 97c2 2 5 4 8 4h22zM76 29h230c4 0 6 -2 6 -6v-16c0 -4 -2 -7 -6 -7h-247c-8 0 -14 6 -14 14v11c0 6 0 11 4 18l234 428h-223c-4 0 -7 2 -7 6v17c0 3 3 6 7 6h238c9 0 14 -5 14 -14v-12
c0 -6 0 -11 -4 -18z" />
    <glyph glyph-name="zcaron" unicode="&#x17e;" horiz-adv-x="357" 
d="M93 668h16c3 0 6 -1 8 -4l65 -82l66 82c2 3 5 4 8 4h15c5 0 7 -4 4 -8l-72 -97c-2 -3 -5 -4 -8 -4h-25c-3 0 -6 1 -8 4l-72 97c-3 4 -2 8 3 8zM76 29h230c4 0 6 -2 6 -6v-16c0 -4 -2 -7 -6 -7h-247c-8 0 -14 6 -14 14v11c0 6 0 11 4 18l234 428h-223c-4 0 -7 2 -7 6v17
c0 3 3 6 7 6h238c9 0 14 -5 14 -14v-12c0 -6 0 -11 -4 -18z" />
    <glyph glyph-name="zdotaccent" unicode="&#x17c;" horiz-adv-x="357" 
d="M182 579c-16 0 -27 11 -27 27s11 27 27 27s27 -11 27 -27c0 -15 -11 -27 -27 -27zM76 29h230c4 0 6 -2 6 -6v-16c0 -4 -2 -7 -6 -7h-247c-8 0 -14 6 -14 14v11c0 6 0 11 4 18l234 428h-223c-4 0 -7 2 -7 6v17c0 3 3 6 7 6h238c9 0 14 -5 14 -14v-12c0 -6 0 -11 -4 -18z
" />
    <glyph glyph-name="uni0163.ss01" horiz-adv-x="273" 
d="M176 -54c42 -1 71 -29 71 -69c0 -45 -34 -72 -82 -72c-46 0 -79 26 -82 67c-1 4 2 7 6 7h14c4 0 6 -2 6 -6c4 -26 25 -42 56 -42c32 0 55 17 55 46c0 27 -21 46 -47 46c-12 0 -25 -3 -37 -7c-3 -1 -4 0 -6 2l-2 1c-2 2 -2 3 -2 6l17 94c-33 25 -51 69 -51 131v321h-68
c-4 0 -6 3 -6 7v16c0 3 2 6 6 6h68v134c0 3 2 6 6 6h18c4 0 6 -3 6 -6v-134h104c4 0 7 -3 7 -6v-16c0 -4 -3 -7 -7 -7h-104v-321c0 -82 35 -125 100 -125h14c4 0 7 -3 7 -7v-16c0 -4 -3 -6 -7 -6h-14c-21 0 -40 3 -56 10l-10 -62c6 1 14 2 20 2z" />
    <glyph glyph-name="uni0410" unicode="&#x410;" horiz-adv-x="453" 
d="M76 0c-4 0 -7 3 -7 7v524c0 106 63 177 157 177s158 -71 158 -177v-524c1 -4 -2 -7 -5 -7h-19c-4 0 -7 3 -8 7v263h-251v-263c0 -4 -3 -7 -6 -7h-19zM101 300h251v231c0 90 -47 147 -126 147c-76 0 -125 -57 -125 -147v-231z" />
    <glyph glyph-name="uni0411" unicode="&#x411;" horiz-adv-x="421" 
d="M85 -2c-9 0 -16 7 -16 16v524c0 97 61 164 150 164h126c4 0 7 -3 7 -6v-18c0 -3 -3 -6 -7 -6h-126c-73 0 -118 -51 -118 -134v-146h125c89 0 156 -68 156 -159v-75c0 -88 -67 -160 -156 -160h-141zM101 28h125c71 0 124 57 124 130v75c0 75 -53 129 -124 129h-125v-334z
" />
    <glyph glyph-name="uni0412" unicode="&#x412;" horiz-adv-x="430" 
d="M285 361c61 -19 99 -73 99 -145v-59c0 -95 -63 -159 -156 -159h-143c-10 0 -16 6 -16 16v532c0 97 59 162 148 162s149 -65 149 -162v-43c0 -70 -32 -122 -81 -142zM101 546v-172h122c68 0 111 51 111 129v43c0 80 -46 132 -117 132c-70 0 -116 -52 -116 -132zM352 157
v59c0 77 -49 128 -124 128h-127v-316h127c75 0 124 51 124 129z" />
    <glyph glyph-name="uni0413" unicode="&#x413;" horiz-adv-x="350" 
d="M76 0c-4 0 -7 3 -7 7v532c0 98 60 163 152 163h97c4 0 7 -3 7 -6v-18c0 -3 -3 -6 -7 -6h-97c-73 0 -120 -52 -120 -133v-532c0 -4 -3 -7 -6 -7h-19z" />
    <glyph glyph-name="uni0403" unicode="&#x403;" horiz-adv-x="350" 
d="M188 769c-5 0 -7 4 -4 8l71 90c2 3 6 4 8 4h23c6 0 8 -3 4 -8l-80 -90c-1 -3 -5 -4 -7 -4h-15zM76 0c-4 0 -7 3 -7 7v532c0 98 60 163 152 163h97c4 0 7 -3 7 -6v-18c0 -3 -3 -6 -7 -6h-97c-73 0 -120 -52 -120 -133v-532c0 -4 -3 -7 -6 -7h-19z" />
    <glyph glyph-name="uni0490" unicode="&#x490;" horiz-adv-x="343" 
d="M311 782c4 0 7 -3 7 -7v-96c0 -4 -3 -7 -7 -7h-90c-75 0 -120 -50 -120 -133v-532c0 -4 -3 -7 -6 -7h-19c-4 0 -7 3 -7 7v532c0 98 59 163 152 163h66v73c0 4 3 7 7 7h17z" />
    <glyph glyph-name="uni0414" unicode="&#x414;" horiz-adv-x="475" 
d="M31 -106c-4 0 -6 2 -6 6v110c0 13 7 19 20 22c46 10 69 52 69 120v387c0 100 58 163 151 163h93c19 0 29 -10 29 -29v-643h33c19 0 29 -10 29 -29v-101c0 -4 -2 -6 -6 -6h-18c-4 0 -6 2 -6 6v100h-364v-100c0 -4 -2 -6 -6 -6h-18zM98 30h257v642h-90
c-74 0 -119 -51 -119 -133v-387c0 -58 -16 -98 -48 -122z" />
    <glyph glyph-name="uni0415" unicode="&#x415;" horiz-adv-x="359" 
d="M215 -2c-96 0 -157 72 -157 167v370c0 96 61 167 157 167h95c4 0 6 -3 6 -6v-18c0 -3 -2 -6 -6 -6h-95c-77 0 -125 -57 -125 -137v-164h199c3 0 6 -2 6 -6v-17c0 -4 -3 -7 -6 -7h-199v-176c0 -80 48 -137 125 -137h95c4 0 6 -2 6 -6v-17c0 -4 -2 -7 -6 -7h-95z" />
    <glyph glyph-name="uni0401" unicode="&#x401;" horiz-adv-x="359" 
d="M139 797c-16 0 -27 11 -27 26c0 16 11 27 27 27c15 0 26 -11 26 -27c0 -15 -11 -26 -26 -26zM236 797c-16 0 -27 11 -27 26c0 16 11 27 27 27c15 0 26 -11 26 -27c0 -15 -11 -26 -26 -26zM215 -2c-96 0 -157 72 -157 167v370c0 96 61 167 157 167h95c4 0 6 -3 6 -6v-18
c0 -3 -2 -6 -6 -6h-95c-77 0 -125 -57 -125 -137v-164h199c3 0 6 -2 6 -6v-17c0 -4 -3 -7 -6 -7h-199v-176c0 -80 48 -137 125 -137h95c4 0 6 -2 6 -6v-17c0 -4 -2 -7 -6 -7h-95z" />
    <glyph glyph-name="uni0416" unicode="&#x416;" horiz-adv-x="683" 
d="M75 0c-4 0 -6 3 -6 7v201c0 80 53 147 125 162l-136 323c-1 4 1 7 5 7h20c3 0 6 -2 7 -5l135 -321h101v320c0 3 2 6 6 6h19c4 0 7 -3 7 -6v-320h101l134 321c1 3 5 5 8 5h19c5 0 6 -3 5 -7l-136 -323c72 -15 126 -82 126 -162v-201c0 -4 -3 -7 -7 -7h-19c-4 0 -6 3 -6 7
v201c0 75 -55 136 -125 136h-100v-337c0 -4 -3 -7 -7 -7h-19c-4 0 -6 3 -6 7v337h-101c-69 0 -124 -61 -124 -136v-201c0 -4 -3 -7 -7 -7h-19z" />
    <glyph glyph-name="uni0417" unicode="&#x417;" horiz-adv-x="407" 
d="M200 -8c-92 0 -155 66 -158 163c0 4 3 7 7 7h19c4 0 6 -3 6 -7c3 -80 53 -133 126 -133c78 0 129 59 129 144v43c0 79 -51 135 -129 135h-72c-4 0 -6 2 -6 6v17c0 4 2 7 6 7h79c67 0 108 49 108 130v41c0 80 -45 133 -115 133s-114 -50 -116 -133c0 -4 -3 -7 -7 -7h-19
c-4 0 -6 3 -6 7c2 100 60 163 148 163s147 -66 147 -163v-41c0 -64 -25 -122 -87 -144c65 -21 101 -83 101 -151v-43c0 -102 -65 -174 -161 -174z" />
    <glyph glyph-name="uni0418" unicode="&#x418;" horiz-adv-x="447" 
d="M337 694c0 3 3 6 6 6h19c4 0 7 -3 7 -6v-680c0 -10 -6 -16 -16 -16h-130c-88 0 -154 71 -154 169v527c0 3 3 6 7 6h19c3 0 6 -3 6 -6v-527c0 -83 53 -139 122 -139h114v666z" />
    <glyph glyph-name="uni0419" unicode="&#x419;" horiz-adv-x="447" 
d="M223 769c-60 0 -101 38 -104 95c0 4 3 6 7 6h16c4 0 6 -2 7 -6c2 -43 29 -68 74 -68s72 25 75 68c0 4 3 6 7 6h16c4 0 6 -2 6 -6c-3 -57 -43 -95 -104 -95zM337 694c0 3 3 6 6 6h19c4 0 7 -3 7 -6v-680c0 -10 -6 -16 -16 -16h-130c-88 0 -154 71 -154 169v527
c0 3 3 6 7 6h19c3 0 6 -3 6 -6v-527c0 -83 53 -139 122 -139h114v666z" />
    <glyph glyph-name="uni040D" unicode="&#x40d;" horiz-adv-x="447" 
d="M255 769h-15c-2 0 -6 1 -7 4l-80 90c-4 5 -2 8 4 8h23c2 0 6 -1 8 -4l71 -90c3 -4 1 -8 -4 -8zM337 694c0 3 3 6 6 6h19c4 0 7 -3 7 -6v-680c0 -10 -6 -16 -16 -16h-130c-88 0 -154 71 -154 169v527c0 3 3 6 7 6h19c3 0 6 -3 6 -6v-527c0 -83 53 -139 122 -139h114v666z
" />
    <glyph glyph-name="uni041A" unicode="&#x41a;" horiz-adv-x="453" 
d="M85 0c-4 0 -7 3 -7 7v687c0 3 3 6 7 6h19c4 0 6 -3 6 -6v-320h118l135 321c1 3 4 5 7 5h20c4 0 6 -3 5 -7l-136 -323c74 -14 126 -82 126 -165v-198c0 -4 -2 -7 -6 -7h-19c-4 0 -7 3 -7 7v198c0 78 -55 139 -125 139h-118v-337c0 -4 -2 -7 -6 -7h-19z" />
    <glyph glyph-name="uni040C" unicode="&#x40c;" horiz-adv-x="453" 
d="M209 769c-5 0 -7 4 -4 8l71 90c2 3 6 4 8 4h23c6 0 8 -3 4 -8l-80 -90c-1 -3 -5 -4 -7 -4h-15zM85 0c-4 0 -7 3 -7 7v687c0 3 3 6 7 6h19c4 0 6 -3 6 -6v-320h118l135 321c1 3 4 5 7 5h20c4 0 6 -3 5 -7l-136 -323c74 -14 126 -82 126 -165v-198c0 -4 -2 -7 -6 -7h-19
c-4 0 -7 3 -7 7v198c0 78 -55 139 -125 139h-118v-337c0 -4 -2 -7 -6 -7h-19z" />
    <glyph glyph-name="uni041B" unicode="&#x41b;" horiz-adv-x="477" 
d="M32 -2c-4 0 -6 2 -6 6v17c0 4 2 7 6 7c57 3 90 46 90 124v388c0 97 60 162 151 162h96c19 0 29 -10 29 -29v-666c0 -4 -2 -7 -6 -7h-19c-4 0 -7 3 -7 7v665h-93c-76 0 -119 -48 -119 -132v-388c0 -92 -48 -151 -122 -154z" />
    <glyph glyph-name="uni041C" unicode="&#x41c;" horiz-adv-x="626" 
d="M85 0c-4 0 -7 3 -7 7v683c0 7 5 12 13 12h21c6 0 12 -4 14 -10l134 -321c17 -43 35 -85 52 -127h2c17 42 36 84 53 127l133 321c3 6 8 10 15 10h20c8 0 13 -5 13 -12v-683c0 -4 -3 -7 -7 -7h-19c-4 0 -6 3 -6 7v424c0 74 1 150 1 223h-1c-21 -53 -44 -107 -66 -161
l-114 -272c-2 -9 -9 -14 -17 -14h-11c-9 0 -15 5 -18 14l-113 272c-22 54 -46 108 -67 161h-1c0 -73 1 -149 1 -223v-424c0 -4 -2 -7 -6 -7h-19z" />
    <glyph glyph-name="uni041D" unicode="&#x41d;" horiz-adv-x="459" 
d="M348 694c0 3 3 6 7 6h19c4 0 6 -3 6 -6v-687c0 -4 -2 -7 -6 -7h-19c-4 0 -7 3 -7 7v334h-238v-334c0 -4 -2 -7 -6 -7h-19c-4 0 -7 3 -7 7v687c0 3 3 6 7 6h19c4 0 6 -3 6 -6v-323h238v323z" />
    <glyph glyph-name="uni041E" unicode="&#x41e;" horiz-adv-x="444" 
d="M222 -8c-99 0 -164 71 -164 185v346c0 115 65 185 164 185c98 0 163 -70 163 -182v-352c0 -111 -65 -182 -163 -182zM222 23c80 0 132 57 132 151v352c0 95 -52 152 -132 152s-132 -57 -132 -155v-346c0 -97 52 -154 132 -154z" />
    <glyph glyph-name="uni041F" unicode="&#x41f;" horiz-adv-x="463" 
d="M85 0c-4 0 -7 3 -7 7v664c0 19 11 29 29 29h248c19 0 29 -10 29 -29v-664c0 -4 -2 -7 -6 -7h-19c-4 0 -7 3 -7 7v663h-242v-663c0 -4 -2 -7 -6 -7h-19z" />
    <glyph glyph-name="uni0420" unicode="&#x420;" horiz-adv-x="413" 
d="M76 0c-4 0 -7 3 -7 7v531c0 98 57 170 150 170c94 0 153 -72 153 -170v-100c0 -95 -66 -164 -151 -164h-120v-267c0 -4 -3 -7 -6 -7h-19zM101 304h120c67 0 119 55 119 134v100c0 83 -45 140 -121 140c-73 0 -118 -57 -118 -140v-234z" />
    <glyph glyph-name="uni0421" unicode="&#x421;" horiz-adv-x="417" 
d="M218 -8c-93 0 -160 71 -160 167v382c0 95 67 167 160 167c90 0 153 -72 156 -168c0 -3 -3 -6 -7 -6h-19c-4 0 -6 2 -6 6c-3 81 -50 138 -124 138c-75 0 -128 -57 -128 -137v-382c0 -80 53 -137 128 -137c78 0 127 57 129 139c0 4 2 7 6 7h19c4 0 7 -3 7 -7
c-3 -98 -68 -169 -161 -169z" />
    <glyph glyph-name="uni0422" unicode="&#x422;" horiz-adv-x="357" 
d="M325 700c4 0 7 -3 7 -6v-18c0 -3 -3 -6 -7 -6h-130v-663c0 -4 -3 -7 -7 -7h-19c-4 0 -6 3 -6 7v663h-131c-4 0 -6 3 -6 6v18c0 3 2 6 6 6h293z" />
    <glyph glyph-name="uni0423" unicode="&#x423;" horiz-adv-x="412" 
d="M55 -2c-4 0 -6 2 -6 6v17c0 4 2 7 6 7h141c68 0 115 56 115 137v104h-114c-87 0 -154 71 -154 167v258c0 3 3 6 7 6h19c4 0 6 -3 6 -6v-258c0 -80 54 -137 122 -137h114v395c0 3 3 6 7 6h19c3 0 6 -3 6 -6v-529c0 -96 -60 -167 -147 -167h-141z" />
    <glyph glyph-name="uni040E" unicode="&#x40e;" horiz-adv-x="412" 
d="M192 769c-60 0 -101 38 -104 95c0 4 3 6 7 6h16c4 0 6 -2 7 -6c2 -43 29 -68 74 -68s72 25 75 68c0 4 3 6 7 6h16c4 0 6 -2 6 -6c-3 -57 -43 -95 -104 -95zM55 -2c-4 0 -6 2 -6 6v17c0 4 2 7 6 7h141c68 0 115 56 115 137v104h-114c-87 0 -154 71 -154 167v258
c0 3 3 6 7 6h19c4 0 6 -3 6 -6v-258c0 -80 54 -137 122 -137h114v395c0 3 3 6 7 6h19c3 0 6 -3 6 -6v-529c0 -96 -60 -167 -147 -167h-141z" />
    <glyph glyph-name="uni0424" unicode="&#x424;" horiz-adv-x="628" 
d="M304 -47c-4 0 -6 3 -6 7v94h-78c-112 0 -174 75 -174 192v222c0 123 62 191 174 191h78v77c0 4 2 7 6 7h19c4 0 7 -3 7 -7v-77h78c112 0 174 -68 174 -191v-222c0 -117 -62 -192 -174 -192h-78v-94c0 -4 -3 -7 -7 -7h-19zM220 84h78v544h-78c-94 0 -142 -54 -142 -160
v-222c0 -101 48 -162 142 -162zM330 84h78c93 0 142 61 142 162v222c0 106 -49 160 -142 160h-78v-544z" />
    <glyph glyph-name="uni0425" unicode="&#x425;" horiz-adv-x="424" 
d="M366 501c0 -66 -38 -121 -95 -145c57 -25 95 -80 95 -152v-197c0 -4 -3 -7 -7 -7h-19c-3 0 -6 3 -6 7v197c0 79 -53 136 -122 136c-68 0 -122 -57 -122 -136v-197c0 -4 -2 -7 -6 -7h-19c-4 0 -7 3 -7 7v197c0 72 37 127 94 152c-57 24 -94 79 -94 145v193c0 3 3 6 7 6h19
c4 0 6 -3 6 -6v-193c0 -74 54 -131 122 -131c69 0 122 57 122 131v193c0 3 3 6 6 6h19c4 0 7 -3 7 -6v-193z" />
    <glyph glyph-name="uni0427" unicode="&#x427;" horiz-adv-x="411" 
d="M308 0c-4 0 -7 3 -7 7v243h-114c-88 0 -154 68 -154 165v279c0 3 3 6 7 6h19c4 0 6 -3 6 -6v-279c0 -81 52 -135 122 -135h114v414c0 3 3 6 7 6h19c3 0 6 -3 6 -6v-687c0 -4 -3 -7 -6 -7h-19z" />
    <glyph glyph-name="uni0426" unicode="&#x426;" horiz-adv-x="457" 
d="M407 -106c-4 0 -7 2 -7 6v98h-180c-91 0 -151 67 -151 166v530c0 3 3 6 7 6h19c3 0 6 -3 6 -6v-530c0 -85 44 -136 119 -136h117v666c0 3 3 6 6 6h19c4 0 7 -3 7 -6v-666h34c19 0 29 -10 29 -29v-99c0 -4 -3 -6 -7 -6h-18z" />
    <glyph glyph-name="uni0428" unicode="&#x428;" horiz-adv-x="675" 
d="M220 -1c-91 0 -151 68 -151 163v532c0 3 3 6 7 6h19c3 0 6 -3 6 -6v-532c0 -82 45 -132 119 -132h99v664c0 3 3 6 7 6h18c4 0 6 -3 6 -6v-664h215v664c0 3 3 6 6 6h19c4 0 6 -3 6 -6v-666c0 -18 -10 -29 -29 -29h-347z" />
    <glyph glyph-name="uni0429" unicode="&#x429;" horiz-adv-x="684" 
d="M634 -106c-4 0 -6 2 -6 6v100h-408c-91 0 -151 67 -151 162v532c0 3 3 6 7 6h19c3 0 6 -3 6 -6v-532c0 -81 45 -132 119 -132h99v664c0 3 3 6 7 6h18c4 0 6 -3 6 -6v-664h215v664c0 3 3 6 6 6h19c4 0 6 -3 6 -6v-664h33c19 0 29 -10 29 -29v-101c0 -4 -2 -6 -6 -6h-18z
" />
    <glyph glyph-name="uni040F" unicode="&#x40f;" horiz-adv-x="463" 
d="M223 -106c-4 0 -7 2 -7 6v100h-109c-18 0 -29 10 -29 29v665c0 3 3 6 7 6h19c4 0 6 -3 6 -6v-664h242v664c0 3 3 6 7 6h19c4 0 6 -3 6 -6v-665c0 -19 -10 -29 -29 -29h-108v-100c0 -4 -2 -6 -6 -6h-18z" />
    <glyph glyph-name="uni042C" unicode="&#x42c;" horiz-adv-x="421" 
d="M107 0c-18 0 -29 10 -29 29v665c0 3 3 6 7 6h19c4 0 6 -3 6 -6v-294h117c93 0 154 -72 154 -159v-82c0 -87 -61 -159 -154 -159h-120zM110 30h117c76 0 122 57 122 129v82c0 72 -46 129 -122 129h-117v-340z" />
    <glyph glyph-name="uni042A" unicode="&#x42a;" horiz-adv-x="478" 
d="M280 400c99 0 158 -72 158 -159v-81c0 -88 -59 -160 -158 -160h-115c-18 0 -29 10 -29 29v641h-104c-4 0 -6 3 -6 6v18c0 3 2 6 6 6h107c19 0 29 -10 29 -29v-271h112zM406 160v81c0 72 -45 129 -126 129h-112v-340h112c81 0 126 57 126 130z" />
    <glyph glyph-name="uni042B" unicode="&#x42b;" horiz-adv-x="572" 
d="M107 0c-18 0 -29 10 -29 29v665c0 3 3 6 7 6h19c4 0 6 -3 6 -6v-294h117c93 0 154 -72 154 -159v-82c0 -87 -61 -159 -154 -159h-120zM468 0c-4 0 -7 3 -7 7v687c0 3 3 6 7 6h19c4 0 6 -3 6 -6v-687c0 -4 -2 -7 -6 -7h-19zM110 30h117c76 0 122 57 122 129v82
c0 72 -46 129 -122 129h-117v-340z" />
    <glyph glyph-name="uni0409" unicode="&#x409;" horiz-adv-x="695" 
d="M32 -3c-4 0 -6 3 -6 7v17c0 4 2 6 6 7c55 2 90 43 90 119v389c0 97 61 164 151 164h93c18 0 29 -10 29 -29v-274h105c93 0 154 -72 154 -159v-79c0 -87 -61 -159 -154 -159h-108c-19 0 -29 10 -29 29v641h-90c-71 0 -119 -54 -119 -134v-389c0 -90 -51 -146 -122 -150z
M395 30h105c76 0 122 57 122 129v79c0 72 -46 129 -122 129h-105v-337z" />
    <glyph glyph-name="uni040A" unicode="&#x40a;" horiz-adv-x="669" 
d="M475 382c93 0 154 -70 154 -158v-67c0 -88 -61 -158 -154 -158h-106c-19 0 -29 11 -29 29v324h-230v-345c0 -4 -2 -7 -6 -7h-19c-4 0 -7 3 -7 7v687c0 3 3 6 7 6h19c4 0 6 -3 6 -6v-312h230v312c0 3 2 6 6 6h19c4 0 7 -3 7 -6v-312h103zM597 156v68
c0 73 -47 128 -122 128h-103v-322h103c75 0 122 54 122 126z" />
    <glyph glyph-name="uni0405" unicode="&#x405;" horiz-adv-x="408" 
d="M205 -8c-96 0 -159 71 -160 169c0 4 3 7 7 7h19c4 0 6 -3 6 -7c2 -83 49 -139 128 -139c80 0 126 53 126 128c0 187 -281 208 -281 402c0 94 64 156 154 156c86 0 151 -66 153 -168c0 -3 -3 -6 -7 -6h-19c-4 0 -6 3 -6 6c-3 89 -51 138 -121 138
c-72 0 -122 -47 -122 -126c0 -173 281 -197 281 -402c0 -90 -62 -158 -158 -158z" />
    <glyph glyph-name="uni0404" unicode="&#x404;" horiz-adv-x="417" 
d="M372 168c4 0 7 -3 7 -7c-3 -98 -68 -169 -161 -169s-160 71 -160 167v382c0 95 67 167 160 167c90 0 153 -72 156 -168c0 -3 -3 -6 -7 -6h-19c-4 0 -6 2 -6 6c-3 81 -50 138 -124 138c-75 0 -128 -57 -128 -137v-167h221c3 0 6 -3 6 -7v-17c0 -4 -3 -6 -6 -6h-221v-185
c0 -80 53 -137 128 -137c78 0 127 57 129 139c0 4 2 7 6 7h19z" />
    <glyph glyph-name="uni042D" unicode="&#x42d;" horiz-adv-x="417" 
d="M199 708c93 0 160 -72 160 -167v-382c0 -96 -67 -167 -160 -167s-158 71 -161 169c0 4 3 7 7 7h19c4 0 6 -3 6 -7c2 -82 51 -139 129 -139c75 0 128 57 128 137v185h-221c-3 0 -6 2 -6 6v17c0 4 3 7 6 7h221v167c0 80 -53 137 -128 137c-74 0 -121 -57 -124 -138
c0 -4 -2 -6 -6 -6h-19c-4 0 -7 3 -7 6c3 96 66 168 156 168z" />
    <glyph glyph-name="uni0406" unicode="&#x406;" horiz-adv-x="189" 
d="M78 694c0 3 3 6 7 6h19c4 0 6 -3 6 -6v-687c0 -4 -2 -7 -6 -7h-19c-4 0 -7 3 -7 7v687z" />
    <glyph glyph-name="uni0407" unicode="&#x407;" horiz-adv-x="189" 
d="M46 797c-16 0 -27 11 -27 26c0 16 11 27 27 27c15 0 26 -11 26 -27c0 -15 -11 -26 -26 -26zM143 797c-16 0 -27 11 -27 26c0 16 11 27 27 27c15 0 26 -11 26 -27c0 -15 -11 -26 -26 -26zM78 694c0 3 3 6 7 6h19c4 0 6 -3 6 -6v-687c0 -4 -2 -7 -6 -7h-19c-4 0 -7 3 -7 7
v687z" />
    <glyph glyph-name="uni0408" unicode="&#x408;" horiz-adv-x="407" 
d="M183 -8c-95 0 -155 71 -157 169c0 4 2 7 6 7h19c4 0 7 -3 7 -7c2 -82 48 -139 125 -139c84 0 123 57 123 155v517c0 3 2 6 6 6h19c4 0 7 -3 7 -6v-517c0 -113 -50 -185 -155 -185z" />
    <glyph glyph-name="uni040B" unicode="&#x40b;" horiz-adv-x="518" 
d="M169 0c-4 0 -6 3 -6 7v663h-131c-4 0 -6 3 -6 6v18c0 3 2 6 6 6h293c4 0 7 -3 7 -6v-18c0 -3 -3 -6 -7 -6h-130v-230c22 43 63 68 116 68c91 0 145 -66 145 -168v-333c0 -4 -2 -7 -6 -7h-18c-4 0 -7 3 -7 7v332c0 87 -42 140 -115 140c-71 0 -115 -53 -115 -138v-334
c0 -4 -3 -7 -7 -7h-19z" />
    <glyph glyph-name="uni042E" unicode="&#x42e;" horiz-adv-x="598" 
d="M383 708c92 0 157 -67 157 -166v-384c0 -99 -65 -166 -157 -166s-156 67 -156 166v183h-117v-334c0 -4 -2 -7 -6 -7h-19c-4 0 -7 3 -7 7v687c0 3 3 6 7 6h19c4 0 6 -3 6 -6v-323h117v171c0 99 64 166 156 166zM507 158v384c0 82 -50 136 -124 136
c-73 0 -124 -54 -124 -136v-384c0 -82 51 -136 124 -136c74 0 124 54 124 136z" />
    <glyph glyph-name="uni042F" unicode="&#x42f;" horiz-adv-x="432" 
d="M207 708c93 0 156 -72 156 -170v-531c0 -4 -3 -7 -7 -7h-19c-4 0 -6 3 -6 7v281h-116l-137 -283c-2 -4 -5 -5 -8 -5h-20c-5 0 -7 3 -5 8l139 283c-79 10 -133 77 -133 166v81c0 98 63 170 156 170zM331 318v220c0 83 -50 140 -124 140c-75 0 -124 -57 -124 -140v-81
c0 -82 50 -139 124 -139h124z" />
    <glyph glyph-name="uni0402" unicode="&#x402;" horiz-adv-x="511" 
d="M312 -2c-4 0 -7 3 -7 7v16c0 3 2 6 6 6c69 4 114 57 114 124v190c0 85 -42 138 -115 138c-74 0 -115 -53 -115 -138v-334c0 -4 -3 -7 -7 -7h-19c-4 0 -6 3 -6 7v663h-131c-4 0 -6 3 -6 6v18c0 3 2 6 6 6h293c4 0 7 -3 7 -6v-18c0 -3 -3 -6 -7 -6h-130v-231
c22 44 63 69 116 69c90 0 145 -66 145 -167v-190c0 -84 -59 -149 -144 -153z" />
    <glyph glyph-name="uni0414.loclBGR" horiz-adv-x="481" 
d="M26 -106c-4 0 -7 2 -7 6v101c0 18 11 29 30 29h23l142 656c2 9 8 14 18 14h19c9 0 15 -5 17 -14l142 -656h22c20 0 30 -10 30 -29v-101c0 -4 -3 -6 -7 -6h-17c-4 0 -7 2 -7 6v100h-381v-100c0 -4 -2 -6 -6 -6h-18zM105 30h272l-136 631z" />
    <glyph glyph-name="uni0418.loclBGR" horiz-adv-x="462" 
d="M226 -8c-93 0 -157 71 -157 177v525c0 3 3 6 7 6h19c3 0 6 -3 6 -6v-525c0 -90 51 -147 124 -147c72 0 127 57 127 141v531c0 3 2 6 6 6h19c4 0 7 -3 7 -6v-687c0 -4 -3 -7 -7 -7h-16c-4 0 -6 2 -6 6l-2 61c-25 -46 -71 -75 -127 -75z" />
    <glyph glyph-name="uni0419.loclBGR" horiz-adv-x="462" 
d="M228 769c-60 0 -101 38 -104 95c0 4 3 6 7 6h16c4 0 6 -2 7 -6c2 -43 29 -68 74 -68s72 25 75 68c0 4 3 6 7 6h16c4 0 6 -2 6 -6c-3 -57 -43 -95 -104 -95zM226 -8c-93 0 -157 71 -157 177v525c0 3 3 6 7 6h19c3 0 6 -3 6 -6v-525c0 -90 51 -147 124 -147
c72 0 127 57 127 141v531c0 3 2 6 6 6h19c4 0 7 -3 7 -6v-687c0 -4 -3 -7 -7 -7h-16c-4 0 -6 2 -6 6l-2 61c-25 -46 -71 -75 -127 -75z" />
    <glyph glyph-name="uni040D.loclBGR" horiz-adv-x="462" 
d="M260 769h-15c-2 0 -6 1 -7 4l-80 90c-4 5 -2 8 4 8h23c2 0 6 -1 8 -4l71 -90c3 -4 1 -8 -4 -8zM226 -8c-93 0 -157 71 -157 177v525c0 3 3 6 7 6h19c3 0 6 -3 6 -6v-525c0 -90 51 -147 124 -147c72 0 127 57 127 141v531c0 3 2 6 6 6h19c4 0 7 -3 7 -6v-687
c0 -4 -3 -7 -7 -7h-16c-4 0 -6 2 -6 6l-2 61c-25 -46 -71 -75 -127 -75z" />
    <glyph glyph-name="uni041B.loclBGR" horiz-adv-x="395" 
d="M370 7c1 -4 -2 -7 -6 -7h-18c-4 0 -7 2 -8 5l-140 663l-141 -663c-1 -3 -3 -5 -7 -5h-19c-4 0 -7 3 -6 7l145 681c2 9 8 14 18 14h19c10 0 16 -5 17 -14z" />
    <glyph glyph-name="uni041F.loclBGR" horiz-adv-x="453" 
d="M76 0c-4 0 -7 3 -7 7v524c0 106 63 177 157 177s158 -71 158 -177v-524c0 -4 -3 -7 -7 -7h-19c-4 0 -6 3 -6 7v524c0 91 -50 147 -126 147c-75 0 -125 -56 -125 -147v-524c0 -4 -3 -7 -6 -7h-19z" />
    <glyph glyph-name="uni0422.loclBGR" horiz-adv-x="357" 
d="M325 700c4 0 7 -3 7 -6v-18c0 -3 -3 -6 -7 -6h-130v-663c0 -4 -3 -7 -7 -7h-19c-4 0 -6 3 -6 7v663h-131c-4 0 -6 3 -6 6v18c0 3 2 6 6 6h293z" />
    <glyph glyph-name="uni0423.loclBGR" horiz-adv-x="404" 
d="M339 700c4 0 7 -3 7 -6v-527c0 -96 -64 -167 -154 -167h-139c-4 0 -6 3 -6 7v17c0 4 2 6 6 6h139c72 0 122 56 122 137v136c-24 -42 -68 -67 -122 -67c-92 0 -154 71 -154 169v289c0 3 3 6 7 6h19c4 0 6 -3 6 -6v-289c0 -83 50 -139 122 -139c73 0 122 56 122 141v287
c0 3 3 6 6 6h19z" />
    <glyph glyph-name="uni040E.loclBGR" horiz-adv-x="404" 
d="M189 769c-60 0 -101 38 -104 95c0 4 3 6 7 6h16c4 0 6 -2 7 -6c2 -43 29 -68 74 -68s72 25 75 68c0 4 3 6 7 6h16c4 0 6 -2 6 -6c-3 -57 -43 -95 -104 -95zM339 700c4 0 7 -3 7 -6v-527c0 -96 -64 -167 -154 -167h-139c-4 0 -6 3 -6 7v17c0 4 2 6 6 6h139
c72 0 122 56 122 137v136c-24 -42 -68 -67 -122 -67c-92 0 -154 71 -154 169v289c0 3 3 6 7 6h19c4 0 6 -3 6 -6v-289c0 -83 50 -139 122 -139c73 0 122 56 122 141v287c0 3 3 6 6 6h19z" />
    <glyph glyph-name="uni0424.loclBGR" horiz-adv-x="676" 
d="M471 707c87 0 147 -67 147 -163v-387c0 -97 -60 -165 -147 -165c-50 0 -96 30 -117 77v-145c0 -4 -2 -7 -6 -7h-19c-4 0 -7 3 -7 7v144c-20 -46 -67 -76 -117 -76c-87 0 -147 67 -147 164v388c0 97 60 164 147 164c50 0 96 -29 117 -73v132c0 3 3 6 7 6h19c4 0 6 -3 6 -6
v-133c21 45 67 73 117 73zM206 22c69 0 116 54 116 134v388c0 80 -47 134 -116 134s-116 -54 -116 -134v-388c0 -80 47 -134 116 -134zM586 157v387c0 79 -47 133 -116 133s-116 -54 -116 -133v-388c0 -79 47 -133 116 -133s116 54 116 134z" />
    <glyph glyph-name="uni0427.loclBGR" horiz-adv-x="429" 
d="M325 0c-3 0 -6 3 -6 7v296c-24 -43 -67 -69 -122 -69c-92 0 -154 71 -154 170v290c0 3 3 6 7 6h19c4 0 6 -3 6 -6v-290c0 -83 50 -140 122 -140c73 0 122 57 122 141v289c0 3 3 6 6 6h19c4 0 7 -3 7 -6v-687c0 -4 -3 -7 -7 -7h-19z" />
    <glyph glyph-name="uni0426.loclBGR" horiz-adv-x="470" 
d="M420 -106c-4 0 -7 2 -7 6v100c-39 6 -56 35 -60 66c-25 -47 -71 -74 -128 -74c-91 0 -156 71 -156 177v525c0 3 3 6 7 6h19c3 0 6 -3 6 -6v-525c0 -90 51 -147 124 -147c72 0 127 56 127 141v531c0 3 2 6 6 6h19c4 0 7 -3 7 -6v-604c0 -85 60 -34 60 -85v-105
c0 -4 -3 -6 -6 -6h-18z" />
    <glyph glyph-name="uni0428.loclBGR" horiz-adv-x="708" 
d="M217 -8c-90 0 -148 67 -148 166v536c0 3 3 6 7 6h19c3 0 6 -3 6 -6v-536c0 -82 46 -136 116 -136c71 0 116 54 116 136v536c0 3 3 6 7 6h19c4 0 6 -3 6 -6v-536c0 -82 46 -136 115 -136c71 0 117 54 117 138v534c0 3 3 6 7 6h19c4 0 6 -3 6 -6v-687c0 -4 -2 -7 -6 -7h-19
c-4 0 -7 3 -7 7v53c-22 -42 -63 -68 -116 -68c-63 0 -111 34 -132 91c-21 -57 -68 -91 -132 -91z" />
    <glyph glyph-name="uni0429.loclBGR" horiz-adv-x="715" 
d="M665 -106c-4 0 -6 2 -6 6v100c-38 6 -55 33 -60 62c-22 -42 -67 -70 -120 -70c-60 0 -108 37 -130 92c-22 -55 -71 -92 -133 -92c-88 0 -147 71 -147 170v532c0 3 3 6 7 6h19c3 0 6 -3 6 -6v-532c0 -83 46 -140 115 -140c71 0 117 57 117 140v532c0 3 3 6 7 6h19
c4 0 6 -3 6 -6v-532c0 -83 47 -140 116 -140c66 0 116 49 116 134v538c0 3 3 6 7 6h19c4 0 6 -3 6 -6v-604c0 -85 61 -34 61 -85v-105c0 -4 -3 -6 -7 -6h-18z" />
    <glyph glyph-name="uni041B.ss01" horiz-adv-x="488" 
d="M32 -2c-4 0 -6 3 -6 6v19c0 4 2 6 6 6c62 4 98 56 98 148v354c0 108 54 177 144 177c91 0 145 -69 145 -177v-524c0 -4 -3 -7 -7 -7h-19c-4 0 -6 3 -6 7v524c0 92 -38 146 -113 146c-71 0 -112 -54 -112 -146v-354c0 -108 -48 -175 -130 -179z" />
    <glyph glyph-name="uni0430" unicode="&#x430;" horiz-adv-x="391" 
d="M198 -8c-95 0 -151 59 -151 155c0 85 56 142 156 142h104v67c0 76 -42 123 -109 123c-68 0 -108 -44 -112 -104c-1 -4 -3 -7 -7 -7h-17c-4 0 -7 3 -7 7c4 77 56 133 143 133c86 0 139 -59 139 -152v-209c0 -93 -52 -155 -139 -155zM198 22c69 0 109 49 109 125v113h-104
c-82 0 -125 -45 -125 -113c0 -78 43 -125 120 -125z" />
    <glyph glyph-name="uni0431" unicode="&#x431;" horiz-adv-x="412" 
d="M210 -8c-89 0 -148 65 -148 159v322c0 105 42 157 106 181c40 14 103 34 137 45c4 1 7 0 8 -5l2 -15c0 -3 -2 -6 -6 -7c-28 -8 -91 -30 -135 -47c-51 -20 -82 -59 -82 -152v-52c24 42 67 67 122 67c86 0 144 -65 144 -159v-178c0 -94 -59 -159 -148 -159zM210 21
c71 0 118 53 118 130v178c0 77 -47 130 -118 130s-118 -53 -118 -130v-178c0 -77 47 -130 118 -130z" />
    <glyph glyph-name="uni0432" unicode="&#x432;" horiz-adv-x="399" 
d="M248 270c72 -18 105 -69 105 -127c0 -80 -63 -143 -164 -143h-99c-18 0 -28 10 -28 28v342c0 85 50 138 131 138c84 0 136 -55 136 -127c0 -54 -31 -96 -81 -111zM92 370v-88h100c74 0 107 50 107 100c0 55 -38 97 -106 97c-65 0 -101 -40 -101 -109zM189 29
c84 0 134 51 134 114c0 60 -44 110 -127 110h-104v-224h97z" />
    <glyph glyph-name="uni0433" unicode="&#x433;" horiz-adv-x="286" 
d="M69 0c-4 0 -7 3 -7 7v350c0 94 48 145 136 145h56c4 0 6 -3 6 -6v-17c0 -3 -2 -6 -6 -6h-56c-70 0 -106 -39 -106 -116v-350c0 -4 -2 -7 -6 -7h-17z" />
    <glyph glyph-name="uni0453" unicode="&#x453;" horiz-adv-x="286" 
d="M255 668c5 0 7 -4 4 -8l-68 -97c-2 -3 -6 -4 -9 -4h-14c-6 0 -7 3 -5 8l62 97c2 2 5 4 8 4h22zM69 0c-4 0 -7 3 -7 7v350c0 94 48 145 136 145h56c4 0 6 -3 6 -6v-17c0 -3 -2 -6 -6 -6h-56c-70 0 -106 -39 -106 -116v-350c0 -4 -2 -7 -6 -7h-17z" />
    <glyph glyph-name="uni0491" unicode="&#x491;" horiz-adv-x="291" 
d="M69 0c-4 0 -7 3 -7 7v353c0 91 50 142 135 142h38v68c0 4 3 5 7 5h17c4 0 7 -1 7 -5v-76c0 -13 -8 -21 -21 -21h-48c-68 0 -105 -39 -105 -113v-353c0 -4 -2 -7 -6 -7h-17z" />
    <glyph glyph-name="uni0434" unicode="&#x434;" horiz-adv-x="447" 
d="M30 -105c-4 0 -6 3 -6 7v106c0 13 7 20 22 24c42 10 61 45 61 104v210c0 90 60 155 153 155h77c18 0 28 -10 28 -28v-444h29c18 0 27 -10 27 -27v-100c0 -4 -2 -7 -6 -7h-16c-4 0 -6 3 -6 7v98h-340v-98c0 -4 -3 -7 -7 -7h-16zM97 29h237v443h-74
c-77 0 -123 -52 -123 -126v-208c0 -51 -14 -88 -40 -109z" />
    <glyph glyph-name="uni0435" unicode="&#x435;" horiz-adv-x="389" 
d="M195 -8c-92 0 -141 66 -141 153v210c0 88 56 153 144 153c85 0 144 -66 144 -149c0 -82 -55 -143 -159 -143h-98v-71c0 -70 36 -123 110 -123s111 50 113 117c0 4 3 6 7 6h17c4 0 7 -2 7 -5c-2 -84 -53 -148 -144 -148zM85 245h98c88 0 129 48 129 114
c0 67 -46 119 -114 119c-71 0 -113 -51 -113 -123v-110z" />
    <glyph glyph-name="uni0451" unicode="&#x451;" horiz-adv-x="388" 
d="M145 580c-16 0 -27 11 -27 26c0 16 11 27 27 27c15 0 26 -11 26 -27c0 -15 -11 -26 -26 -26zM242 580c-16 0 -27 11 -27 26c0 16 11 27 27 27c15 0 26 -11 26 -27c0 -15 -11 -26 -26 -26zM195 -8c-92 0 -141 66 -141 153v210c0 88 56 153 144 153c85 0 144 -66 144 -149
c0 -82 -55 -143 -159 -143h-98v-71c0 -70 36 -123 110 -123s111 50 113 117c0 4 3 6 7 6h17c4 0 7 -2 7 -5c-2 -84 -53 -148 -144 -148zM85 245h98c88 0 129 48 129 114c0 67 -46 119 -114 119c-71 0 -113 -51 -113 -123v-110z" />
    <glyph glyph-name="uni0436" unicode="&#x436;" horiz-adv-x="571" 
d="M58 0c-4 0 -6 3 -6 7v126c0 82 49 135 128 140l-135 219c-2 4 0 8 5 8h21c3 0 6 -1 7 -4l134 -220h58v218c0 3 3 6 7 6h17c4 0 7 -3 7 -6v-218h58l134 220c1 3 5 4 8 4h21c5 0 7 -4 4 -8l-135 -219c80 -5 129 -58 129 -140v-126c0 -4 -3 -7 -7 -7h-17c-4 0 -7 3 -7 7v126
c0 71 -43 114 -112 114h-76v-240c0 -4 -3 -7 -7 -7h-17c-4 0 -7 3 -7 7v240h-75c-70 0 -113 -43 -113 -114v-126c0 -4 -2 -7 -6 -7h-18z" />
    <glyph glyph-name="uni0437" unicode="&#x437;" horiz-adv-x="370" 
d="M178 -8c-81 0 -140 63 -144 144c0 4 3 6 7 6h17c4 0 7 -2 7 -6c2 -65 48 -115 113 -115c68 0 115 47 115 120c0 63 -40 111 -119 111h-56c-3 0 -6 3 -6 6v17c0 3 3 6 6 6h54c72 0 105 50 105 100c0 58 -35 98 -102 98c-65 0 -97 -39 -100 -104c0 -4 -2 -7 -6 -7h-18
c-4 0 -6 3 -6 7c2 81 49 133 130 133c83 0 132 -53 132 -128c0 -54 -32 -97 -82 -112c67 -18 99 -66 99 -127c0 -89 -61 -149 -146 -149z" />
    <glyph glyph-name="uni0438" unicode="&#x438;" horiz-adv-x="406" 
d="M209 -1c-86 0 -147 65 -147 150v345c0 3 3 6 7 6h17c4 0 6 -3 6 -6v-345c0 -69 48 -120 117 -120h96v465c0 3 2 6 6 6h18c4 0 6 -3 6 -6v-467c0 -18 -10 -28 -27 -28h-99z" />
    <glyph glyph-name="uni0439" unicode="&#x439;" horiz-adv-x="406" 
d="M198 563c-60 0 -101 39 -104 98c0 4 3 7 7 7h16c4 0 6 -3 7 -7c2 -45 29 -71 74 -71s72 26 75 71c0 4 3 7 7 7h16c4 0 6 -3 6 -7c-3 -59 -43 -98 -104 -98zM209 -1c-86 0 -147 65 -147 150v345c0 3 3 6 7 6h17c4 0 6 -3 6 -6v-345c0 -69 48 -120 117 -120h96v465
c0 3 2 6 6 6h18c4 0 6 -3 6 -6v-467c0 -18 -10 -28 -27 -28h-99z" />
    <glyph glyph-name="uni045D" unicode="&#x45d;" horiz-adv-x="406" 
d="M128 668h22c3 0 6 -2 8 -4l62 -97c2 -5 1 -8 -5 -8h-14c-3 0 -7 1 -9 4l-68 97c-3 4 -1 8 4 8zM209 -1c-86 0 -147 65 -147 150v345c0 3 3 6 7 6h17c4 0 6 -3 6 -6v-345c0 -69 48 -120 117 -120h96v465c0 3 2 6 6 6h18c4 0 6 -3 6 -6v-467c0 -18 -10 -28 -27 -28h-99z
" />
    <glyph glyph-name="uni043A" unicode="&#x43a;" horiz-adv-x="394" 
d="M209 273c84 -5 135 -58 135 -140v-126c0 -4 -2 -7 -6 -7h-17c-4 0 -7 3 -7 7v126c0 71 -43 114 -113 114h-99v-240c0 -4 -3 -7 -7 -7h-17c-4 0 -7 3 -7 7v487c0 4 3 7 7 7h17c4 0 7 -3 7 -7v-218h75l139 220c2 3 5 4 8 4h21c5 0 7 -4 4 -8z" />
    <glyph glyph-name="uni045C" unicode="&#x45c;" horiz-adv-x="394" 
d="M269 668c5 0 7 -4 4 -8l-68 -97c-2 -3 -6 -4 -9 -4h-14c-6 0 -7 3 -5 8l62 97c2 2 5 4 8 4h22zM209 273c84 -5 135 -58 135 -140v-126c0 -4 -2 -7 -6 -7h-17c-4 0 -7 3 -7 7v126c0 71 -43 114 -113 114h-99v-240c0 -4 -3 -7 -7 -7h-17c-4 0 -7 3 -7 7v487c0 4 3 7 7 7h17
c4 0 7 -3 7 -7v-218h75l139 220c2 3 5 4 8 4h21c5 0 7 -4 4 -8z" />
    <glyph glyph-name="uni043B" unicode="&#x43b;" horiz-adv-x="433" 
d="M30 -3c-4 0 -6 3 -6 7v16c0 4 2 6 6 7c50 3 72 40 72 106v219c0 86 61 149 154 149h78c18 0 28 -10 28 -28v-466c0 -4 -3 -7 -7 -7h-17c-4 0 -7 3 -7 7v465h-75c-77 0 -123 -50 -123 -120v-219c0 -82 -34 -133 -103 -136z" />
    <glyph glyph-name="uni043C" unicode="&#x43c;" horiz-adv-x="533" 
d="M78 0c-4 0 -7 3 -7 7v478c0 10 6 16 16 16h12c8 0 15 -4 19 -12l100 -192c17 -32 33 -65 48 -95h1c14 30 31 62 47 94l101 193c4 8 10 12 19 12h11c10 0 16 -6 16 -16v-478c0 -4 -2 -7 -6 -7h-17c-4 0 -7 3 -7 7v330c0 41 0 84 1 118h-1l-54 -105l-87 -171
c-4 -8 -10 -11 -19 -11h-9c-9 0 -15 3 -19 11l-87 171l-55 105h-1c1 -35 2 -77 2 -119v-329c0 -4 -3 -7 -7 -7h-17z" />
    <glyph glyph-name="uni043D" unicode="&#x43d;" horiz-adv-x="413" 
d="M311 494c0 3 3 6 7 6h17c4 0 7 -3 7 -6v-487c0 -4 -3 -7 -7 -7h-17c-4 0 -7 3 -7 7v239h-209v-239c0 -4 -3 -7 -6 -7h-17c-5 0 -8 3 -8 7v487c0 3 3 6 7 6h17c4 0 7 -3 7 -6v-220h209v220z" />
    <glyph glyph-name="uni043E" unicode="&#x43e;" horiz-adv-x="399" 
d="M200 -8c-91 0 -146 66 -146 154v208c0 88 55 154 146 154c90 0 145 -66 145 -154v-208c0 -88 -55 -154 -145 -154zM200 21c72 0 115 54 115 125v208c0 71 -43 125 -115 125s-115 -54 -115 -125v-208c0 -71 43 -125 115 -125z" />
    <glyph glyph-name="uni043F" unicode="&#x43f;" horiz-adv-x="413" 
d="M314 500c18 0 28 -10 28 -27v-466c0 -4 -3 -7 -7 -7h-17c-4 0 -7 3 -7 7v464h-209v-464c0 -4 -3 -7 -7 -7h-17c-4 0 -7 3 -7 7v466c0 17 10 27 28 27h215z" />
    <glyph glyph-name="uni0440" unicode="&#x440;" horiz-adv-x="407" 
d="M207 508c85 0 146 -67 146 -152v-212c0 -85 -61 -152 -143 -152c-52 0 -95 28 -118 72v-258c0 -3 -2 -6 -6 -6h-17c-4 0 -7 3 -7 6v550c0 85 61 152 145 152zM322 144v212c0 69 -48 123 -115 123s-115 -54 -115 -123v-212c0 -69 48 -123 115 -123s115 54 115 123z" />
    <glyph glyph-name="uni0441" unicode="&#x441;" horiz-adv-x="388" 
d="M200 -8c-88 0 -146 63 -146 154v204c0 93 57 158 143 158c82 0 139 -54 142 -133c0 -4 -2 -7 -6 -7h-17c-4 0 -7 3 -7 7c-3 62 -47 104 -112 104c-68 0 -112 -52 -112 -129v-204c0 -74 45 -125 115 -125c66 0 110 48 114 118c0 4 2 6 6 6h18c4 0 6 -2 6 -6
c-3 -87 -61 -147 -144 -147z" />
    <glyph glyph-name="uni0442" unicode="&#x442;" horiz-adv-x="326" 
d="M154 0c-4 0 -6 3 -6 7v464h-118c-4 0 -6 2 -6 6v17c0 3 2 6 6 6h266c4 0 6 -3 6 -6v-17c0 -4 -2 -6 -6 -6h-118v-464c0 -4 -2 -7 -6 -7h-18z" />
    <glyph glyph-name="uni0443" unicode="&#x443;" horiz-adv-x="415" 
d="M337 500c4 0 7 -3 7 -6v-552c0 -86 -55 -152 -141 -152c-84 0 -138 63 -141 147c0 3 3 6 7 6h17c4 0 6 -2 6 -6c2 -68 43 -118 111 -118c70 0 110 53 110 123v128c-22 -41 -61 -67 -110 -67c-86 0 -141 66 -141 156v335c0 3 3 6 7 6h17c4 0 6 -3 6 -6v-335
c0 -74 42 -127 111 -127s110 53 110 127v335c0 3 3 6 7 6h17z" />
    <glyph glyph-name="uni045E" unicode="&#x45e;" horiz-adv-x="415" 
d="M206 563c-60 0 -101 39 -104 98c0 4 3 7 7 7h16c4 0 6 -3 7 -7c2 -45 29 -71 74 -71s72 26 75 71c0 4 3 7 7 7h16c4 0 6 -3 6 -7c-3 -59 -43 -98 -104 -98zM337 500c4 0 7 -3 7 -6v-552c0 -86 -55 -152 -141 -152c-84 0 -138 63 -141 147c0 3 3 6 7 6h17c4 0 6 -2 6 -6
c2 -68 43 -118 111 -118c70 0 110 53 110 123v128c-22 -41 -61 -67 -110 -67c-86 0 -141 66 -141 156v335c0 3 3 6 7 6h17c4 0 6 -3 6 -6v-335c0 -74 42 -127 111 -127s110 53 110 127v335c0 3 3 6 7 6h17z" />
    <glyph glyph-name="uni0444" unicode="&#x444;" horiz-adv-x="597" 
d="M290 -200c-4 0 -7 3 -7 6v193h-85c-85 0 -144 67 -144 153v197c0 85 59 152 144 152h85v193c0 3 3 6 7 6h17c4 0 7 -3 7 -6v-193h84c86 0 145 -67 145 -152v-197c0 -86 -59 -153 -145 -153h-84v-193c0 -3 -3 -6 -7 -6h-17zM198 29h85v443h-85c-68 0 -113 -54 -113 -123
v-197c0 -70 45 -123 113 -123zM314 29h84c69 0 114 53 114 123v197c0 69 -45 123 -114 123h-84v-443z" />
    <glyph glyph-name="uni0445" unicode="&#x445;" horiz-adv-x="389" 
d="M61 0c-4 0 -7 3 -7 7v106c0 66 34 116 87 137c-53 21 -87 72 -87 138v106c0 3 3 6 7 6h18c4 0 6 -3 6 -6v-106c0 -74 50 -123 110 -123c64 0 109 49 109 123v106c0 3 3 6 7 6h18c4 0 6 -3 6 -6v-106c0 -66 -33 -117 -87 -138c54 -21 87 -71 87 -137v-106
c0 -4 -2 -7 -6 -7h-18c-4 0 -7 3 -7 7v106c0 73 -50 123 -109 123c-64 0 -110 -50 -110 -123v-106c0 -4 -2 -7 -6 -7h-18z" />
    <glyph glyph-name="uni0447" unicode="&#x447;" horiz-adv-x="393" 
d="M306 0c-4 0 -6 3 -6 7v184h-109c-87 0 -145 66 -145 153v150c0 3 3 6 7 6h18c4 0 6 -3 6 -6v-150c0 -71 45 -124 114 -124h109v274c0 3 2 6 6 6h19c4 0 6 -3 6 -6v-487c0 -4 -2 -7 -6 -7h-19z" />
    <glyph glyph-name="uni0446" unicode="&#x446;" horiz-adv-x="440" 
d="M377 -105c-4 0 -7 3 -7 7v97h-161c-93 0 -147 65 -147 157v338c0 3 3 6 7 6h17c4 0 6 -3 6 -6v-338c0 -76 41 -127 117 -127h103v465c0 3 3 6 6 6h18c4 0 6 -3 6 -6v-465h29c19 0 29 -10 29 -28v-99c0 -4 -2 -7 -6 -7h-17z" />
    <glyph glyph-name="uni0448" unicode="&#x448;" horiz-adv-x="614" 
d="M208 0c-93 0 -146 66 -146 159v335c0 3 3 6 7 6h17c4 0 6 -3 6 -6v-335c0 -77 39 -130 116 -130h86v465c0 3 3 6 6 6h18c4 0 6 -3 6 -6v-465h198v465c0 3 2 6 6 6h18c4 0 6 -3 6 -6v-467c0 -18 -10 -27 -27 -27h-317z" />
    <glyph glyph-name="uni0449" unicode="&#x449;" horiz-adv-x="627" 
d="M587 -105c-4 0 -7 3 -7 7v98h-372c-93 0 -146 66 -146 159v335c0 3 3 6 7 6h17c4 0 6 -3 6 -6v-335c0 -77 39 -130 116 -130h86v465c0 3 3 6 6 6h18c4 0 6 -3 6 -6v-465h198v465c0 3 2 6 6 6h18c4 0 6 -3 6 -6v-465h29c18 0 28 -10 28 -28v-99c0 -4 -3 -7 -7 -7h-15z" />
    <glyph glyph-name="uni045F" unicode="&#x45f;" horiz-adv-x="422" 
d="M203 -105c-4 0 -7 3 -7 7v98h-97c-18 0 -28 10 -28 28v466c0 3 3 6 7 6h17c4 0 7 -3 7 -6v-465h219v465c0 3 2 6 6 6h18c3 0 6 -3 6 -6v-466c0 -18 -10 -28 -27 -28h-97v-98c0 -4 -3 -7 -7 -7h-17z" />
    <glyph glyph-name="uni044C" unicode="&#x44c;" horiz-adv-x="394" 
d="M99 -1c-18 0 -28 10 -28 28v467c0 3 3 6 7 6h17c4 0 7 -3 7 -6v-194h106c86 0 147 -64 147 -150s-60 -151 -147 -151h-109zM102 28h106c70 0 117 52 117 122s-47 121 -117 121h-106v-243z" />
    <glyph glyph-name="uni044A" unicode="&#x44a;" horiz-adv-x="451" 
d="M256 300c85 0 147 -64 147 -150s-61 -151 -147 -151h-109c-18 0 -27 10 -27 28v444h-90c-4 0 -6 2 -6 6v17c0 3 2 6 6 6h92c18 0 28 -10 28 -27v-173h106zM256 28c70 0 117 52 117 122s-47 121 -117 121h-106v-243h106z" />
    <glyph glyph-name="uni044B" unicode="&#x44b;" horiz-adv-x="510" 
d="M99 -1c-18 0 -28 10 -28 28v467c0 3 3 6 7 6h17c4 0 7 -3 7 -6v-204h106c85 0 147 -62 147 -145s-61 -146 -147 -146h-109zM414 0c-3 0 -6 3 -6 7v487c0 3 3 6 6 6h18c4 0 6 -3 6 -6v-487c0 -4 -2 -7 -6 -7h-18zM102 29h106c69 0 117 49 117 116s-48 116 -117 116h-106
v-232z" />
    <glyph glyph-name="uni0459" unicode="&#x459;" horiz-adv-x="645" 
d="M459 290c85 0 147 -62 147 -145s-62 -145 -147 -145h-100c-18 0 -28 9 -28 27v444h-75c-77 0 -123 -50 -123 -120v-223c0 -75 -36 -125 -103 -128c-4 0 -6 3 -6 7v16c0 4 2 6 6 6c49 3 72 40 72 99v223c0 86 61 149 154 149h78c18 0 28 -10 28 -27v-183h97zM459 29
c69 0 116 49 116 116s-47 116 -116 116h-97v-232h97z" />
    <glyph glyph-name="uni045A" unicode="&#x45a;" horiz-adv-x="626" 
d="M78 0c-4 0 -7 3 -7 7v487c0 3 3 6 7 6h17c4 0 7 -3 7 -6v-208h210v208c0 3 2 6 6 6h18c4 0 6 -3 6 -6v-208h97c85 0 148 -62 148 -143c0 -82 -62 -144 -148 -144h-100c-17 0 -27 10 -27 28v230h-210v-250c0 -4 -3 -7 -7 -7h-17zM342 29h97c70 0 117 48 117 114
c0 65 -47 114 -117 114h-97v-228z" />
    <glyph glyph-name="uni0455" unicode="&#x455;" horiz-adv-x="381" 
d="M196 -8c-89 0 -146 53 -149 147c0 4 3 6 7 6h17c4 0 7 -2 7 -6c2 -80 45 -118 118 -118c61 0 107 39 107 99c0 143 -254 91 -254 261c0 73 58 127 137 127c85 0 137 -52 139 -133c0 -4 -2 -7 -6 -7h-17c-4 0 -7 3 -7 7c-2 65 -42 104 -108 104c-61 0 -107 -39 -107 -98
c0 -143 254 -91 254 -261c0 -74 -61 -128 -138 -128z" />
    <glyph glyph-name="uni0454" unicode="&#x454;" horiz-adv-x="395" 
d="M200 -8c-83 0 -146 66 -146 154v204c0 96 62 158 144 158c79 0 140 -59 144 -133c0 -4 -3 -7 -6 -7h-18c-4 0 -6 3 -6 7c-4 58 -51 104 -114 104c-65 0 -113 -49 -113 -129v-75h196c4 0 7 -2 7 -6v-17c0 -3 -3 -6 -7 -6h-196v-100c0 -72 49 -125 115 -125
c64 0 112 50 115 118c0 4 3 6 7 6h17c4 0 7 -2 7 -6c-3 -84 -66 -147 -146 -147z" />
    <glyph glyph-name="uni044D" unicode="&#x44d;" horiz-adv-x="395" 
d="M195 -8c-80 0 -143 63 -146 147c0 4 3 6 7 6h17c4 0 7 -2 7 -6c3 -68 51 -118 115 -118c66 0 115 53 115 125v100h-196c-4 0 -7 3 -7 6v17c0 4 3 6 7 6h196v75c0 80 -48 129 -113 129c-63 0 -110 -46 -114 -104c0 -4 -2 -7 -6 -7h-18c-3 0 -6 3 -6 7c4 74 65 133 144 133
c82 0 144 -62 144 -158v-204c0 -88 -63 -154 -146 -154z" />
    <glyph glyph-name="uni0456" unicode="&#x456;" horiz-adv-x="173" 
d="M87 579c-16 0 -27 11 -27 27s11 27 27 27s27 -11 27 -27c0 -15 -11 -27 -27 -27zM78 0c-4 0 -7 3 -7 7v487c0 3 3 6 7 6h17c4 0 7 -3 7 -6v-487c0 -4 -3 -7 -7 -7h-17z" />
    <glyph glyph-name="uni0457" unicode="&#x457;" horiz-adv-x="162" 
d="M43 581c-15 0 -26 10 -26 25s11 25 26 25s26 -10 26 -25s-11 -25 -26 -25zM120 581c-15 0 -26 10 -26 25s11 25 26 25s25 -10 25 -25s-10 -25 -25 -25zM75 0c-4 0 -7 3 -7 7v487c0 3 3 6 7 6h17c4 0 7 -3 7 -6v-487c0 -4 -3 -7 -7 -7h-17z" />
    <glyph glyph-name="uni0458" unicode="&#x458;" horiz-adv-x="238" 
d="M139 579c-16 0 -27 11 -27 27s11 27 27 27s28 -11 28 -27c0 -15 -12 -27 -28 -27zM7 -205c-4 0 -7 3 -7 6v17c0 4 2 6 7 6h1c79 3 116 55 116 131v539c0 3 3 6 7 6h17c4 0 6 -3 6 -6v-539c0 -92 -50 -158 -146 -160h-1z" />
    <glyph glyph-name="uni045B" unicode="&#x45b;" horiz-adv-x="447" 
d="M100 0c-4 0 -6 3 -6 7v595h-64c-4 0 -6 3 -6 7v13c0 4 2 6 6 6h64v66c0 3 2 6 6 6h17c4 0 7 -3 7 -6v-66h153c4 0 6 -2 6 -6v-13c0 -4 -2 -7 -6 -7h-153v-159c23 39 64 65 116 65c87 0 145 -66 145 -153v-348c0 -4 -3 -7 -7 -7h-17c-4 0 -6 3 -6 7v348
c0 71 -46 124 -116 124c-69 0 -115 -53 -115 -124v-348c0 -4 -3 -7 -7 -7h-17z" />
    <glyph glyph-name="uni044E" unicode="&#x44e;" horiz-adv-x="542" 
d="M347 -8c-84 0 -140 65 -140 159v101h-105v-245c0 -4 -3 -7 -7 -7h-17c-4 0 -7 3 -7 7v487c0 3 3 6 7 6h17c4 0 7 -3 7 -6v-213h105v68c0 94 56 159 140 159c85 0 141 -65 141 -159v-198c0 -94 -56 -159 -141 -159zM347 21c67 0 111 53 111 130v198c0 77 -44 130 -111 130
c-66 0 -110 -53 -110 -130v-198c0 -77 44 -130 110 -130z" />
    <glyph glyph-name="uni044F" unicode="&#x44f;" horiz-adv-x="397" 
d="M199 508c86 0 136 -63 136 -147v-354c0 -4 -2 -7 -6 -7h-18c-4 0 -6 3 -6 7v200h-119l-113 -203c-1 -3 -5 -4 -7 -4h-20c-5 0 -7 3 -5 8l114 204c-62 17 -105 74 -105 146c0 87 62 150 149 150zM305 236v125c0 68 -36 118 -106 118s-118 -51 -118 -121
c0 -71 47 -122 116 -122h108z" />
    <glyph glyph-name="uni0452" unicode="&#x452;" horiz-adv-x="441" 
d="M234 508c87 0 145 -66 145 -153v-408c0 -87 -58 -153 -145 -157c-4 0 -7 3 -7 6v17c0 4 3 6 7 6c71 3 115 57 115 128v408c0 71 -46 124 -116 124c-69 0 -115 -53 -115 -124v-348c0 -4 -3 -7 -7 -7h-17c-4 0 -6 3 -6 7v595h-64c-4 0 -6 3 -6 7v13c0 4 2 6 6 6h64v66
c0 3 2 6 6 6h17c4 0 7 -3 7 -6v-66h153c4 0 6 -2 6 -6v-13c0 -4 -2 -7 -6 -7h-153v-159c23 39 64 65 116 65z" />
    <glyph glyph-name="uni0432.loclBGR" horiz-adv-x="408" 
d="M258 379c65 -15 101 -74 101 -129v-96c0 -96 -59 -162 -148 -162c-90 0 -149 66 -149 162v389c0 98 50 165 138 165s137 -67 137 -165v-46c0 -47 -24 -99 -79 -118zM92 543v-151h112c65 0 103 56 103 105v46c0 81 -35 136 -107 136c-70 0 -108 -55 -108 -136zM329 154v96
c0 55 -46 112 -118 112h-119v-208c0 -80 46 -133 119 -133c72 0 118 53 118 133z" />
    <glyph glyph-name="uni0433.loclBGR" horiz-adv-x="381" 
d="M185 -8c-77 0 -138 52 -138 128c0 170 255 126 255 261c0 60 -46 98 -108 98c-64 0 -105 -38 -107 -104c0 -4 -3 -7 -7 -7h-17c-4 0 -7 3 -7 7c3 81 58 133 139 133c79 0 137 -52 137 -127c0 -162 -254 -118 -254 -261c0 -61 47 -99 107 -99c72 0 116 39 118 118
c0 4 3 6 7 6h17c4 0 7 -2 7 -6c-3 -94 -61 -147 -149 -147z" />
    <glyph glyph-name="uni0434.loclBGR" horiz-adv-x="407" 
d="M199 508c87 0 146 -67 146 -155v-411c0 -86 -56 -152 -146 -152c-87 0 -143 63 -145 147c0 3 3 6 7 6h17c4 0 7 -2 7 -6c2 -68 43 -118 114 -118c72 0 115 53 115 123v131c-23 -43 -65 -70 -115 -70c-86 0 -145 67 -145 158v192c0 88 59 155 145 155zM199 32
c70 0 115 54 115 129v192c0 72 -45 126 -115 126c-69 0 -114 -54 -114 -126v-192c0 -75 45 -129 114 -129z" />
    <glyph glyph-name="uni0436.loclBGR" horiz-adv-x="571" 
d="M522 500c5 0 7 -4 4 -8l-135 -214c80 -5 129 -58 129 -140v-131c0 -4 -3 -7 -7 -7h-17c-4 0 -7 3 -7 7v131c0 71 -43 114 -112 114h-76v-245c0 -4 -3 -7 -7 -7h-17c-4 0 -7 3 -7 7v245h-75c-70 0 -113 -43 -113 -114v-131c0 -4 -2 -7 -6 -7h-18c-4 0 -6 3 -6 7v131
c0 82 49 135 128 140l-135 214c-2 4 0 8 5 8h21c3 0 6 -1 7 -4l134 -215h58v413c0 3 3 6 7 6h17c4 0 7 -3 7 -6v-413h58l134 215c1 3 5 4 8 4h21z" />
    <glyph glyph-name="uni0437.loclBGR" horiz-adv-x="383" 
d="M237 184c60 -17 92 -78 92 -134v-81c0 -111 -50 -179 -152 -179c-96 0 -143 84 -148 187c0 4 3 7 7 7h17c4 0 7 -2 7 -7c4 -87 40 -158 117 -158c83 0 122 55 122 150v81c0 57 -41 117 -120 117h-67c-4 0 -7 3 -7 7v17c0 4 3 6 7 6h65c74 0 109 57 109 104v57
c0 67 -39 121 -106 121c-71 0 -106 -51 -109 -104c0 -4 -3 -7 -7 -7h-17c-4 0 -7 3 -7 7c3 70 54 133 140 133c84 0 136 -68 136 -150v-57c0 -47 -23 -100 -79 -117z" />
    <glyph glyph-name="uni0438.loclBGR" horiz-adv-x="413" 
d="M202 -8c-86 0 -140 66 -140 156v346c0 3 3 6 7 6h17c4 0 6 -3 6 -6v-346c0 -74 41 -127 110 -127s109 53 109 127v346c0 3 3 6 7 6h17c4 0 7 -3 7 -6v-487c0 -4 -3 -7 -7 -7h-17c-4 0 -7 3 -7 7v51c-22 -40 -59 -66 -109 -66z" />
    <glyph glyph-name="uni0439.loclBGR" horiz-adv-x="413" 
d="M208 563c-60 0 -101 39 -104 98c0 4 3 7 7 7h16c4 0 6 -3 7 -7c2 -45 29 -71 74 -71s72 26 75 71c0 4 3 7 7 7h16c4 0 6 -3 6 -7c-3 -59 -43 -98 -104 -98zM202 -8c-86 0 -140 66 -140 156v346c0 3 3 6 7 6h17c4 0 6 -3 6 -6v-346c0 -74 41 -127 110 -127s109 53 109 127
v346c0 3 3 6 7 6h17c4 0 7 -3 7 -6v-487c0 -4 -3 -7 -7 -7h-17c-4 0 -7 3 -7 7v51c-22 -40 -59 -66 -109 -66z" />
    <glyph glyph-name="uni045D.loclBGR" horiz-adv-x="404" 
d="M132 668h22c3 0 6 -2 8 -4l62 -97c2 -5 1 -8 -5 -8h-14c-3 0 -7 1 -9 4l-68 97c-3 4 -1 8 4 8zM202 -8c-86 0 -140 66 -140 156v346c0 3 3 6 7 6h17c4 0 6 -3 6 -6v-346c0 -74 41 -127 110 -127s109 53 109 127v346c0 3 3 6 7 6h17c4 0 7 -3 7 -6v-487c0 -4 -3 -7 -7 -7
h-17c-4 0 -7 3 -7 7v51c-22 -40 -59 -66 -109 -66z" />
    <glyph glyph-name="uni043A.loclBGR" horiz-adv-x="394" 
d="M209 278c84 -5 135 -58 135 -140v-131c0 -4 -2 -7 -6 -7h-17c-4 0 -7 3 -7 7v131c0 71 -43 114 -113 114h-99v-245c0 -4 -3 -7 -7 -7h-17c-4 0 -7 3 -7 7v687c0 3 3 6 7 6h17c4 0 7 -3 7 -6v-413h75l139 215c2 3 5 4 8 4h21c5 0 7 -4 4 -8z" />
    <glyph glyph-name="uni043B.loclBGR" horiz-adv-x="345" 
d="M297 5l-125 469l-124 -469c0 -3 -3 -5 -7 -5h-18c-4 0 -6 3 -5 8l129 480c3 9 8 14 18 14h15c9 0 16 -5 18 -14l129 -480c1 -5 -1 -8 -5 -8h-18c-4 0 -6 2 -7 5z" />
    <glyph glyph-name="uni043F.loclBGR" horiz-adv-x="404" 
d="M69 0c-4 0 -7 3 -7 7v342c0 93 50 159 140 159s140 -66 140 -159v-342c0 -4 -3 -7 -7 -7h-17c-4 0 -7 3 -7 7v342c0 77 -36 130 -109 130s-110 -53 -110 -130v-342c0 -4 -2 -7 -6 -7h-17z" />
    <glyph glyph-name="uni0442.loclBGR" horiz-adv-x="631" 
d="M434 508c85 0 135 -66 135 -151v-350c0 -4 -3 -7 -7 -7h-17c-4 0 -7 3 -7 7v350c0 69 -36 122 -104 122c-63 0 -103 -53 -103 -121v-351c0 -4 -3 -7 -7 -7h-17c-4 0 -7 3 -7 7v351c0 68 -41 121 -103 121c-69 0 -105 -53 -105 -122v-350c0 -4 -2 -7 -6 -7h-17
c-4 0 -7 3 -7 7v350c0 85 50 151 135 151c57 0 99 -35 119 -86c19 51 62 86 118 86z" />
    <glyph glyph-name="uni0443.loclBGR" horiz-adv-x="415" 
d="M337 500c4 0 7 -3 7 -6v-552c0 -86 -55 -152 -141 -152c-84 0 -138 63 -141 147c0 3 3 6 7 6h17c4 0 6 -2 6 -6c2 -68 43 -118 111 -118c70 0 110 53 110 123v128c-22 -41 -61 -67 -110 -67c-86 0 -141 66 -141 156v335c0 3 3 6 7 6h17c4 0 6 -3 6 -6v-335
c0 -74 42 -127 111 -127s110 53 110 127v335c0 3 3 6 7 6h17z" />
    <glyph glyph-name="uni0444.loclBGR" horiz-adv-x="633" 
d="M441 508c83 0 138 -65 138 -159v-198c0 -94 -55 -159 -138 -159c-48 0 -88 27 -109 70v-256c0 -3 -3 -6 -7 -6h-17c-4 0 -7 3 -7 6v258c-21 -44 -60 -72 -109 -72c-83 0 -138 65 -138 159v198c0 94 55 159 138 159c48 0 90 -28 109 -71v257c0 3 3 6 7 6h17c4 0 7 -3 7 -6
v-255c20 42 61 69 109 69zM192 21c65 0 109 53 109 130v198c0 77 -44 130 -109 130s-107 -53 -107 -130v-198c0 -77 42 -130 107 -130zM548 151v198c0 77 -42 130 -107 130c-66 0 -109 -53 -109 -130v-198c0 -77 43 -130 109 -130c65 0 107 53 107 130z" />
    <glyph glyph-name="uni0447.loclBGR" horiz-adv-x="409" 
d="M314 0c-4 0 -7 3 -7 7v228c-23 -39 -63 -65 -115 -65c-90 0 -146 66 -146 156v168c0 3 3 6 7 6h17c4 0 7 -3 7 -6v-168c0 -74 43 -127 115 -127s115 53 115 127v168c0 3 3 6 7 6h17c4 0 7 -3 7 -6v-487c0 -4 -3 -7 -7 -7h-17z" />
    <glyph glyph-name="uni0446.loclBGR" horiz-adv-x="430" 
d="M381 -106c-4 0 -7 2 -7 6v103c-25 3 -52 22 -54 65c-20 -53 -67 -76 -118 -76c-82 0 -140 66 -140 152v350c0 3 3 6 7 6h17c4 0 6 -3 6 -6v-350c0 -70 45 -123 110 -123c67 0 109 50 109 123v350c0 3 3 6 7 6h17c4 0 7 -3 7 -6v-388c0 -107 62 -56 62 -103v-103
c0 -4 -2 -6 -6 -6h-17z" />
    <glyph glyph-name="uni0448.loclBGR" horiz-adv-x="643" 
d="M197 -8c-79 0 -135 66 -135 152v350c0 3 3 6 7 6h17c4 0 6 -3 6 -6v-350c0 -70 43 -123 105 -123c63 0 105 53 105 123v350c0 3 2 6 6 6h18c3 0 6 -3 6 -6v-350c0 -70 42 -123 105 -123s104 50 104 123v350c0 3 3 6 7 6h17c4 0 7 -3 7 -6v-487c0 -4 -3 -7 -7 -7h-17
c-4 0 -7 3 -7 7v48c-21 -44 -61 -63 -104 -63c-58 0 -100 35 -120 86c-20 -51 -62 -86 -120 -86z" />
    <glyph glyph-name="uni0449.loclBGR" horiz-adv-x="660" 
d="M610 -106c-3 0 -6 2 -6 6v103c-26 3 -52 22 -54 65c-20 -53 -64 -76 -112 -76c-58 0 -101 35 -121 86c-19 -51 -62 -86 -120 -86c-79 0 -135 66 -135 152v350c0 3 3 6 7 6h17c4 0 6 -3 6 -6v-350c0 -70 43 -123 105 -123c63 0 105 53 105 123v350c0 3 2 6 6 6h18
c3 0 6 -3 6 -6v-350c0 -70 43 -123 106 -123c62 0 103 50 103 123v350c0 3 3 6 7 6h17c4 0 7 -3 7 -6v-388c0 -107 62 -56 62 -103v-103c0 -4 -3 -6 -6 -6h-18z" />
    <glyph glyph-name="uni044C.loclBGR" horiz-adv-x="389" 
d="M206 335c82 0 144 -67 144 -152v-39c0 -85 -62 -152 -144 -152s-144 67 -144 152v350c0 3 3 6 7 6h17c4 0 6 -3 6 -6v-232c23 44 67 73 114 73zM319 144v39c0 69 -48 123 -113 123s-114 -54 -114 -123v-39c0 -69 49 -123 114 -123s113 54 113 123z" />
    <glyph glyph-name="uni044A.loclBGR" horiz-adv-x="440" 
d="M257 335c82 0 144 -67 144 -152v-39c0 -85 -62 -152 -144 -152s-144 67 -144 152v327h-88c-4 0 -6 2 -6 6v17c0 3 2 6 6 6h102c10 0 17 -7 17 -16v-222c21 44 66 73 113 73zM370 144v39c0 69 -48 123 -113 123s-113 -54 -113 -123v-39c0 -69 48 -123 113 -123
s113 54 113 123z" />
    <glyph glyph-name="uni044E.loclBGR" horiz-adv-x="539" 
d="M342 -8c-85 0 -142 65 -142 159v101h-98v-245c0 -4 -3 -7 -7 -7h-17c-4 0 -7 3 -7 7v687c0 3 3 6 7 6h17c4 0 7 -3 7 -6v-413h98v68c0 94 57 159 142 159c86 0 143 -65 143 -159v-198c0 -94 -57 -159 -143 -159zM342 21c68 0 113 53 113 130v198c0 77 -45 130 -113 130
c-67 0 -112 -53 -112 -130v-198c0 -77 45 -130 112 -130z" />
    <glyph glyph-name="uni043B.ss01" horiz-adv-x="433" 
d="M239 508c90 0 132 -66 132 -159v-342c0 -4 -2 -7 -6 -7h-18c-3 0 -6 3 -6 7v342c0 77 -29 130 -102 130s-102 -53 -102 -130v-208c0 -83 -38 -140 -107 -144c-4 0 -6 3 -6 7v16c0 4 2 6 6 7c51 3 76 47 76 114v208c0 93 43 159 133 159z" />
    <glyph glyph-name="zero" unicode="0" horiz-adv-x="407" 
d="M204 -10c-84 0 -151 67 -151 152v417c0 84 67 151 151 151s151 -67 151 -151v-417c0 -85 -67 -152 -151 -152zM100 86l190 557c-22 22 -52 36 -86 36c-67 0 -119 -53 -119 -120v-417c0 -21 6 -39 15 -56zM204 21c66 0 119 53 119 121v417c0 20 -6 39 -15 55l-191 -556
c22 -23 53 -37 87 -37z" />
    <glyph glyph-name="one" unicode="1" horiz-adv-x="247" 
d="M140 700c18 0 29 -10 29 -29v-664c0 -4 -3 -7 -7 -7h-19c-4 0 -6 3 -6 7v662h-105c-4 0 -6 3 -6 7v18c0 3 2 6 6 6h108z" />
    <glyph glyph-name="two" unicode="2" horiz-adv-x="388" 
d="M343 553c0 -202 -266 -322 -266 -522h259c4 0 7 -3 7 -7v-17c0 -4 -3 -7 -7 -7h-275c-10 0 -16 6 -16 16v13c0 215 266 339 266 524c0 75 -49 126 -119 125c-66 0 -113 -52 -115 -133c0 -4 -3 -7 -7 -7h-18c-4 0 -7 3 -7 7c3 95 64 163 147 163c88 1 151 -65 151 -155z
" />
    <glyph glyph-name="three" unicode="3" horiz-adv-x="388" 
d="M187 -8c-83 0 -145 64 -148 164c0 4 3 6 7 6h19c4 0 6 -2 6 -6c3 -83 50 -133 116 -133c72 0 119 52 119 131v117c0 71 -53 124 -123 124h-41c-3 0 -5 2 -5 5v5c0 4 1 8 4 12l152 253h-239c-4 0 -6 3 -6 6v18c0 4 2 6 6 6h272c5 0 8 -3 8 -8v-5c0 -4 -1 -7 -3 -10
l-151 -254l13 -1c85 -3 145 -69 145 -151v-117c0 -96 -61 -162 -151 -162z" />
    <glyph glyph-name="four" unicode="4" horiz-adv-x="399" 
d="M357 254c4 0 7 -2 7 -6v-18c0 -4 -3 -7 -7 -7h-48v-216c0 -4 -3 -7 -7 -7h-19c-4 0 -6 3 -6 7v216h-234c-9 0 -15 6 -15 14v4c0 6 0 11 2 17l153 437c1 3 4 5 7 5h20c4 0 6 -3 5 -7l-153 -439h215v243c0 3 2 6 6 6h19c4 0 7 -3 7 -6v-243h48z" />
    <glyph glyph-name="five" unicode="5" horiz-adv-x="397" 
d="M203 470c86 0 149 -67 149 -160v-158c0 -95 -62 -162 -151 -162c-84 0 -149 64 -152 166c0 4 3 6 7 6h19c4 0 6 -2 6 -6c2 -85 53 -135 120 -135c72 0 119 53 119 131v158c0 76 -49 129 -119 129c-61 0 -111 -48 -115 -105c0 -6 -4 -11 -11 -11h-10c-7 0 -11 4 -11 12
v343c0 15 8 23 23 23h259c4 0 6 -3 6 -7v-17c0 -4 -2 -7 -6 -7h-250v-266c24 40 66 66 117 66z" />
    <glyph glyph-name="six" unicode="6" horiz-adv-x="405" 
d="M204 -8c-84 0 -151 67 -151 152v399c0 99 64 165 150 165c83 0 149 -64 152 -157c0 -4 -3 -7 -7 -7h-19c-4 0 -6 3 -6 7c-3 77 -54 127 -120 127c-68 0 -118 -53 -118 -135v-153c23 42 66 70 120 70c82 0 150 -67 150 -151v-165c0 -85 -68 -152 -151 -152zM204 22
c66 0 119 53 119 122v164c0 69 -53 122 -119 122s-119 -53 -119 -122v-164c0 -69 53 -122 119 -122z" />
    <glyph glyph-name="seven" unicode="7" horiz-adv-x="342" 
d="M26 694c0 3 2 6 6 6h261c7 0 11 -3 11 -11c0 -7 0 -11 -2 -18l-165 -665c-1 -4 -3 -6 -7 -6h-20c-4 0 -7 3 -6 7l165 663h-237c-4 0 -6 3 -6 6v18z" />
    <glyph glyph-name="eight" unicode="8" horiz-adv-x="404" 
d="M265 360c55 -22 92 -73 92 -138v-77c0 -86 -62 -153 -155 -153c-92 0 -154 67 -154 153v77c0 65 37 116 92 138c-48 24 -81 77 -81 137v64c0 80 56 147 143 147c88 0 143 -67 143 -147v-64c0 -60 -32 -113 -80 -137zM91 497c0 -68 49 -122 111 -122s111 54 111 122v64
c0 63 -41 117 -111 117s-111 -54 -111 -117v-64zM325 145v78c0 69 -55 122 -123 122c-67 0 -122 -53 -122 -122v-78c0 -69 47 -123 122 -123s123 54 123 123z" />
    <glyph glyph-name="nine" unicode="9" horiz-adv-x="415" 
d="M211 708c84 0 151 -67 151 -152v-399c0 -99 -64 -165 -150 -165c-83 0 -149 64 -152 157c0 4 3 7 7 7h19c4 0 6 -3 6 -7c3 -77 54 -127 120 -127c68 0 118 53 118 135v153c-23 -42 -66 -70 -120 -70c-82 0 -150 67 -150 151v165c0 85 68 152 151 152zM211 678
c-66 0 -119 -53 -119 -122v-164c0 -69 53 -122 119 -122s119 53 119 122v164c0 69 -53 122 -119 122z" />
    <glyph glyph-name="asterisk" unicode="*" horiz-adv-x="309" 
d="M93 507l-12 8c-3 2 -4 6 -2 9l54 73l-86 28c-4 1 -5 4 -4 8l5 13c1 5 4 6 8 4l85 -27v90c0 4 3 6 7 6h13c4 0 7 -2 7 -6v-90l86 27c4 1 6 1 8 -4l4 -12c1 -5 0 -8 -4 -9l-86 -28l53 -73c3 -3 2 -7 -1 -9l-12 -8c-2 -3 -6 -2 -9 1l-53 74l-52 -74c-3 -3 -6 -4 -9 -1z" />
    <glyph glyph-name="backslash" unicode="\" horiz-adv-x="370" 
d="M60 700c3 0 6 -2 7 -5l268 -687c2 -4 -1 -8 -5 -8h-20c-2 0 -6 2 -7 5l-268 687c-1 4 1 8 5 8h20z" />
    <glyph glyph-name="periodcentered" unicode="&#xb7;" horiz-adv-x="149" 
d="M56 224c-17 0 -29 13 -29 29c0 17 12 30 29 30c16 0 29 -13 29 -30c0 -16 -13 -29 -29 -29z" />
    <glyph glyph-name="bullet" unicode="&#x2022;" horiz-adv-x="188" 
d="M94 201c-28 0 -49 20 -49 49c0 30 21 51 49 51c30 0 51 -21 51 -51c0 -29 -21 -49 -51 -49z" />
    <glyph glyph-name="colon" unicode=":" horiz-adv-x="149" 
d="M56 342c-17 0 -29 13 -29 29c0 17 12 30 29 30c16 0 29 -13 29 -30c0 -16 -13 -29 -29 -29zM56 -8c-17 0 -29 13 -29 29c0 17 12 30 29 30c16 0 29 -13 29 -30c0 -16 -13 -29 -29 -29z" />
    <glyph glyph-name="comma" unicode="," horiz-adv-x="85" 
d="M27 48c0 5 3 7 7 7h26c5 0 7 -2 6 -7l-23 -140c0 -4 -4 -6 -8 -6h-10c-4 0 -6 2 -6 6z" />
    <glyph glyph-name="ellipsis" unicode="&#x2026;" horiz-adv-x="441" 
d="M74 -8c-16 0 -29 13 -29 29c0 17 13 30 29 30c17 0 30 -13 30 -30c0 -16 -13 -29 -30 -29zM220 -8c-17 0 -29 13 -29 29c0 17 12 30 29 30s30 -13 30 -30c0 -16 -13 -29 -30 -29zM366 -8c-16 0 -29 13 -29 29c0 17 13 30 29 30c17 0 30 -13 30 -30c0 -16 -13 -29 -30 -29
z" />
    <glyph glyph-name="exclam" unicode="!" horiz-adv-x="214" 
d="M98 119c-4 0 -7 3 -7 7v568c0 3 3 6 7 6h19c3 0 6 -3 6 -6v-568c0 -4 -3 -7 -6 -7h-19zM107 -8c-17 0 -29 12 -29 29c0 16 12 28 29 28c16 0 29 -12 29 -28c0 -17 -13 -29 -29 -29z" />
    <glyph glyph-name="exclamdown" unicode="&#xa1;" horiz-adv-x="200" 
d="M100 508c16 0 29 -12 29 -29c0 -16 -13 -28 -29 -28c-17 0 -29 12 -29 28c0 17 12 29 29 29zM91 381h19c3 0 6 -3 6 -7v-568c0 -3 -3 -6 -6 -6h-19c-4 0 -7 3 -7 6v568c0 4 3 7 7 7z" />
    <glyph glyph-name="numbersign" unicode="#" horiz-adv-x="525" 
d="M91 0c-4 0 -7 3 -6 7l42 182h-95c-4 0 -7 2 -5 7l3 16c1 3 4 5 8 5h95l59 255h-95c-4 0 -7 2 -6 7l4 16c1 3 3 5 7 5h96l44 195c2 3 3 5 7 5h17c4 0 7 -3 6 -7l-45 -193h141l45 195c1 3 2 5 6 5h17c4 0 7 -3 6 -7l-44 -193h94c5 0 8 -2 7 -7l-4 -15c-1 -4 -3 -6 -7 -6
h-96l-59 -255h95c4 0 7 -2 6 -7l-4 -15c-1 -4 -3 -6 -7 -6h-96l-42 -183c-1 -4 -3 -6 -7 -6h-17c-4 0 -6 3 -5 7l41 182h-141l-41 -183c-1 -4 -3 -6 -7 -6h-17zM162 217h141l59 255h-141z" />
    <glyph glyph-name="period" unicode="." horiz-adv-x="95" 
d="M48 -8c-17 0 -29 13 -29 29c0 17 12 30 29 30c16 0 29 -13 29 -30c0 -16 -13 -29 -29 -29z" />
    <glyph glyph-name="question" unicode="?" horiz-adv-x="313" 
d="M138 128c-4 0 -7 2 -7 7l-1 61c-1 174 141 200 141 355c0 76 -51 127 -119 127s-118 -52 -120 -133c0 -4 -3 -7 -6 -7h-19c-4 0 -7 3 -7 7c3 96 67 163 152 163c87 0 151 -66 151 -157c0 -164 -141 -191 -141 -357l1 -59c0 -5 -3 -7 -6 -7h-19zM149 -8
c-17 0 -29 12 -29 29c0 16 12 28 29 28c16 0 29 -12 29 -28c0 -17 -13 -29 -29 -29z" />
    <glyph glyph-name="questiondown" unicode="&#xbf;" horiz-adv-x="313" 
d="M164 508c17 0 29 -12 29 -29c0 -16 -12 -28 -29 -28c-16 0 -29 12 -29 28c0 17 13 29 29 29zM175 372c4 0 7 -2 7 -7l1 -61c1 -174 -141 -200 -141 -355c0 -76 51 -127 119 -127s118 52 120 133c0 4 3 7 6 7h19c4 0 7 -3 7 -7c-3 -96 -67 -163 -152 -163
c-87 0 -151 66 -151 157c0 164 141 191 141 357l-1 59c0 5 3 7 6 7h19z" />
    <glyph glyph-name="quotedbl" unicode="&#x22;" horiz-adv-x="181" 
d="M31 693c0 5 3 7 7 7h26c5 0 7 -2 6 -7l-23 -140c0 -4 -4 -6 -8 -6h-10c-4 0 -6 2 -6 6zM117 693c0 5 3 7 7 7h26c5 0 7 -2 6 -7l-23 -140c0 -4 -4 -6 -8 -6h-10c-4 0 -6 2 -6 6z" />
    <glyph glyph-name="quotesingle" unicode="'" horiz-adv-x="113" 
d="M40 694c0 4 3 6 7 6h26c4 0 7 -2 6 -7l-24 -140c0 -4 -3 -6 -7 -6h-11c-4 0 -6 2 -6 7z" />
    <glyph glyph-name="semicolon" unicode=";" horiz-adv-x="145" 
d="M62 341c-17 0 -29 13 -29 29c0 17 12 30 29 30c16 0 29 -13 29 -30c0 -16 -13 -29 -29 -29zM45 48c0 5 3 7 7 7h26c5 0 7 -2 6 -7l-23 -140c0 -4 -4 -6 -8 -6h-10c-4 0 -6 2 -6 6z" />
    <glyph glyph-name="slash" unicode="/" horiz-adv-x="376" 
d="M306 695c1 3 4 5 7 5h20c4 0 6 -4 5 -8l-268 -687c-1 -3 -5 -5 -7 -5h-20c-4 0 -7 4 -5 8z" />
    <glyph glyph-name="underscore" unicode="_" horiz-adv-x="384" 
d="M17 -14c0 4 3 6 7 6h337c3 0 6 -2 6 -6v-17c0 -4 -3 -6 -6 -6h-337c-4 0 -7 2 -7 6v17z" />
    <glyph glyph-name="braceleft" unicode="{" horiz-adv-x="269" 
d="M139 484c0 -53 -22 -104 -68 -130c46 -26 68 -77 68 -130v-198c0 -64 42 -112 98 -116c4 0 6 -3 6 -6v-18c0 -3 -2 -6 -6 -6c-74 4 -130 65 -130 146v198c0 49 -24 93 -70 113c-3 1 -5 4 -5 7v20c0 3 2 6 5 7c46 20 70 64 70 113v190c0 81 56 142 130 146c4 0 6 -3 6 -6
v-18c0 -4 -2 -6 -6 -6c-56 -4 -98 -52 -98 -116v-190z" />
    <glyph glyph-name="braceright" unicode="}" horiz-adv-x="276" 
d="M239 371c3 -1 5 -4 5 -7v-20c0 -3 -2 -6 -5 -7c-46 -20 -70 -64 -70 -113v-198c0 -81 -56 -142 -130 -146c-4 0 -6 3 -6 6v18c0 3 2 6 6 6c56 4 98 52 98 116v198c0 53 22 104 68 130c-46 26 -68 77 -68 130v190c0 64 -42 112 -98 116c-4 0 -6 2 -6 6v18c0 3 2 6 6 6
c74 -4 130 -65 130 -146v-190c0 -49 24 -93 70 -113z" />
    <glyph glyph-name="bracketleft" unicode="[" horiz-adv-x="242" 
d="M193 796c0 -4 -2 -6 -6 -6h-84v-880h84c4 0 6 -3 6 -6v-18c0 -3 -2 -6 -6 -6h-100c-10 0 -16 6 -16 16v908c0 10 6 16 16 16h100c4 0 6 -3 6 -6v-18z" />
    <glyph glyph-name="bracketright" unicode="]" horiz-adv-x="238" 
d="M45 796v18c0 3 2 6 6 6h100c10 0 16 -6 16 -16v-908c0 -10 -6 -16 -16 -16h-100c-4 0 -6 3 -6 6v18c0 3 2 6 6 6h84v880h-84c-4 0 -6 2 -6 6z" />
    <glyph glyph-name="parenleft" unicode="(" horiz-adv-x="218" 
d="M185 -120c-70 3 -116 57 -116 138v665c0 81 45 134 116 137c3 0 6 -3 6 -6v-18c0 -4 -2 -6 -6 -6c-52 -3 -84 -42 -84 -107v-665c0 -65 32 -105 84 -108c4 0 6 -3 6 -6v-18c0 -3 -3 -6 -6 -6z" />
    <glyph glyph-name="parenright" unicode=")" horiz-adv-x="217" 
d="M32 -120c-3 0 -6 3 -6 6v18c0 3 2 6 6 6c52 3 84 43 84 108v665c0 65 -32 104 -84 107c-4 0 -6 2 -6 6v18c0 3 3 6 6 6c71 -3 116 -56 116 -137v-665c0 -81 -46 -135 -116 -138z" />
    <glyph glyph-name="emdash" unicode="&#x2014;" horiz-adv-x="510" 
d="M24 265c0 3 2 6 6 6h450c4 0 7 -3 7 -6v-18c0 -3 -3 -6 -7 -6h-450c-4 0 -6 3 -6 6v18z" />
    <glyph glyph-name="endash" unicode="&#x2013;" horiz-adv-x="388" 
d="M29 241c-4 0 -6 3 -6 6v18c0 3 2 6 6 6h330c4 0 7 -3 7 -6v-18c0 -3 -3 -6 -7 -6h-330z" />
    <glyph glyph-name="hyphen" unicode="-" horiz-adv-x="288" 
d="M29 241c-4 0 -6 3 -6 6v18c0 3 2 6 6 6h230c4 0 7 -3 7 -6v-18c0 -3 -3 -6 -7 -6h-230z" />
    <glyph glyph-name="emdash.case" horiz-adv-x="508" 
d="M23 365c0 3 2 6 6 6h450c4 0 7 -3 7 -6v-18c0 -3 -3 -6 -7 -6h-450c-4 0 -6 3 -6 6v18z" />
    <glyph glyph-name="endash.case" horiz-adv-x="388" 
d="M29 341c-4 0 -6 3 -6 6v18c0 3 2 6 6 6h330c4 0 7 -3 7 -6v-18c0 -3 -3 -6 -7 -6h-330z" />
    <glyph glyph-name="hyphen.case" horiz-adv-x="288" 
d="M29 341c-4 0 -6 3 -6 6v18c0 3 2 6 6 6h230c4 0 7 -3 7 -6v-18c0 -3 -3 -6 -7 -6h-230z" />
    <glyph glyph-name="guillemotleft" unicode="&#xab;" horiz-adv-x="381" 
d="M156 83c-3 0 -7 1 -8 4l-119 159c-5 7 -5 15 0 22l119 159c1 3 5 4 8 4h19c5 0 7 -4 4 -8l-125 -166l125 -166c3 -4 1 -8 -4 -8h-19zM323 83c-3 0 -7 1 -8 4l-119 159c-5 7 -5 15 0 22l119 159c1 3 5 4 8 4h19c5 0 7 -4 4 -8l-125 -166l125 -166c3 -4 1 -8 -4 -8h-19z
" />
    <glyph glyph-name="guillemotright" unicode="&#xbb;" horiz-adv-x="381" 
d="M59 83h-19c-5 0 -7 4 -4 8l125 166l-125 166c-3 4 -1 8 4 8h19c3 0 7 -1 8 -4l119 -159c5 -7 5 -15 0 -22l-119 -159c-1 -3 -5 -4 -8 -4zM226 83h-19c-5 0 -7 4 -4 8l125 166l-125 166c-3 4 -1 8 4 8h19c3 0 7 -1 8 -4l119 -159c5 -7 5 -15 0 -22l-119 -159
c-1 -3 -5 -4 -8 -4z" />
    <glyph glyph-name="guilsinglleft" unicode="&#x2039;" horiz-adv-x="215" 
d="M157 83c-3 0 -7 1 -8 4l-119 159c-5 7 -5 15 0 22l119 159c1 3 5 4 8 4h19c5 0 7 -4 4 -8l-125 -166l125 -166c3 -4 1 -8 -4 -8h-19z" />
    <glyph glyph-name="guilsinglright" unicode="&#x203a;" horiz-adv-x="214" 
d="M58 83h-19c-5 0 -7 4 -4 8l125 166l-125 166c-3 4 -1 8 4 8h19c3 0 7 -1 8 -4l119 -159c5 -7 5 -15 0 -22l-119 -159c-1 -3 -5 -4 -8 -4z" />
    <glyph glyph-name="quotedblbase" unicode="&#x201e;" horiz-adv-x="97" 
d="M27 48c0 5 3 7 7 7h26c5 0 7 -2 6 -7l-23 -140c0 -4 -4 -6 -8 -6h-10c-4 0 -6 2 -6 6z" />
    <glyph glyph-name="quotedblleft" unicode="&#x201c;" horiz-adv-x="192" 
d="M75 554c0 -5 -3 -7 -7 -7h-26c-5 0 -7 2 -6 7l23 140c0 4 4 6 8 6h10c4 0 6 -2 6 -6zM161 554c0 -5 -3 -7 -7 -7h-26c-5 0 -7 2 -6 7l23 140c0 4 4 6 8 6h10c4 0 6 -2 6 -6z" />
    <glyph glyph-name="quotedblright" unicode="&#x201d;" horiz-adv-x="194" 
d="M30 693c0 5 3 7 7 7h26c5 0 7 -2 6 -7l-23 -140c0 -4 -4 -6 -8 -6h-10c-4 0 -6 2 -6 6zM116 693c0 5 3 7 7 7h26c5 0 7 -2 6 -7l-23 -140c0 -4 -4 -6 -8 -6h-10c-4 0 -6 2 -6 6z" />
    <glyph glyph-name="quoteleft" unicode="&#x2018;" horiz-adv-x="113" 
d="M70 554c0 -5 -3 -7 -7 -7h-26c-5 0 -7 2 -6 7l23 140c0 4 4 6 8 6h10c4 0 6 -2 6 -6z" />
    <glyph glyph-name="quoteright" unicode="&#x2019;" horiz-adv-x="113" 
d="M40 693c0 5 3 7 7 7h26c5 0 7 -2 6 -7l-23 -140c0 -4 -4 -6 -8 -6h-10c-4 0 -6 2 -6 6z" />
    <glyph glyph-name="quotesinglbase" unicode="&#x201a;" horiz-adv-x="94" 
d="M27 48c0 5 3 7 7 7h26c5 0 7 -2 6 -7l-23 -140c0 -4 -4 -6 -8 -6h-10c-4 0 -6 2 -6 6z" />
    <glyph glyph-name="guillemotleft.case" horiz-adv-x="381" 
d="M156 143c-3 0 -7 1 -8 4l-119 159c-5 7 -5 15 0 22l119 159c1 3 5 4 8 4h19c5 0 7 -4 4 -8l-125 -166l125 -166c3 -4 1 -8 -4 -8h-19zM323 143c-3 0 -7 1 -8 4l-119 159c-5 7 -5 15 0 22l119 159c1 3 5 4 8 4h19c5 0 7 -4 4 -8l-125 -166l125 -166c3 -4 1 -8 -4 -8h-19z
" />
    <glyph glyph-name="guillemotright.case" horiz-adv-x="381" 
d="M58 143h-19c-5 0 -7 4 -4 8l125 166l-125 166c-3 4 -1 8 4 8h19c3 0 7 -1 8 -4l119 -159c5 -7 5 -15 0 -22l-119 -159c-1 -3 -5 -4 -8 -4zM225 143h-19c-5 0 -7 4 -4 8l125 166l-125 166c-3 4 -1 8 4 8h19c3 0 7 -1 8 -4l119 -159c5 -7 5 -15 0 -22l-119 -159
c-1 -3 -5 -4 -8 -4z" />
    <glyph glyph-name="guilsinglleft.case" horiz-adv-x="214" 
d="M156 143c-3 0 -7 1 -8 4l-119 159c-5 7 -5 15 0 22l119 159c1 3 5 4 8 4h19c5 0 7 -4 4 -8l-125 -166l125 -166c3 -4 1 -8 -4 -8h-19z" />
    <glyph glyph-name="guilsinglright.case" horiz-adv-x="214" 
d="M58 143h-19c-5 0 -7 4 -4 8l125 166l-125 166c-3 4 -1 8 4 8h19c3 0 7 -1 8 -4l119 -159c5 -7 5 -15 0 -22l-119 -159c-1 -3 -5 -4 -8 -4z" />
    <glyph glyph-name="space" unicode=" " horiz-adv-x="251" 
 />
    <glyph glyph-name="cent" unicode="&#xa2;" horiz-adv-x="388" 
d="M189 -85c-4 0 -7 3 -7 6v72c-74 9 -128 72 -128 153v204c0 89 55 149 128 157v72c0 3 3 6 7 6h13c4 0 6 -3 6 -6v-71c73 -5 129 -63 133 -133c0 -4 -3 -7 -7 -7h-17c-4 0 -7 3 -7 7c-3 57 -50 104 -112 104c-65 0 -113 -51 -113 -129v-204c0 -71 49 -125 115 -125
c63 0 110 50 114 115c0 4 2 6 6 6h18c4 0 6 -2 6 -6c-3 -78 -60 -140 -136 -144v-71c0 -3 -2 -6 -6 -6h-13z" />
    <glyph glyph-name="currency" unicode="&#xa4;" horiz-adv-x="420" 
d="M210 125c-46 0 -82 16 -107 44l-36 -42c-3 -4 -6 -4 -9 -1l-11 10c-3 2 -4 5 -2 9l40 47c-15 25 -22 55 -22 88v75c0 33 7 62 22 87l-40 48c-2 3 -1 6 2 9l11 10c3 3 6 2 9 -1l36 -43c25 28 61 45 107 45s82 -17 107 -45l36 43c3 3 6 4 9 1l11 -10c3 -3 4 -6 2 -9
l-40 -48c15 -24 22 -54 22 -87v-75c0 -33 -7 -63 -22 -88l40 -47c2 -4 1 -7 -2 -9l-11 -10c-3 -3 -6 -2 -9 1l-35 42c-26 -28 -62 -44 -108 -44zM210 154c73 0 116 53 116 126v75c0 72 -43 126 -116 126s-116 -54 -116 -126v-75c0 -73 43 -126 116 -126z" />
    <glyph glyph-name="dollar" unicode="$" horiz-adv-x="408" 
d="M363 150c0 -86 -57 -152 -146 -158v-71c0 -3 -2 -6 -6 -6h-13c-4 0 -7 3 -7 6v72c-88 6 -145 72 -146 162c0 4 3 7 7 7h19c4 0 6 -3 6 -7c2 -78 50 -133 128 -133c79 0 126 54 126 128c0 187 -281 208 -281 402c0 89 58 150 141 156v71c0 3 3 6 7 6h13c4 0 6 -3 6 -6v-71
c80 -7 139 -67 140 -163c0 -4 -3 -7 -7 -7h-19c-4 0 -6 3 -6 7c-2 86 -51 133 -121 133c-71 0 -122 -48 -122 -126c0 -173 281 -197 281 -402z" />
    <glyph glyph-name="Euro" unicode="&#x20ac;" horiz-adv-x="481" 
d="M431 168c4 0 7 -3 7 -7c-3 -98 -68 -169 -161 -169s-160 71 -160 167v117h-67c-4 0 -7 3 -7 7v14c0 3 3 6 7 6h67v93h-67c-4 0 -7 3 -7 7v13c0 4 3 7 7 7h67v118c0 95 67 167 160 167c90 0 153 -72 156 -168c0 -3 -3 -6 -7 -6h-19c-4 0 -6 2 -6 6c-3 81 -50 138 -124 138
c-75 0 -128 -57 -128 -137v-118h206c4 0 7 -3 7 -7v-13c0 -4 -3 -7 -7 -7h-206v-93h206c4 0 7 -3 7 -6v-14c0 -4 -3 -7 -7 -7h-206v-117c0 -80 53 -137 128 -137c78 0 127 57 129 139c0 4 2 7 6 7h19z" />
    <glyph glyph-name="sterling" unicode="&#xa3;" horiz-adv-x="461" 
d="M417 31c4 0 6 -3 6 -7v-17c0 -4 -2 -7 -6 -7h-377c-4 0 -7 3 -7 7v14c0 6 4 9 9 10c37 3 63 40 63 105v205h-64c-4 0 -7 2 -7 6v17c0 4 3 6 7 6h64v171c0 93 64 167 153 167s150 -72 153 -163c0 -4 -3 -7 -7 -7h-19c-4 0 -6 3 -6 7c-3 76 -49 133 -121 133
c-70 0 -121 -59 -121 -137v-171h207c4 0 6 -2 6 -6v-17c0 -4 -2 -6 -6 -6h-207v-206c0 -48 -11 -84 -35 -104h315z" />
    <glyph glyph-name="yen" unicode="&#xa5;" horiz-adv-x="496" 
d="M431 229h-169v-76h169c4 0 7 -3 7 -7v-15c0 -3 -3 -6 -7 -6h-169v-118c0 -4 -3 -7 -7 -7h-19c-4 0 -6 3 -6 7v118h-165c-4 0 -7 3 -7 6v15c0 4 3 7 7 7h165v76h-165c-4 0 -7 3 -7 6v15c0 4 3 7 7 7h95c-41 28 -68 77 -68 134v303c0 3 3 6 6 6h20c3 0 6 -3 6 -6v-303
c0 -77 55 -132 122 -132s121 55 121 132v303c0 3 3 6 7 6h19c4 0 6 -3 6 -6v-303c0 -57 -28 -106 -69 -134h101c4 0 7 -3 7 -7v-15c0 -3 -3 -6 -7 -6z" />
    <glyph glyph-name="approxequal" unicode="&#x2248;" horiz-adv-x="419" 
d="M354 457c3 4 6 5 9 1l9 -13c1 -2 2 -5 0 -9c-23 -40 -49 -56 -80 -56c-56 0 -114 55 -161 55c-32 0 -52 -24 -66 -47c-4 -5 -8 -4 -10 0l-8 15c-1 2 -1 5 0 8c25 38 52 54 82 54c57 0 116 -55 163 -55c31 0 50 26 62 47zM354 328c3 4 6 5 9 0l9 -12c1 -3 2 -6 0 -9
c-23 -40 -49 -56 -80 -56c-56 0 -114 55 -161 55c-32 0 -52 -25 -66 -47c-4 -6 -8 -4 -10 -1l-8 15c-1 3 -1 5 0 8c25 38 52 54 82 54c57 0 116 -55 163 -55c31 0 50 27 62 48z" />
    <glyph glyph-name="asciitilde" unicode="~" horiz-adv-x="408" 
d="M349 394c2 4 6 5 9 1l8 -13c2 -3 3 -5 1 -9c-23 -39 -48 -56 -81 -56c-55 0 -114 55 -160 55c-29 0 -52 -22 -67 -47c-3 -5 -6 -5 -9 -1l-8 15c-2 3 -2 6 0 9c25 38 52 53 83 53c55 0 115 -55 161 -55c29 0 51 25 63 48z" />
    <glyph glyph-name="divide" unicode="&#xf7;" horiz-adv-x="418" 
d="M209 458c-17 0 -31 14 -31 31c0 18 14 31 31 31s31 -13 31 -31c0 -17 -14 -31 -31 -31zM52 345c-4 0 -6 2 -6 6v16c0 4 2 6 6 6h314c4 0 6 -2 6 -6v-16c0 -4 -2 -6 -6 -6h-314zM209 195c-17 0 -31 14 -31 31c0 18 14 32 31 32s31 -14 31 -32c0 -17 -14 -31 -31 -31z" />
    <glyph glyph-name="emptyset" unicode="&#x2205;" horiz-adv-x="799" 
d="M738 745c4 0 9 -3 5 -7l-102 -122c64 -63 101 -155 101 -266c0 -215 -138 -358 -344 -358c-88 0 -164 26 -222 73l-88 -105c-2 -3 -5 -5 -9 -5h-18c-4 0 -9 3 -6 7l102 121c-65 62 -103 155 -103 267c0 215 138 358 344 358c89 0 165 -27 223 -74l90 106c2 3 5 5 9 5h18z
M82 350c0 -103 34 -188 93 -246l429 509c-54 44 -124 69 -206 69c-190 0 -316 -133 -316 -332zM715 350c0 102 -34 187 -92 245l-429 -509c53 -43 123 -67 204 -67c190 0 317 132 317 331z" />
    <glyph glyph-name="equal" unicode="=" horiz-adv-x="400" 
d="M43 398c-4 0 -6 3 -6 7v16c0 4 2 6 6 6h314c4 0 6 -2 6 -6v-16c0 -4 -2 -7 -6 -7h-314zM43 284c-4 0 -6 3 -6 7v16c0 4 2 6 6 6h314c4 0 6 -2 6 -6v-16c0 -4 -2 -7 -6 -7h-314z" />
    <glyph glyph-name="greater" unicode="&#x3e;" horiz-adv-x="337" 
d="M290 375c2 -1 3 -3 3 -5v-25c0 -1 -1 -4 -3 -5l-234 -134c-6 -2 -12 1 -12 7v15c0 1 1 4 3 5l218 125l-218 124c-2 1 -3 4 -3 6v15c0 6 6 9 12 7z" />
    <glyph glyph-name="greaterequal" unicode="&#x2265;" horiz-adv-x="376" 
d="M298 407c1 -1 3 -4 3 -6v-24c0 -2 -2 -5 -3 -6l-235 -116c-5 -3 -11 0 -11 7v14c0 2 1 4 2 5l217 108l-217 108c-1 1 -2 3 -2 5v15c0 6 6 10 11 7zM294 184c4 0 7 -2 7 -6v-16c0 -4 -3 -6 -7 -6h-236c-4 0 -6 2 -6 6v16c0 4 2 6 6 6h236z" />
    <glyph glyph-name="infinity" unicode="&#x221e;" horiz-adv-x="627" 
d="M444 391c75 0 129 -61 129 -141c0 -83 -54 -140 -128 -140c-76 0 -107 49 -131 105c-25 -56 -56 -105 -132 -105c-73 0 -128 57 -128 140c0 80 55 141 130 141c74 0 105 -49 130 -103c24 54 55 103 130 103zM182 138c67 0 91 55 115 113c-23 58 -47 111 -113 111
c-61 0 -99 -46 -99 -112c0 -65 38 -112 97 -112zM445 138c59 0 97 47 97 112c0 66 -38 112 -98 112c-67 0 -90 -53 -114 -111c24 -58 48 -113 115 -113z" />
    <glyph glyph-name="integral" unicode="&#x222b;" horiz-adv-x="312" 
d="M289 702c4 0 6 -2 6 -6v-16c0 -4 -2 -7 -6 -7h-2c-79 -2 -116 -55 -116 -131v-587c0 -92 -50 -158 -146 -160h-1c-4 0 -7 3 -7 6v17c0 4 2 6 7 6h1c79 3 116 55 116 131v587c0 92 50 158 146 160h2z" />
    <glyph glyph-name="less" unicode="&#x3c;" horiz-adv-x="352" 
d="M308 488c0 -2 -1 -5 -3 -6l-218 -124l218 -125c2 -1 3 -4 3 -5v-15c0 -6 -6 -9 -12 -7l-234 134c-2 1 -3 4 -3 5v25c0 2 1 4 3 5l234 135c6 2 12 -1 12 -7v-15z" />
    <glyph glyph-name="lessequal" unicode="&#x2264;" horiz-adv-x="352" 
d="M300 502c0 -2 -1 -4 -2 -5l-217 -108l217 -108c1 -1 2 -3 2 -5v-14c0 -7 -6 -10 -11 -7l-235 116c-1 1 -3 4 -3 6v24c0 2 2 5 3 6l235 117c5 3 11 -1 11 -7v-15zM294 184c4 0 6 -2 6 -6v-16c0 -4 -2 -6 -6 -6h-236c-4 0 -7 2 -7 6v16c0 4 3 6 7 6h236z" />
    <glyph glyph-name="logicalnot" unicode="&#xac;" horiz-adv-x="418" 
d="M366 373c4 0 6 -3 6 -7v-99c0 -4 -2 -7 -6 -7h-15c-4 0 -6 3 -6 7v77h-293c-4 0 -6 3 -6 6v16c0 4 2 7 6 7h314z" />
    <glyph glyph-name="minus" unicode="&#x2212;" horiz-adv-x="418" 
d="M52 344c-4 0 -6 3 -6 6v16c0 4 2 7 6 7h314c4 0 6 -3 6 -7v-16c0 -3 -2 -6 -6 -6h-314z" />
    <glyph glyph-name="multiply" unicode="&#xd7;" horiz-adv-x="418" 
d="M64 202l-11 11c-3 3 -3 6 0 9l136 136l-136 136c-3 3 -3 7 0 10l11 10c3 4 6 4 9 0l136 -136l136 136c3 4 7 4 9 0l11 -10c3 -3 3 -7 0 -10l-136 -136l136 -136c3 -3 3 -6 0 -9l-11 -11c-2 -3 -6 -3 -9 0l-136 136l-136 -136c-3 -3 -6 -3 -9 0z" />
    <glyph glyph-name="notequal" unicode="&#x2260;" horiz-adv-x="418" 
d="M366 398h-122l-45 -85h167c4 0 6 -2 6 -6v-16c0 -4 -2 -7 -6 -7h-183l-36 -69c-1 -3 -5 -4 -7 -4h-15c-5 0 -8 2 -5 7l35 66h-103c-4 0 -6 3 -6 7v16c0 4 2 6 6 6h118l44 85h-162c-4 0 -6 3 -6 7v16c0 4 2 6 6 6h178l41 79c1 3 5 5 8 5h15c5 0 7 -3 5 -8l-40 -76h107
c4 0 6 -2 6 -6v-16c0 -4 -2 -7 -6 -7z" />
    <glyph glyph-name="partialdiff" unicode="&#x2202;" horiz-adv-x="412" 
d="M143 708c142 0 207 -74 207 -229v-334c0 -86 -63 -153 -148 -153c-84 0 -148 67 -148 153v211c0 85 64 152 148 152c49 0 92 -32 118 -71v42c0 138 -53 200 -177 200h-24c-4 0 -6 2 -6 6v16c0 4 2 7 6 7h24zM320 145v211c0 69 -51 123 -118 123s-117 -54 -117 -123v-211
c0 -70 50 -124 117 -124c68 0 118 54 118 124z" />
    <glyph glyph-name="percent" unicode="%" horiz-adv-x="594" 
d="M115 396c-48 0 -79 38 -79 85v142c0 47 31 85 79 85c49 0 80 -38 80 -85v-142c0 -47 -31 -85 -80 -85zM43 -2c-4 0 -9 3 -6 7l491 692c1 3 3 5 7 5h17c4 0 9 -3 6 -7l-491 -692c-1 -3 -3 -5 -7 -5h-17zM115 423c34 0 52 26 52 58v142c0 33 -18 59 -52 59
c-33 0 -53 -26 -53 -59v-142c0 -32 20 -58 53 -58zM479 -8c-48 0 -80 38 -80 85v142c0 47 32 85 80 85c49 0 80 -38 80 -85v-142c0 -47 -31 -85 -80 -85zM479 18c34 0 52 27 52 59v142c0 32 -18 59 -52 59c-33 0 -53 -27 -53 -59v-142c0 -32 20 -59 53 -59z" />
    <glyph glyph-name="perthousand" unicode="&#x2030;" horiz-adv-x="840" 
d="M115 396c-47 0 -79 38 -79 85v142c0 47 32 85 79 85c50 0 80 -38 80 -85v-142c0 -47 -30 -85 -80 -85zM43 -2c-4 0 -9 3 -5 7l522 692c2 3 3 5 7 5h17c5 0 9 -3 6 -7l-522 -692c-2 -3 -4 -5 -8 -5h-17zM115 423c34 0 53 26 53 58v142c0 33 -19 59 -53 59
c-33 0 -53 -26 -53 -59v-142c0 -32 20 -58 53 -58zM511 -8c-47 0 -79 38 -79 85v142c0 47 32 85 79 85c50 0 80 -38 80 -85v-142c0 -47 -30 -85 -80 -85zM741 -8c-47 0 -79 38 -79 85v142c0 47 32 85 79 85c50 0 80 -38 80 -85v-142c0 -47 -30 -85 -80 -85zM511 18
c34 0 53 27 53 59v142c0 32 -19 59 -53 59c-33 0 -53 -27 -53 -59v-142c0 -32 20 -59 53 -59zM741 18c34 0 52 27 52 59v142c0 32 -18 59 -52 59c-33 0 -53 -27 -53 -59v-142c0 -32 20 -59 53 -59z" />
    <glyph glyph-name="plus" unicode="+" horiz-adv-x="418" 
d="M366 373c4 0 6 -3 6 -7v-16c0 -3 -2 -6 -6 -6h-143v-144c0 -4 -2 -6 -6 -6h-16c-4 0 -6 2 -6 6v144h-143c-4 0 -6 3 -6 6v16c0 4 2 7 6 7h143v144c0 4 2 6 6 6h16c4 0 6 -2 6 -6v-144h143z" />
    <glyph glyph-name="plusminus" unicode="&#xb1;" horiz-adv-x="418" 
d="M366 394c4 0 6 -3 6 -6v-16c0 -4 -2 -7 -6 -7h-143v-143c0 -4 -2 -6 -6 -6h-16c-4 0 -6 2 -6 6v143h-143c-4 0 -6 3 -6 7v16c0 3 2 6 6 6h143v143c0 4 2 7 6 7h16c4 0 6 -3 6 -7v-143h143zM366 173c4 0 6 -3 6 -7v-15c0 -4 -2 -7 -6 -7h-314c-4 0 -6 3 -6 7v15
c0 4 2 7 6 7h314z" />
    <glyph glyph-name="product" unicode="&#x220f;" horiz-adv-x="473" 
d="M85 -100c-4 0 -7 3 -7 6v765c0 19 11 29 29 29h258c19 0 29 -10 29 -29v-765c0 -3 -2 -6 -6 -6h-19c-4 0 -7 3 -7 6v764h-252v-764c0 -3 -2 -6 -6 -6h-19z" />
    <glyph glyph-name="radical" unicode="&#x221a;" horiz-adv-x="450" 
d="M444 800c4 0 7 -3 6 -7l-182 -781c-2 -9 -8 -14 -17 -14h-20c-10 0 -15 5 -17 14l-110 457h-80c-4 0 -6 2 -6 6v17c0 4 2 7 6 7h91c9 0 15 -5 17 -15l109 -450l177 760c1 4 3 6 7 6h19z" />
    <glyph glyph-name="summation" unicode="&#x2211;" horiz-adv-x="343" 
d="M48 -2c-7 0 -12 3 -12 11c0 7 -1 12 2 18l163 323l-163 323c-3 6 -2 12 -2 19s5 10 12 10h261c4 0 6 -2 6 -6v-17c0 -4 -2 -7 -6 -7h-238l155 -306c1 -3 1 -5 1 -8v-16c0 -3 0 -5 -1 -8l-155 -306h238c4 0 6 -3 6 -7v-17c0 -4 -2 -6 -6 -6h-261z" />
    <glyph glyph-name="lozenge" unicode="&#x25ca;" horiz-adv-x="451" 
d="M219 -2c-10 0 -14 4 -18 13l-145 328c-3 7 -3 15 0 22l145 328c4 9 8 13 18 13h12c10 0 14 -4 19 -13l144 -328c3 -7 3 -15 0 -22l-144 -328c-5 -9 -9 -13 -19 -13h-12zM225 28l142 322l-142 323l-142 -323z" />
    <glyph glyph-name="bar" unicode="|" horiz-adv-x="175" 
d="M71 794c0 3 3 6 7 6h19c4 0 6 -3 6 -6v-858c0 -3 -2 -6 -6 -6h-19c-4 0 -7 3 -7 6v858z" />
    <glyph glyph-name="brokenbar" unicode="&#xa6;" horiz-adv-x="155" 
d="M68 510c-4 0 -7 2 -7 6v278c0 3 3 6 7 6h19c4 0 6 -3 6 -6v-278c0 -4 -2 -6 -6 -6h-19zM68 -70c-4 0 -7 3 -7 6v278c0 4 3 6 7 6h19c4 0 6 -2 6 -6v-278c0 -3 -2 -6 -6 -6h-19z" />
    <glyph glyph-name="at" unicode="@" horiz-adv-x="612" 
d="M236 -100c-109 0 -182 76 -182 189v254c0 113 73 188 182 188h74c76 0 127 -58 127 -147v-187c0 -83 -50 -139 -126 -139c-83 0 -139 57 -139 144c0 85 57 140 138 140h98v42c0 71 -40 119 -98 119h-74c-92 0 -152 -64 -152 -160v-254c0 -96 60 -161 152 -161h140
c91 0 152 65 152 161v424c0 96 -61 161 -152 161h-175c-4 0 -7 3 -7 7v15c0 4 3 6 7 6h175c109 0 181 -75 181 -189v-424c0 -113 -72 -189 -181 -189h-140zM311 86c58 0 97 45 97 111v117h-98c-62 0 -108 -44 -109 -112c0 -70 44 -116 110 -116z" />
    <glyph glyph-name="ampersand" unicode="&#x26;" horiz-adv-x="485" 
d="M213 -2c-89 0 -155 67 -155 159v60c0 66 32 124 95 143c-61 20 -91 77 -91 143v39c0 88 58 166 157 166c94 0 156 -76 158 -168c0 -3 -2 -6 -6 -6h-19c-4 0 -7 2 -7 6c-2 76 -49 138 -126 138c-82 0 -126 -65 -126 -136v-40c0 -74 47 -127 125 -127h225c4 0 6 -3 6 -7
v-16c0 -4 -2 -7 -6 -7h-66v-331c0 -10 -6 -16 -16 -16h-148zM213 28h132v317h-127c-82 0 -129 -53 -129 -127v-61c0 -76 52 -129 124 -129z" />
    <glyph glyph-name="paragraph" unicode="&#xb6;" horiz-adv-x="459" 
d="M357 701c15 0 23 -8 23 -23v-770c0 -4 -2 -6 -6 -6h-19c-4 0 -7 2 -7 6v763h-150v-763c0 -4 -3 -6 -7 -6h-19c-3 0 -6 2 -6 6v521c-89 0 -144 51 -144 136c0 86 55 136 144 136h191z" />
    <glyph glyph-name="copyright" unicode="&#xa9;" horiz-adv-x="620" 
d="M247 -3c-111 0 -185 76 -185 190v322c0 116 74 194 185 194h127c110 0 184 -78 184 -194v-322c0 -114 -74 -190 -184 -190h-127zM247 18h127c99 0 163 66 163 169v322c0 105 -64 173 -163 173h-127c-99 0 -164 -68 -164 -173v-322c0 -103 65 -169 164 -169zM310 139
c-72 0 -120 51 -120 126v168c0 77 47 129 118 129c66 0 114 -45 117 -110c0 -3 -2 -5 -5 -5h-16c-3 0 -5 2 -5 5c-4 51 -40 84 -91 84c-56 0 -91 -41 -91 -103v-168c0 -60 36 -99 93 -99c53 0 89 36 92 92c0 3 2 5 5 5h16c4 0 6 -2 6 -5c-3 -71 -51 -119 -119 -119z" />
    <glyph glyph-name="registered" unicode="&#xae;" horiz-adv-x="448" 
d="M163 264c-58 0 -106 49 -106 105v225c0 60 48 109 106 109h122c58 0 106 -49 106 -109v-225c0 -56 -48 -105 -106 -105h-122zM163 280h122c50 0 90 41 90 89v225c0 54 -40 93 -90 93h-122c-50 0 -90 -39 -90 -93v-225c0 -48 40 -89 90 -89zM161 344c-2 0 -3 1 -3 3v216
c0 40 27 69 67 69c38 0 66 -29 66 -69v-29c0 -38 -24 -65 -53 -70l55 -117c1 -2 0 -3 -2 -3h-13c-1 0 -3 1 -3 2l-54 116h-46v-115c0 -2 -1 -3 -2 -3h-12zM175 478h50c29 0 48 23 48 56v29c0 31 -19 53 -48 53c-30 0 -50 -22 -50 -53v-85z" />
    <glyph glyph-name="section" unicode="&#xa7;" horiz-adv-x="387" 
d="M259 224c40 -23 73 -56 73 -114c0 -71 -57 -118 -139 -118c-103 0 -142 72 -143 136c0 4 2 7 6 7h18c5 0 7 -3 7 -7c5 -43 21 -106 110 -106c66 0 110 34 110 90c0 137 -256 88 -256 256c0 53 31 93 79 112c-40 23 -69 58 -69 109c0 72 57 119 137 119
c88 0 136 -52 137 -122c0 -3 -2 -6 -6 -6h-19c-3 0 -6 3 -6 6c-4 36 -19 92 -104 92c-65 0 -108 -32 -108 -89c0 -134 256 -94 256 -250c0 -56 -31 -95 -83 -115zM76 366c0 -77 80 -100 146 -125c50 8 89 42 89 96c0 77 -89 101 -153 126c-51 -12 -82 -49 -82 -97z" />
    <glyph glyph-name="trademark" unicode="&#x2122;" horiz-adv-x="469" 
d="M366 702c41 0 65 -30 65 -73v-196c0 -2 -2 -4 -3 -4h-15c-2 0 -3 2 -3 4v194c0 33 -16 55 -44 55c-26 0 -43 -23 -43 -55v-194c0 -2 -1 -4 -3 -4h-15c-1 0 -3 2 -3 4v194c0 32 -16 55 -42 55c-28 0 -44 -22 -44 -55v-194c0 -2 -2 -4 -4 -4h-14c-3 0 -3 2 -3 4v196
c0 43 24 73 65 73c23 0 43 -15 53 -40c10 25 29 40 53 40zM158 700c2 0 3 -1 3 -2v-15c0 -2 -1 -3 -3 -3h-51v-247c0 -2 -2 -3 -3 -3h-16c-1 0 -2 1 -2 3v247h-52c-1 0 -2 1 -2 3v15c0 1 1 2 2 2h124z" />
    <glyph glyph-name="degree" unicode="&#xb0;" horiz-adv-x="305" 
d="M34 582c0 75 47 126 119 126c71 0 118 -51 118 -126s-47 -126 -118 -126c-72 0 -119 51 -119 126zM62 582c0 -60 36 -100 91 -100c54 0 91 40 91 100s-37 100 -91 100c-55 0 -91 -40 -91 -100z" />
    <glyph glyph-name="asciicircum" unicode="^" horiz-adv-x="285" 
d="M269 485c2 -4 -1 -7 -5 -7h-19c-3 0 -7 1 -8 4l-93 186l-93 -186c-1 -3 -5 -4 -8 -4h-19c-5 0 -8 3 -5 7l105 210c2 4 5 5 8 5h23c3 0 7 -1 8 -5z" />
    <glyph glyph-name="dagger" unicode="&#x2020;" horiz-adv-x="341" 
d="M307 503c4 0 6 -3 6 -6v-18c0 -3 -2 -6 -6 -6h-121v-567c0 -3 -2 -6 -6 -6h-19c-4 0 -7 3 -7 6v567h-120c-4 0 -7 3 -7 6v18c0 3 3 6 7 6h120v191c0 3 3 6 7 6h19c4 0 6 -3 6 -6v-191h121z" />
    <glyph glyph-name="daggerdbl" unicode="&#x2021;" horiz-adv-x="348" 
d="M311 473h-121v-301h121c3 0 6 -3 6 -7v-17c0 -4 -3 -6 -6 -6h-121v-236c0 -3 -3 -6 -6 -6h-19c-4 0 -7 3 -7 6v236h-120c-4 0 -7 2 -7 6v17c0 4 3 7 7 7h120v301h-120c-4 0 -7 3 -7 6v18c0 3 3 6 7 6h120v191c0 3 3 6 7 6h19c3 0 6 -3 6 -6v-191h121c3 0 6 -3 6 -6v-18
c0 -3 -3 -6 -6 -6z" />
    <glyph glyph-name="uni0308" unicode="&#x308;" 
d="M-123 580c-16 0 -27 11 -27 26c0 16 11 27 27 27c15 0 26 -11 26 -27c0 -15 -11 -26 -26 -26zM-26 580c-16 0 -27 11 -27 26c0 16 11 27 27 27c15 0 26 -11 26 -27c0 -15 -11 -26 -26 -26z" />
    <glyph glyph-name="uni0307" unicode="&#x307;" 
d="M-29 579c-16 0 -27 11 -27 27s11 27 27 27s27 -11 27 -27c0 -15 -11 -27 -27 -27z" />
    <glyph glyph-name="gravecomb" unicode="&#x300;" 
d="M-95 668h22c3 0 6 -2 8 -4l62 -97c2 -5 1 -8 -5 -8h-14c-3 0 -7 1 -9 4l-68 97c-3 4 -1 8 4 8z" />
    <glyph glyph-name="acutecomb" unicode="&#x301;" 
d="M-8 668c5 0 7 -4 4 -8l-68 -97c-2 -3 -6 -4 -9 -4h-14c-6 0 -7 3 -5 8l62 97c2 2 5 4 8 4h22z" />
    <glyph glyph-name="uni030B" unicode="&#x30b;" 
d="M-106 668c5 0 6 -4 4 -8l-69 -97c-2 -3 -6 -4 -9 -4h-13c-5 0 -7 3 -4 8l62 97c2 2 5 4 8 4h21zM-9 668c5 0 7 -4 4 -8l-69 -97c-2 -3 -6 -4 -8 -4h-14c-5 0 -7 3 -4 8l63 97c1 2 4 4 7 4h21z" />
    <glyph glyph-name="uni0302" unicode="&#x302;" 
d="M-188 559c-5 0 -6 4 -3 8l72 97c2 3 5 4 8 4h25c3 0 6 -1 8 -4l72 -97c3 -4 1 -8 -4 -8h-15c-3 0 -6 1 -8 4l-66 82l-65 -82c-2 -3 -5 -4 -8 -4h-16z" />
    <glyph glyph-name="uni030C" unicode="&#x30c;" 
d="M-188 668h16c3 0 6 -1 8 -4l65 -82l66 82c2 3 5 4 8 4h15c5 0 7 -4 4 -8l-72 -97c-2 -3 -5 -4 -8 -4h-25c-3 0 -6 1 -8 4l-72 97c-3 4 -2 8 3 8z" />
    <glyph glyph-name="uni0306" unicode="&#x306;" 
d="M-105 563c-60 0 -101 39 -104 98c0 4 3 7 7 7h16c4 0 6 -3 7 -7c2 -45 29 -71 74 -71s72 26 75 71c0 4 3 7 7 7h16c4 0 6 -3 6 -7c-3 -59 -43 -98 -104 -98z" />
    <glyph glyph-name="uni030A" unicode="&#x30a;" 
d="M-134 615c0 37 26 61 65 61c38 0 64 -24 64 -61c0 -38 -26 -64 -64 -64c-39 0 -65 26 -65 64zM-109 614c0 -25 15 -40 40 -40c24 0 39 15 39 40c0 24 -15 39 -39 39c-25 0 -40 -15 -40 -39z" />
    <glyph glyph-name="tildecomb" unicode="&#x303;" 
d="M-142 626c-17 0 -29 -14 -30 -39c0 -4 -3 -6 -7 -6h-15c-4 0 -7 2 -7 6c3 40 27 67 58 67c42 0 54 -47 84 -47c17 0 29 14 30 39c0 4 3 7 7 7h16c3 0 6 -3 6 -7c-3 -41 -27 -66 -58 -66c-40 0 -53 46 -84 46z" />
    <glyph glyph-name="uni0304" unicode="&#x304;" 
d="M-154 619c0 4 3 6 7 6h141c4 0 6 -2 6 -6v-16c0 -3 -2 -6 -6 -6h-141c-4 0 -7 3 -7 6v16z" />
    <glyph glyph-name="uni0312" unicode="&#x312;" 
d="M-43 567l-8 140c0 4 2 6 6 6h10c4 0 8 -2 8 -6l23 -140c1 -5 -1 -7 -6 -7h-26c-4 0 -7 2 -7 7z" />
    <glyph glyph-name="uni0326" unicode="&#x326;" 
d="M-51 -71c0 5 3 7 7 7h26c5 0 7 -2 6 -7l-23 -140c0 -4 -4 -6 -8 -6h-10c-4 0 -6 2 -6 6z" />
    <glyph glyph-name="uni0327" unicode="&#x327;" 
d="M-82 -195c-47 0 -79 26 -83 67c0 4 3 7 7 7h14c3 0 6 -2 6 -6c3 -26 25 -42 56 -42s54 17 54 46c0 27 -20 46 -46 46c-12 0 -26 -3 -38 -7c-2 -1 -4 0 -6 2l-1 1c-2 2 -3 3 -2 6l14 75h26l-10 -56c5 1 13 2 20 2c42 -1 71 -29 71 -69c0 -45 -34 -72 -82 -72z" />
    <glyph glyph-name="uni0328" unicode="&#x328;" 
d="M0 -187c0 -3 -2 -5 -5 -6c-8 -1 -18 -2 -25 -2c-53 0 -80 33 -80 72c0 40 29 83 69 123h31c-46 -40 -70 -82 -70 -116c0 -32 23 -50 58 -50c5 0 10 1 16 1c3 1 6 -2 6 -5v-17z" />
    <glyph glyph-name="uni0335" unicode="&#x335;" 
d="M-210 372v27h200v-27h-200z" />
    <glyph glyph-name="uni0336" unicode="&#x336;" 
d="M-330 399h320v-27h-320v27z" />
    <glyph glyph-name="uni0337" unicode="&#x337;" 
d="M-208 -45c-4 0 -7 3 -6 7l161 578c1 3 3 5 7 5h18c4 0 7 -3 6 -7l-161 -578c-1 -3 -3 -5 -6 -5h-19z" />
    <glyph glyph-name="uni0338" unicode="&#x338;" 
d="M-312 -45c-4 0 -7 3 -6 7l217 778c1 3 3 5 7 5h18c4 0 6 -3 5 -7l-216 -778c-1 -3 -3 -5 -7 -5h-18z" />
    <glyph glyph-name="uni0308.case" 
d="M-123 797c-16 0 -27 11 -27 26c0 16 11 27 27 27c15 0 26 -11 26 -27c0 -15 -11 -26 -26 -26zM-26 797c-16 0 -27 11 -27 26c0 16 11 27 27 27c15 0 26 -11 26 -27c0 -15 -11 -26 -26 -26z" />
    <glyph glyph-name="uni0307.case" 
d="M-29 781c-16 0 -27 11 -27 27s11 27 27 27s27 -11 27 -27c0 -15 -11 -27 -27 -27z" />
    <glyph glyph-name="gravecomb.case" 
d="M-10 769h-15c-2 0 -6 1 -7 4l-80 90c-4 5 -2 8 4 8h23c2 0 6 -1 8 -4l71 -90c3 -4 1 -8 -4 -8z" />
    <glyph glyph-name="acutecomb.case" 
d="M-100 769c-5 0 -7 4 -4 8l71 90c2 3 6 4 8 4h23c6 0 8 -3 4 -8l-80 -90c-1 -3 -5 -4 -7 -4h-15z" />
    <glyph glyph-name="uni030B.case" 
d="M-204 769c-5 0 -7 4 -4 8l71 90c2 3 6 4 9 4h22c6 0 8 -3 4 -8l-80 -90c-1 -3 -4 -4 -7 -4h-15zM-104 769c-5 0 -7 4 -4 8l71 90c2 3 6 4 9 4h22c6 0 8 -3 4 -8l-80 -90c-1 -3 -4 -4 -7 -4h-15z" />
    <glyph glyph-name="uni0302.case" 
d="M-6 777c2 -4 1 -8 -4 -8h-15c-3 0 -6 1 -8 4l-69 79l-69 -79c-2 -3 -5 -4 -8 -4h-15c-5 0 -6 4 -3 8l73 90c2 3 5 4 8 4h28c3 0 6 -1 8 -4z" />
    <glyph glyph-name="uni030C.case" 
d="M-7 863l-74 -90c-2 -3 -5 -4 -8 -4h-28c-3 0 -6 1 -8 4l-73 90c-3 4 -2 8 3 8h15c3 0 6 -1 8 -4l69 -79l69 79c2 3 5 4 8 4h15c5 0 6 -4 4 -8z" />
    <glyph glyph-name="uni0306.case" 
d="M-105 769c-60 0 -101 38 -104 95c0 4 3 6 7 6h16c4 0 6 -2 7 -6c2 -43 29 -68 74 -68s72 25 75 68c0 4 3 6 7 6h16c4 0 6 -2 6 -6c-3 -57 -43 -95 -104 -95z" />
    <glyph glyph-name="uni030A.case" 
d="M-134 822c0 37 26 61 65 61c38 0 64 -24 64 -61c0 -38 -26 -64 -64 -64c-39 0 -65 26 -65 64zM-109 821c0 -25 15 -40 40 -40c24 0 39 15 39 40c0 24 -15 39 -39 39c-25 0 -40 -15 -40 -39z" />
    <glyph glyph-name="tildecomb.case" 
d="M-142 819c-17 0 -29 -14 -30 -39c0 -4 -3 -6 -7 -6h-15c-4 0 -7 2 -7 6c3 40 27 67 58 67c42 0 54 -47 84 -47c17 0 29 14 30 39c0 4 3 7 7 7h16c3 0 6 -3 6 -7c-3 -41 -27 -66 -58 -66c-40 0 -53 46 -84 46z" />
    <glyph glyph-name="uni0304.case" 
d="M-155 820c0 4 3 6 7 6h141c4 0 6 -2 6 -6v-16c0 -3 -2 -6 -6 -6h-141c-4 0 -7 3 -7 6v16z" />
    <glyph glyph-name="uni0312.case" 
d="M-55 765l-8 140c0 4 2 6 6 6h10c4 0 8 -2 8 -6l23 -140c1 -5 -1 -7 -6 -7h-26c-4 0 -7 2 -7 7z" />
    <glyph glyph-name="uni0326.case" 
d="M-51 -71c0 5 3 7 7 7h26c5 0 7 -2 6 -7l-23 -140c0 -4 -4 -6 -8 -6h-10c-4 0 -6 2 -6 6z" />
    <glyph glyph-name="uni0327.case" 
d="M-82 -195c-47 0 -79 26 -83 67c0 4 3 7 7 7h14c3 0 6 -2 6 -6c3 -26 25 -42 56 -42s54 17 54 46c0 27 -20 46 -46 46c-12 0 -26 -3 -38 -7c-2 -1 -4 0 -6 2l-1 1c-2 2 -3 3 -2 6l14 75h26l-10 -56c5 1 13 2 20 2c42 -1 71 -29 71 -69c0 -45 -34 -72 -82 -72z" />
    <glyph glyph-name="uni0328.case" 
d="M-20 -187c0 -3 -2 -5 -5 -6c-8 -1 -18 -2 -25 -2c-53 0 -80 33 -80 72c0 40 29 83 69 123h31c-46 -40 -70 -82 -70 -116c0 -32 23 -50 58 -50c5 0 10 1 16 1c3 1 6 -2 6 -5v-17z" />
    <glyph glyph-name="uni0337.case" 
d="M-186 -45c-4 0 -7 3 -6 7l161 578c1 3 3 5 7 5h18c4 0 7 -3 6 -7l-161 -578c-1 -3 -3 -5 -6 -5h-19z" />
    <glyph glyph-name="uni0338.case" 
d="M-327 -45c-4 0 -7 3 -6 7l217 778c1 3 3 5 7 5h18c4 0 6 -3 5 -7l-216 -778c-1 -3 -3 -5 -7 -5h-18z" />
    <glyph glyph-name="brevecombcy" 
d="M-105 563c-60 0 -101 39 -104 98c0 4 3 7 7 7h16c4 0 6 -3 7 -7c2 -45 29 -71 74 -71s72 26 75 71c0 4 3 7 7 7h16c4 0 6 -3 6 -7c-3 -59 -43 -98 -104 -98z" />
    <glyph glyph-name="brevecombcy.case" 
d="M-105 769c-60 0 -101 38 -104 95c0 4 3 6 7 6h16c4 0 6 -2 7 -6c2 -43 29 -68 74 -68s72 25 75 68c0 4 3 6 7 6h16c4 0 6 -2 6 -6c-3 -57 -43 -95 -104 -95z" />
    </font>
</defs>
</svg>
